<svg width="239" height="87" viewBox="0 0 239 87" fill="none" xmlns="http://www.w3.org/2000/svg">
<path fill-rule="evenodd" clip-rule="evenodd" d="M16.8231 48.895C5.11968 58.855 6.64615 78.775 27 85H212C232.354 78.775 233.88 58.855 222.177 48.895C241.513 37.69 245.584 5.735 212 2H27C-6.58376 5.735 -2.51301 37.69 16.8231 48.895Z" fill="#CAD8CF"/>
<path d="M27 85L26.5613 86.4344L26.7757 86.5H27V85ZM16.8231 48.895L17.7952 50.0373L19.4119 48.6615L17.5751 47.5972L16.8231 48.895ZM212 85V86.5H212.224L212.439 86.4344L212 85ZM222.177 48.895L221.425 47.5972L219.588 48.6615L221.205 50.0373L222.177 48.895ZM212 2L212.166 0.509191L212.083 0.5H212V2ZM27 2V0.5H26.9168L26.8342 0.509191L27 2ZM27.4387 83.5656C17.7116 80.5907 12.6946 74.4379 11.3584 68.0414C10.0118 61.5951 12.3463 54.6745 17.7952 50.0373L15.8509 47.7527C9.59642 53.0755 6.84252 61.0949 8.42176 68.6548C10.0114 76.2646 15.9346 83.1843 26.5613 86.4344L27.4387 83.5656ZM212 83.5H27V86.5H212V83.5ZM221.205 50.0373C226.654 54.6745 228.988 61.5951 227.642 68.0414C226.305 74.4379 221.288 80.5907 211.561 83.5656L212.439 86.4344C223.065 83.1843 228.989 76.2646 230.578 68.6548C232.157 61.0949 229.404 53.0755 223.149 47.7527L221.205 50.0373ZM211.834 3.49081C219.998 4.39873 225.716 7.00297 229.465 10.4339C233.203 13.8545 235.083 18.1852 235.438 22.7621C236.152 31.9889 230.643 42.2553 221.425 47.5972L222.929 50.1928C233.047 44.3297 239.241 33.0161 238.429 22.5304C238.02 17.2511 235.83 12.1924 231.49 8.22075C227.161 4.25952 220.794 1.46877 212.166 0.509191L211.834 3.49081ZM27 3.5H212V0.5H27V3.5ZM17.5751 47.5972C8.35694 42.2553 2.84759 31.9889 3.56211 22.7621C3.91655 18.1852 5.79739 13.8545 9.53522 10.4339C13.2844 7.00298 19.0021 4.39873 27.1658 3.49081L26.8342 0.509191C18.206 1.46877 11.8386 4.25952 7.50991 8.22075C3.16983 12.1924 0.979907 17.2511 0.571069 22.5304C-0.240948 33.0161 5.95311 44.3297 16.071 50.1928L17.5751 47.5972Z" fill="#9ABCA6"/>
</svg>
