<svg width="214" height="160" viewBox="0 0 214 160" fill="none" xmlns="http://www.w3.org/2000/svg">
<path fill-rule="evenodd" clip-rule="evenodd" d="M15.5 1.353C13.3 2.047 12.096 2.825 12.825 3.082C13.742 3.406 13.934 4.415 13.449 6.348C12.949 8.341 12.438 8.838 11.673 8.073C9.838 6.238 8.113 6.881 6.5 10C5.647 11.65 4.23 13 3.352 13C2.072 13 1.993 12.713 2.956 11.553C3.617 10.757 4.072 9.07 3.968 7.803C3.67 4.178 3.955 3.381 4.974 4.992C5.687 6.119 6.199 6.201 7.071 5.329C8.536 3.864 7.429 2 5.096 2C1.69 2 0 5.259 0 11.829C0 15.223 0.400998 18 0.891998 18C1.382 18 2.066 19.125 2.411 20.5C2.767 21.92 3.786 23.027 4.769 23.063C6.119 23.113 6.024 23.319 4.338 23.999C2.219 24.853 1.834 25.6 0.553001 31.334C-0.306999 35.184 1.598 33.898 3.501 29.344C4.918 25.953 6.923 25.269 7.793 27.879C8.023 28.568 7.365 29.353 6.331 29.624C4.431 30.12 -0.417001 39 1.211 39C1.695 39 3.158 37.933 4.462 36.628L6.834 34.257L7.577 36.378C8.174 38.082 8.394 37.712 8.695 34.5C9.262 28.449 9.732 27.533 11.512 29.01C12.33 29.689 13.048 29.852 13.106 29.372C13.165 28.893 13.277 27.629 13.356 26.565C13.474 24.98 14.268 24.629 17.75 24.619C20.087 24.613 22 24.246 22 23.804C22 23.362 21.052 23 19.894 23C17.974 23 18.057 22.749 20.837 20.152C24.385 16.838 25.622 13.031 24.085 10.159C22.757 7.678 22.724 7 23.929 7C25.835 7 28.17 10.23 27.064 11.336C23.898 14.502 28.784 17.41 32.151 14.363C33.642 13.014 34.014 11.767 33.597 9.523C33.153 7.136 33.252 6.868 34.067 8.25C34.804 9.5 36.371 10 39.547 10C43.187 10 44.676 9.388 47.747 6.633C49.811 4.781 52.508 2.952 53.741 2.568C56.499 1.71 58.856 2.853 56.865 4.083C55.897 4.682 55.822 5.222 56.601 6.001C57.379 6.779 58.05 6.645 58.98 5.524C60.059 4.224 59.965 3.619 58.419 1.911C56.935 0.27 55.855 -0.00799996 53.031 0.519C51.089 0.882 49.035 1.563 48.466 2.032C47.89 2.508 46.784 2.469 45.966 1.945C45.16 1.427 42.588 1.279 40.25 1.615C37.428 2.022 36 1.853 36 1.114C36 0.501 35.55 0 35 0C34.45 0 34 0.675 34 1.5C34 2.903 35.753 3.472 38.809 3.061C40.86 2.785 46.04 5.377 45.675 6.495C44.945 8.725 39.885 7.967 33.273 4.637C24.953 0.447 20.801 -0.32 15.5 1.353ZM155.517 1.981C154.026 3.629 153.942 4.226 155.02 5.524C155.95 6.645 156.621 6.779 157.399 6.001C158.178 5.222 158.071 4.662 157.02 4.012C155.761 3.234 155.785 3.02 157.188 2.481C159.022 1.778 163.944 4.022 166 6.5C169.292 10.466 178.012 11.753 180.316 8.612C180.764 8 180.836 8.545 180.475 9.822C179.701 12.563 182.322 16 185.186 16C187.516 16 188.613 13.443 187.077 11.593C186.198 10.533 186.305 9.838 187.537 8.606C189.118 7.025 191 6.459 191 7.566C191 7.877 190.522 9.024 189.939 10.115C188.452 12.892 190.427 18.403 193.816 20.933C196.433 22.886 196.444 22.937 194.25 22.968C190.305 23.024 191.84 24.489 196.154 24.785C201.384 25.145 202.422 25.787 200.845 27.686C199.78 28.97 199.959 29.143 202.047 28.847C204.304 28.528 204.52 28.853 204.747 32.914C205.032 38.002 205.826 39.381 206.652 36.221C207.21 34.089 207.304 34.114 210.142 37.152C211.746 38.869 213.264 40.07 213.514 39.819C214.312 39.021 210.052 31.562 207.841 29.887C206.67 29 206.029 27.763 206.415 27.137C207.636 25.162 208.928 25.891 210.385 29.378C212.372 34.135 214.131 34.974 213.363 30.8C213.029 28.985 212.221 26.6 211.567 25.5C210.335 23.43 211.513 18 213.193 18C213.637 18 214 15.145 214 11.655C214 4.808 212.004 1.467 208.336 2.174C206.047 2.615 205.243 6 207.427 6C208.292 6 209 5.523 209 4.941C209 4.359 209.452 4.161 210.004 4.502C210.556 4.843 210.73 6.226 210.392 7.574C210.046 8.953 210.317 10.677 211.011 11.513C211.69 12.331 211.852 12.993 211.372 12.985C209.884 12.959 208.351 11.597 207.068 9.162C206.129 7.381 205.277 6.965 203.486 7.414C201.677 7.868 200.981 7.514 200.461 5.877C200.044 4.563 200.285 3.442 201.091 2.944C202.002 2.38 201.507 1.906 199.448 1.369C193.829 -0.0959996 189.063 0.715 181.44 4.432C174.186 7.969 169.068 8.765 168.318 6.473C167.931 5.29 173.86 2.795 175.155 3.596C176.592 4.484 180 2.962 180 1.433C180 0.645 179.55 0 179 0C178.45 0 178 0.501 178 1.114C178 1.862 176.563 2.012 173.615 1.57C170.266 1.067 168.849 1.294 167.615 2.527C166.727 3.416 166 3.705 166 3.169C166 2.202 160.793 0 158.506 0C157.848 0 156.503 0.892 155.517 1.981ZM29.641 7.417C31.981 12.136 31.421 14.793 28.351 13.529C27.126 13.025 26.923 12.609 27.75 12.3C29.753 11.552 29.194 8.249 26.777 6.557C25.555 5.701 23.235 5 21.623 5C18.745 5 18.724 5.038 20.516 7.017C22.749 9.485 23.502 15.352 21.764 16.743C21.069 17.3 19.375 18.095 18 18.511C15.524 19.258 15.518 19.245 17.371 17.17C18.4 16.018 18.977 14.383 18.653 13.537C17.743 11.167 15.835 11.719 16.187 14.25C16.444 16.096 15.961 16.561 13.5 16.838C11.85 17.025 10.05 17.547 9.5 18C8.415 18.893 3.24 18.197 2.54 17.064C2.303 16.681 3.659 15.665 5.554 14.806C7.45 13.947 9 13.591 9 14.015C9 14.439 9.681 15.047 10.512 15.366C11.708 15.825 11.904 15.377 11.449 13.223C10.968 10.948 11.057 10.788 11.987 12.25C13.672 14.9 14.705 14.35 14.222 11.059C13.567 6.595 17.615 2.985 23.205 3.049C27.254 3.096 27.623 3.346 29.641 7.417ZM62 4C62 4.652 77.667 5 107 5C136.333 5 152 4.652 152 4C152 3.348 136.333 3 107 3C77.667 3 62 3.348 62 4ZM197.475 5.159C199.843 7.022 200.15 7.846 199.705 11.16C199.16 15.224 200.392 15.475 202.097 11.648C202.883 9.882 202.964 10.078 202.552 12.75C201.999 16.331 202.223 16.605 204.179 14.738C205.245 13.719 206.16 13.807 208.923 15.197L212.347 16.918L209.462 18.015C207.48 18.768 205.938 18.794 204.538 18.097C203.417 17.54 201.375 16.952 200 16.792C198.045 16.564 197.568 16.009 197.813 14.25C198.165 11.719 196.257 11.167 195.347 13.537C194.602 15.48 197.534 18.792 200.354 19.194C201.697 19.385 202.62 20.342 202.82 21.75C203.22 24.569 200.454 24.846 199.726 22.059C199.447 20.992 197.482 19.288 195.359 18.272C191.767 16.553 191.517 16.156 191.742 12.52C191.876 10.373 192.438 8.162 192.992 7.608C195.816 4.784 191.004 3.908 187.223 6.557C184.806 8.249 184.247 11.552 186.25 12.3C187.077 12.609 186.874 13.025 185.649 13.529C182.579 14.793 182.019 12.136 184.359 7.417C186.355 3.391 186.778 3.095 190.615 3.049C193.374 3.016 195.635 3.712 197.475 5.159ZM14.122 21.199C13.073 24.035 11 24.733 11 22.25C11 20.011 11.819 19 13.634 19C14.555 19 14.697 19.644 14.122 21.199ZM210.029 122.969C208.027 125.112 207 125.687 207 124.665C207 123.814 206.52 122.821 205.933 122.459C205.346 122.096 204.95 122.407 205.052 123.15C205.154 123.892 205.184 126.196 205.118 128.269C205.006 131.863 204.872 132.006 202.25 131.353C199.83 130.75 199.656 130.857 200.799 132.245C202.42 134.215 201.423 134.852 196.154 135.215C191.84 135.511 190.305 136.976 194.25 137.032C196.444 137.063 196.433 137.114 193.816 139.067C190.427 141.597 188.452 147.108 189.939 149.885C191.802 153.366 190.822 154.053 187.479 151.608C185.836 150.407 185.764 149.989 186.952 148.558C188.132 147.137 188.088 146.659 186.645 145.217C184.656 143.227 182.097 144.338 180.5 147.883C179.76 149.525 178.719 150.063 176.5 149.95C170.987 149.669 170.146 149.979 165.5 154C160.975 157.916 157.734 158.997 156.5 157C156.16 156.45 156.359 156 156.941 156C157.523 156 158 155.55 158 155C158 153.75 155.316 153.68 154.556 154.91C153.649 156.376 155.028 158.874 157.108 159.534C159.398 160.261 166 158.269 166 156.851C166 156.304 166.727 156.584 167.615 157.473C168.849 158.706 170.266 158.933 173.615 158.43C176.563 157.988 178 158.138 178 158.886C178 159.499 178.45 160 179 160C179.55 160 180 159.355 180 158.567C180 157.038 176.592 155.516 175.155 156.404C173.86 157.205 167.931 154.71 168.318 153.527C169.082 151.192 174.409 151.964 181.414 155.425C186.449 157.913 189.995 158.996 193.075 158.986C198.703 158.969 202.593 157.984 200.978 156.986C200.274 156.552 200.063 155.378 200.461 154.123C200.981 152.486 201.677 152.132 203.486 152.586C205.277 153.035 206.129 152.619 207.068 150.838C208.351 148.403 209.884 147.041 211.372 147.015C211.852 147.007 211.69 147.669 211.011 148.487C210.317 149.323 210.046 151.047 210.392 152.426C210.73 153.774 210.556 155.157 210.004 155.498C209.452 155.839 209 155.641 209 155.059C209 154.477 208.292 154 207.427 154C205.243 154 206.047 157.385 208.336 157.826C212.004 158.533 214 155.192 214 148.345C214 144.855 213.599 142 213.108 142C212.618 142 211.934 140.875 211.589 139.5C211.233 138.08 210.214 136.973 209.231 136.937C207.912 136.888 208.028 136.661 209.72 135.98C210.968 135.478 212.213 133.864 212.563 132.293C212.906 130.757 213.417 128.656 213.7 127.625C214.564 124.474 212.112 126.796 210.499 130.656C209.082 134.047 207.077 134.731 206.207 132.121C205.977 131.432 206.635 130.647 207.669 130.376C209.397 129.924 214.409 121.075 213.469 120.136C213.243 119.91 211.696 121.185 210.029 122.969ZM0.755001 122.25C1.305 122.938 2.1 124.621 2.522 125.992C3.219 128.258 3.133 128.356 1.581 127.068C0.0230013 125.774 -0.071 125.905 0.5 128.575C0.844 130.184 1.331 132.512 1.582 133.75C1.885 135.247 2.785 136.021 4.269 136.063L6.5 136.127L4.25 137.031C2.951 137.553 2 138.795 2 139.968C2 141.085 1.555 142 1.012 142C-0.598999 142 -0.00700021 154.85 1.681 156.539C3.526 158.383 5.422 158.401 6.926 156.589C7.825 155.506 7.809 155 6.858 154.412C6.163 153.983 5.445 154.166 5.224 154.829C4.475 157.075 2.994 154.871 3.608 152.426C3.954 151.047 3.683 149.323 2.989 148.487C2.218 147.558 2.151 147 2.809 147C3.389 147 4.841 148.372 6.035 150.049C8.822 153.964 10.357 153.39 11.067 148.169C11.641 143.95 11.227 143.173 9.387 145.013C8.703 145.697 7.339 145.666 5.187 144.915C1.604 143.666 0.944001 142 4.032 142C5.205 142 6.447 141.049 6.969 139.75C7.863 137.525 7.874 137.524 7.937 139.643C8.005 141.946 9.759 143 13.523 143C16.129 143 17.616 144.501 16 145.5C14.833 146.222 15.608 148 17.09 148C19.029 148 19.199 144.876 17.371 142.83C15.519 140.755 15.525 140.741 18 141.468C20.735 142.271 23 144.637 23 146.691C23 147.411 22.564 148 22.031 148C21.499 148 21.347 148.74 21.694 149.645C22.078 150.646 21.614 151.809 20.509 152.617C18.844 153.835 18.832 153.998 20.364 154.586C22.788 155.516 27.823 153.132 28.599 150.687C28.99 149.455 28.797 148.432 28.133 148.211C26.244 147.581 26.865 146 29 146C31.558 146 31.53 147.922 28.899 152.969C27 156.613 26.429 157 22.955 157C17.525 157 13.8 153.63 13.8 148.718C13.8 146.676 13.395 145.256 12.9 145.562C11.632 146.346 11.782 150.428 13.193 153.525C14.146 155.615 14.119 156.308 13.061 156.962C12.182 157.505 13.365 158.129 16.566 158.812C21.991 159.969 26.561 158.849 34.17 154.5C38.804 151.85 44.565 151.201 45.254 153.25C45.717 154.63 40.33 157.322 38.888 156.431C37.416 155.521 34 157.015 34 158.567C34 159.355 34.45 160 35 160C35.55 160 36 159.499 36 158.886C36 158.138 37.437 157.988 40.385 158.43C43.648 158.92 45.157 158.7 46.287 157.57C47.523 156.334 47.902 156.302 48.323 157.399C48.608 158.141 50.518 159.062 52.569 159.447C55.576 160.011 56.689 159.756 58.317 158.128C60.025 156.419 60.132 155.864 59.01 154.512C58.058 153.365 57.379 153.221 56.601 153.999C55.822 154.778 55.897 155.318 56.865 155.917C57.858 156.53 57.906 156.94 57.05 157.469C55.108 158.669 51.702 157.233 47.694 153.523C44.541 150.604 43.135 150 39.494 150C36.392 150 34.778 150.515 34.006 151.75C33.127 153.157 33.032 152.875 33.522 150.316C34.025 147.68 33.712 146.858 31.706 145.543C27.898 143.048 24.041 145.641 27.064 148.664C27.817 149.417 27.649 150.208 26.493 151.364C24.307 153.55 22.569 153.482 23.574 151.25C25.209 147.618 24.308 143.913 20.944 140.443C17.844 137.244 17.763 137 19.804 137C21.012 137 22 136.638 22 136.196C22 135.754 20.087 135.391 17.75 135.39C13.856 135.388 13.473 135.157 13.178 132.632C12.91 130.349 12.606 130.082 11.403 131.08C9.421 132.726 9.058 132.106 8.854 126.722C8.758 124.169 8.301 122.314 7.839 122.599C7.378 122.885 7 123.832 7 124.705C7 125.866 6.342 125.582 4.548 123.646C2.078 120.981 -1.236 119.761 0.755001 122.25ZM7.628 131.208C7.957 131.739 7.744 132.656 7.155 133.245C5.904 134.496 3 132.558 3 130.471C3 129.037 6.645 129.617 7.628 131.208ZM14.122 138.801C14.706 140.38 14.556 141 13.59 141C11.736 141 9.679 138.328 10.506 136.991C11.484 135.408 13.181 136.258 14.122 138.801ZM202.82 138.25C202.62 139.658 201.697 140.615 200.354 140.806C197.534 141.208 194.602 144.52 195.347 146.463C196.257 148.833 198.165 148.281 197.813 145.75C197.568 143.991 198.045 143.436 200 143.208C201.375 143.048 203.417 142.46 204.538 141.903C205.938 141.206 207.48 141.232 209.462 141.985L212.347 143.082L208.923 144.803C206.16 146.193 205.245 146.281 204.179 145.262C202.352 143.518 202.304 143.581 202.672 147.25L202.997 150.5L201.915 147.75C200.373 143.831 199.385 144.351 199.815 148.856C200.125 152.112 199.75 153.052 197.395 154.904C195.393 156.479 193.53 157.012 190.775 156.798C187.491 156.543 186.596 155.919 184.535 152.454C181.895 148.013 182.429 145.145 185.649 146.471C186.874 146.975 187.077 147.391 186.25 147.7C184.247 148.448 184.806 151.751 187.223 153.443C191.004 156.092 195.816 155.216 192.992 152.392C192.438 151.838 191.876 149.627 191.742 147.48C191.517 143.844 191.767 143.447 195.359 141.728C197.482 140.712 199.447 139.008 199.726 137.941C200.454 135.154 203.22 135.431 202.82 138.25ZM62 156C62 156.652 77.667 157 107 157C136.333 157 152 156.652 152 156C152 155.348 136.333 155 107 155C77.667 155 62 155.348 62 156Z" fill="black"/>
</svg>
