<svg width="521" height="123" viewBox="0 0 521 123" fill="none" xmlns="http://www.w3.org/2000/svg">
<path d="M174.558 13.2688C190.212 6.13149 206.619 1.50566 221.024 0.166241C231.142 -0.776213 250.502 2.42922 257.618 6.22604C261.644 8.3729 265.048 8.01373 271.321 4.7813C281.17 -0.295535 308.757 -0.93553 325.378 3.5256C331.624 5.20258 346.668 10.9788 358.813 16.3608C376.559 24.2272 384.352 26.1823 398.507 26.3119C408.194 26.3983 419.778 25.5423 424.249 24.4081C430.324 22.8688 431.223 23.0471 427.809 25.121C425.297 26.6468 416.838 29.1069 409.01 30.5867C389.608 34.2512 368.118 30.079 336.185 16.4391C322.027 10.3928 304.793 4.8704 297.889 4.16828C283.585 2.71274 264.733 7.82739 266.595 12.6612C267.272 14.4219 265.666 15.8612 263.024 15.8612C260.382 15.8612 258.742 14.5083 259.379 12.8502C260.788 9.1965 242.834 3.49319 230.193 3.5823C225.151 3.61741 213.708 6.78233 204.766 10.6143C166.31 27.0951 153.228 30.9864 135.669 31.1646C119.56 31.3321 92.9136 26.3254 95.607 23.6385C96.2302 23.0201 100.918 23.7087 106.026 25.1669C126.167 30.9243 141.769 28.2157 174.558 13.2688Z" fill="#0E0506"/>
<path d="M69.2148 18.3213C82.27 12.7341 97.9915 6.51769 104.151 4.50856C119.306 -0.430552 153.491 1.14381 164.121 7.27382C168.592 9.85274 170.193 11.3461 167.679 10.59C136.368 1.19241 130.239 1.73251 95.924 16.9117C82.541 22.8311 65.0772 29.0664 57.1189 30.7677C40.6441 34.289 17.6255 32.3636 4.81964 26.3956C0.0370808 24.1651 -1.43969 23.1119 1.54094 24.0517C4.52158 24.9914 15.6258 26.374 26.2179 27.122C44.0149 28.3778 47.2801 27.7107 69.2148 18.3213Z" fill="#0E0506"/>
<path d="M364.636 7.41692C361.655 8.28647 362.875 7.14148 367.346 4.8677C373.199 1.89182 381.544 0.989868 397.152 1.64338C415.792 2.4265 422.626 4.23042 445.926 14.5137C471.326 25.7232 474.524 26.4712 497.011 26.4712H521L509.205 30.0277C486.704 36.8139 466.688 32.7066 412.215 10.1228C395.052 3.0071 382.235 2.27798 364.636 7.41692Z" fill="#0E0506"/>
<path d="M270.689 25.094C269.118 36.9625 255.065 34.7184 254.935 22.5799C254.906 19.8066 256.063 20.1927 258.959 23.9301C262.978 29.1123 263.072 29.1096 267.302 23.7708C271.489 18.4833 271.559 18.5104 270.689 25.094Z" fill="#0E0506"/>
<path d="M174.558 109.731C190.212 116.869 206.619 121.494 221.024 122.834C231.142 123.776 250.502 120.571 257.618 116.774C261.644 114.627 265.048 114.986 271.321 118.219C281.17 123.296 308.757 123.936 325.378 119.474C331.624 117.797 346.668 112.021 358.813 106.639C376.559 98.7728 384.352 96.8177 398.507 96.6881C408.194 96.6017 419.778 97.4577 424.249 98.5919C430.324 100.131 431.223 99.9529 427.809 97.879C425.297 96.3532 416.838 93.8931 409.01 92.4133C389.608 88.7488 368.118 92.921 336.185 106.561C322.027 112.607 304.793 118.13 297.889 118.832C283.585 120.287 264.733 115.173 266.595 110.339C267.272 108.578 265.666 107.139 263.024 107.139C260.382 107.139 258.742 108.492 259.379 110.15C260.788 113.804 242.834 119.507 230.193 119.418C225.151 119.383 213.708 116.218 204.766 112.386C166.31 95.9049 153.228 92.0136 135.669 91.8354C119.56 91.6679 92.9136 96.6746 95.607 99.3615C96.2302 99.9799 100.918 99.2913 106.026 97.8331C126.167 92.0757 141.769 94.7843 174.558 109.731Z" fill="#0E0506"/>
<path d="M69.2148 104.679C82.27 110.266 97.9915 116.482 104.151 118.491C119.306 123.431 153.491 121.856 164.121 115.726C168.592 113.147 170.193 111.654 167.679 112.41C136.368 121.808 130.239 121.267 95.924 106.088C82.541 100.169 65.0772 93.9336 57.1189 92.2323C40.6441 88.711 17.6255 90.6364 4.81964 96.6044C0.0370808 98.8349 -1.43969 99.8881 1.54094 98.9483C4.52158 98.0086 15.6258 96.626 26.2179 95.878C44.0149 94.6222 47.2801 95.2893 69.2148 104.679Z" fill="#0E0506"/>
<path d="M364.636 115.583C361.655 114.714 362.875 115.859 367.346 118.132C373.199 121.108 381.544 122.01 397.152 121.357C415.792 120.573 422.626 118.77 445.926 108.486C471.326 97.2768 474.524 96.5288 497.011 96.5288H521L509.205 92.9723C486.704 86.1861 466.688 90.2934 412.215 112.877C395.052 119.993 382.235 120.722 364.636 115.583Z" fill="#0E0506"/>
<path d="M270.689 97.906C269.118 86.0375 255.065 88.2816 254.935 100.42C254.906 103.193 256.063 102.807 258.959 99.0699C262.978 93.8877 263.072 93.8904 267.302 99.2292C271.489 104.517 271.559 104.49 270.689 97.906Z" fill="#0E0506"/>
</svg>
