<svg width="209" height="127" viewBox="0 0 209 127" fill="none" xmlns="http://www.w3.org/2000/svg">
<path fill-rule="evenodd" clip-rule="evenodd" d="M38.2577 4.85025C39.8114 2.76738 40.8625 1.80311 42.4195 1.03178C45.0607 -0.276147 47.3905 -0.317548 49.2253 0.911598C51.0431 2.12949 51.5838 3.97321 50.6771 5.86315C50.3078 6.63247 50.0058 7.41586 50.0058 7.60357C50.0058 7.78815 54.4738 7.94564 60 7.95946V10.0739L38.7082 10.0747L37.2374 12.2774C35.4151 15.0058 32.9341 17.1566 30.9157 17.7575C27.5373 18.7636 30.2334 19.3026 34.3151 18.4368C35.4936 18.1868 38.005 17.2651 39.8956 16.3881C46.6852 13.2392 49.7093 12.6263 52.5794 13.8184C54.616 14.6641 55.6675 16.2518 55.6675 18.4814V20.3745L54.0527 18.848C51.0981 16.0545 49.2827 16.2393 41.5209 20.1257C38.7474 21.5149 35.5486 22.7806 33.8489 23.162C31.1377 23.7706 30.7572 23.769 28.4116 23.1379C26.8676 22.7227 25.0736 21.8457 23.7852 20.8766C21.2952 19.0031 20.9677 18.9143 22.0252 20.3987C22.4583 21.0068 23.3148 23.0145 23.9291 24.8606C24.9034 27.788 25.015 28.6156 24.8043 31.334C24.4998 35.2581 23.5534 37.6461 20.5406 42.0928C18.4915 45.1182 18.1142 45.9643 17.8938 48.0323C17.6932 49.9134 17.7809 50.6486 18.2925 51.3745C19.3569 52.8834 18.5675 52.9119 16.9923 51.4215C15.1418 49.6703 14.4179 47.9857 14.4179 45.4306C14.4179 43.7689 14.8033 42.6688 16.5701 39.288C19.5429 33.6009 20.4379 29.4376 19.7451 24.5186L19.4337 22.3079L19.2109 25.1259C19.0289 27.4287 18.6625 28.5585 17.2087 31.3046C16.2296 33.1532 14.7208 35.4688 13.8553 36.4507L12.2818 38.2362L12.0784 47.6907C11.8665 57.552 11.7035 58.3398 10.1396 57.0496C9.63858 56.6364 9.53707 55.8124 9.63938 52.9843C9.73118 50.4368 9.6313 49.4375 9.28553 49.4383C9.02064 49.4387 8.69145 49.62 8.55395 49.8411C8.15116 50.4886 5.0348 50.3021 3.50694 49.5388C1.83634 48.7048 0.259954 46.5214 0.272491 45.0588C0.283814 43.7106 1.53829 40.9991 2.57357 40.0851C3.01721 39.6936 4.81723 38.6075 6.57357 37.6718L9.76718 35.9712L9.88324 32.5056L9.99931 29.0405L8.25348 29.6116C4.89649 30.7101 1.69722 28.6245 1.69722 25.3374C1.69722 23.3799 2.69125 22.238 4.87748 21.6845C7.36095 21.0554 8.57984 20.5213 9.52251 19.6482C10.3058 18.9227 10.3738 18.432 10.3738 13.4828C10.3738 9.55742 10.5101 8.05134 10.8793 7.90302C11.1575 7.79168 11.016 7.68597 10.5655 7.66868C9.85777 7.64135 9.76556 7.84313 9.89093 9.14865C10.1235 11.5748 7.50088 14.068 4.71572 14.068C3.94047 14.068 3.92551 14.0057 4.49693 13.1395C5.11851 12.1962 6.31717 8.65465 6.32526 7.73742C6.32769 7.45123 5.83067 7.23499 5.17108 7.23499C3.32698 7.23499 1.8788 5.84546 1.89417 4.09058C1.9152 1.67971 3.67801 0.23995 6.05593 0.691735C7.19757 0.908785 8.75616 2.51294 8.75616 3.47078C8.75616 4.1372 9.07605 4.14805 11.509 3.56282C12.5527 3.31201 13.9055 2.64679 14.5149 2.08487C15.124 1.52296 15.7419 1.18171 15.8875 1.32681C16.3299 1.76653 14.762 5.31892 13.6891 6.3077L12.6821 7.23499H17.184H21.6855L22.9501 4.72284C24.7121 1.2223 25.1602 0.803877 27.149 0.803877C29.6572 0.803877 31.403 2.9374 31.403 6.00262V7.63693H33.791H36.1795L38.2577 4.85025ZM60 116.83V118.978C55.2641 118.993 51.0948 119.101 50.4466 119.23C49.2026 119.477 49.1876 119.505 49.8905 120.277C51.0487 121.549 50.8603 124.338 49.5265 125.664C47.9922 127.188 44.7622 127.448 42.3758 126.238C40.3687 125.22 37.9544 122.852 36.8544 120.822C36.0844 119.4 36.0323 119.377 33.5354 119.377H30.9986V121.005C30.9986 123.925 29.1719 126.211 26.838 126.211C24.9697 126.211 24.1977 125.532 22.7001 122.577L21.2827 119.779L16.738 119.811C14.2387 119.828 12.414 119.932 12.6838 120.041C13.7611 120.475 15.9118 124.994 15.3209 125.581C15.1907 125.71 14.7018 125.458 14.2343 125.022C13.3345 124.182 10.3568 122.995 9.14924 122.995C8.71289 122.995 8.26278 123.474 8.00315 124.214C7.16967 126.591 3.01802 127.116 1.87273 124.989C0.630392 122.681 2.13843 119.779 4.58024 119.779C5.3199 119.779 5.91722 119.644 5.90751 119.478C5.85453 118.584 4.78892 115.378 4.15157 114.194L3.41636 112.828L4.91065 113.069C7.91135 113.553 10.1946 116.475 9.32759 118.721C9.13671 119.215 9.3102 119.376 10.0272 119.371C10.597 119.368 10.7907 119.245 10.5089 119.067C10.2011 118.873 9.99082 116.935 9.90225 113.487C9.7421 107.229 9.60744 106.986 5.57509 105.682C2.03813 104.538 1.26369 103.775 1.31344 101.479C1.35792 99.4181 2.191 98.2585 4.24863 97.3931C5.49218 96.8702 6.63342 96.9052 8.87424 97.5338C9.53545 97.7195 9.58843 97.445 9.48086 94.389L9.36277 91.0404L6.69085 89.6336C2.70379 87.5346 1.23336 86.2609 0.453666 84.2315C-0.689999 81.2551 0.345284 78.7674 3.37106 77.2223C4.63929 76.5748 7.21294 76.6669 8.26157 77.3972L9.16057 78.0226V74.262C9.16057 71.8729 9.3377 70.325 9.64585 70.0187C9.91276 69.7534 10.2314 69.5392 10.3536 69.5424C11.3893 69.5713 11.5251 70.6039 11.6537 79.4125L11.7892 88.6806L13.4186 90.5195C14.3147 91.5312 15.8616 93.9456 16.856 95.885C18.4551 99.0037 18.6642 99.7176 18.6642 102.059C18.6642 103.515 18.5307 105.34 18.3677 106.113C18.1716 107.044 18.1991 107.306 18.4486 106.888C18.6561 106.541 18.9921 104.913 19.1951 103.271C19.9093 97.4972 19.0225 92.9231 16.1859 87.7513C14.7022 85.0462 14.2783 83.8355 14.1174 81.8411C13.8865 78.9805 14.3799 77.6894 16.4876 75.6415C18.1861 73.9911 18.6136 74.016 17.7971 75.7183C17.2499 76.859 17.2156 77.474 17.5836 79.5512C17.9338 81.5264 18.4814 82.6727 20.2976 85.2343C24.4949 91.1545 25.4182 95.9425 23.5255 101.976C22.9157 103.92 22.0608 106.008 21.6252 106.616C20.6474 107.98 21.1436 108.052 22.5562 106.751C23.1353 106.217 24.5891 105.272 25.7874 104.651C27.5963 103.713 28.4452 103.526 30.7964 103.551C33.9758 103.583 35.5862 104.135 42.3127 107.497C48.8795 110.779 50.7381 110.881 53.6082 108.112L55.2631 106.516V108.471C55.2631 110.767 54.2342 112.341 52.175 113.196C49.3296 114.378 45.7785 113.681 40.0626 110.82C35.6553 108.613 29.8808 107.396 29.1788 108.525C29.0413 108.746 29.2257 108.927 29.5884 108.927C31.4657 108.927 35.1349 112.001 37.2705 115.364L38.2577 116.918L59.8968 116.83L60 116.83ZM47.2287 5.378C48.1976 4.50659 48.1879 3.75455 47.2016 3.22961C46.1218 2.65523 45.5953 2.72316 43.7916 3.66894C41.9706 4.62355 42.2007 5.10307 44.7533 5.67303C46.1708 5.98976 46.6063 5.93751 47.2287 5.378ZM41.5132 7.63693C42.1805 7.63693 42.7264 7.49062 42.7264 7.31176C42.7264 7.13289 42.4927 6.66865 42.2067 6.28037C41.7134 5.60952 41.6519 5.61234 40.9935 6.33544C40.025 7.39938 40.1196 7.63693 41.5132 7.63693ZM17.6434 11.9401C15.346 10.7323 15.1915 10.1402 17.1225 9.94088C18.0118 9.84923 17.4667 9.7592 15.8333 9.72865L13.0024 9.67559L14.2157 10.6841C16.3315 12.4422 20.2207 14.4197 22.9112 15.1047C26.1392 15.9266 28.7743 15.6646 30.9391 14.3064C32.4767 13.3417 34.9367 10.6129 34.5845 10.2628C34.4927 10.172 33.4 10.0562 32.1564 10.0064C30.3099 9.93203 29.7211 10.0771 28.9442 10.7962C26.6609 12.9104 20.6478 13.519 17.6434 11.9401ZM12.6979 14.2803C12.429 15.6722 12.5265 15.8925 13.0971 15.183C13.3235 14.9013 13.3785 14.3144 13.2188 13.8783C12.9681 13.1926 12.8977 13.2469 12.6979 14.2803ZM18.2597 18.4894C17.9419 17.9368 17.6754 17.0999 17.6673 16.6292C17.6596 16.159 17.3806 15.5492 17.0473 15.2743C16.5103 14.8317 16.5062 14.9523 17.0085 16.3306C17.9512 18.9163 18.8344 20.7367 18.836 20.0972C18.8368 19.7656 18.5776 19.0421 18.2597 18.4894ZM13.912 30.5478C15.147 28.0923 15.223 27.6932 15.1786 23.9157C15.1143 18.4701 14.6573 16.4733 14.3507 20.2982C14.2197 21.9321 13.7554 23.8887 13.2427 24.9652C12.5212 26.4793 12.3817 27.3981 12.4787 29.9895L12.598 33.1604L13.912 30.5478ZM18.8983 21.5374C18.9177 22.0056 19.0136 22.1009 19.1426 21.7806C19.2594 21.4903 19.2449 21.1435 19.1106 21.01C18.9764 20.8766 18.8809 21.1137 18.8983 21.5374ZM26.4971 30.5305C25.8501 28.3837 26.3394 26.3744 27.8082 25.1456C30.4587 22.9289 34.8926 24.2666 35.807 27.5589C36.996 31.8388 32.7234 35.0857 28.6963 32.9622C27.3504 32.2528 26.849 31.6981 26.4971 30.5305ZM9.18726 43.0221C9.9071 43.4052 9.96938 43.293 9.96938 41.6153C9.96938 40.6129 9.8331 39.7965 9.66608 39.8013C9.49906 39.8061 8.59399 40.157 7.65415 40.5811C5.48935 41.5578 3.49886 43.5635 3.49886 44.7682C3.49886 46.3233 5.92288 47.8635 6.98768 46.9853C7.88223 46.2473 7.64606 45.8281 5.89659 45.0499L4.25025 44.3172L5.34457 43.4614C6.53475 42.5313 7.95826 42.3685 9.18726 43.0221ZM5.65961 81.9006C6.88658 81.3728 7.41555 80.9291 7.26956 80.5504C6.9525 79.7289 4.56164 79.8454 3.76374 80.7221C2.30302 82.3262 3.25257 84.1925 6.45953 86.0205C9.3009 87.6403 9.56497 87.5849 9.56497 85.3702C9.56497 83.76 9.47277 83.5578 8.85726 83.8191C7.20445 84.5217 6.09152 84.4529 4.97414 83.5791L3.83249 82.6868L5.65961 81.9006ZM25.7413 98.6777C25.7413 96.0128 26.9395 94.3126 29.381 93.5132C30.4652 93.1582 31.4038 93.2406 32.7784 93.8114C34.6528 94.59 35.4471 95.8834 35.4471 98.1576C35.4471 99.691 35.2194 100.325 34.3018 101.345C33.3332 102.423 32.8047 102.649 30.8732 102.808C28.6927 102.987 28.5256 102.932 27.1656 101.58C26.0494 100.471 25.7413 99.8426 25.7413 98.6777ZM14.4409 107.52C15.0556 104.568 14.8765 99.8329 14.0713 97.7263C13.658 96.6455 13.021 95.3372 12.6559 94.8187C12.0173 93.9131 11.9914 94.0099 11.9914 97.3015C11.9914 99.1858 12.1491 100.899 12.342 101.109C13.0065 101.833 14.0135 105.457 14.06 107.29L14.1065 109.128L14.4409 107.52ZM16.8605 110.051C16.8694 110.207 17.1565 109.82 17.4986 109.193C17.8408 108.565 18.045 107.977 17.9528 107.885C17.774 107.707 16.833 109.573 16.8605 110.051ZM16.6741 111.714C16.9899 111.454 17.2487 111.081 17.2487 110.888C17.2487 110.188 16.5293 110.554 16.3166 111.361C16.1382 112.04 16.2021 112.103 16.6741 111.714ZM11.9914 112.267C11.9914 113.911 12.1783 114.102 12.7493 113.041C13.0126 112.552 12.9543 112.092 12.5612 111.558C12.0331 110.84 11.9914 110.892 11.9914 112.267ZM32.3016 114.203C30.9149 112.825 29.8371 112.15 28.4828 111.811C25.9544 111.178 24.3542 111.244 21.6903 112.091C19.2938 112.854 14.0774 115.72 13.2224 116.744C12.759 117.299 13.0093 117.36 15.4807 117.3C17.1885 117.259 17.6657 117.171 16.7181 117.074C14.7992 116.875 14.9476 116.336 17.2592 115.108C20.3311 113.475 25.6612 113.973 28.4508 116.153C29.2253 116.759 30.0939 116.966 31.862 116.966C33.2455 116.966 34.2338 116.79 34.2338 116.545C34.2338 116.313 33.3644 115.26 32.3016 114.203ZM40.2878 120.159C40.9563 121.4 41.3777 121.451 42.085 120.379L42.745 119.377H41.3061C40.006 119.377 39.9077 119.453 40.2878 120.159ZM43.6837 123.372C46.5206 124.657 48.7998 123.413 46.8396 121.65C46.4328 121.285 45.8416 121.012 45.5253 121.046C41.8104 121.435 41.1755 122.237 43.6837 123.372Z" fill="black"/>
<path fill-rule="evenodd" clip-rule="evenodd" d="M149 118.978C149.399 118.976 149.802 118.976 150.207 118.976H159.689L158.851 120.035C157.847 121.303 157.748 123.646 158.644 124.917C161.222 128.575 166.904 127.25 170.752 122.095L172.774 119.386L175.301 119.382L177.829 119.377V121.427C177.829 123.223 178 123.647 179.204 124.844C181.761 127.385 184.005 126.506 186.102 122.14L187.333 119.578L191.68 119.559C194.071 119.547 196.027 119.603 196.027 119.683C196.027 119.762 195.494 120.494 194.842 121.31C194.19 122.126 193.526 123.511 193.365 124.389L193.073 125.983L194.367 124.901C195.078 124.307 196.425 123.626 197.36 123.388C198.295 123.15 199.288 122.88 199.566 122.787C199.847 122.693 200.326 123.224 200.644 123.98C201.653 126.381 204.374 126.981 206.281 125.225C208.346 123.322 207.005 119.727 204.192 119.625C203.304 119.593 202.904 119.38 202.903 118.939C202.901 117.719 204.063 114.474 204.795 113.653C205.526 112.834 205.52 112.83 203.831 113.048C200.628 113.46 198.674 115.89 199.381 118.578C199.559 119.254 199.395 119.373 198.315 119.352C197.145 119.329 197.114 119.296 197.948 118.963C198.829 118.611 198.858 118.424 198.858 113.19C198.858 107.9 198.881 107.762 199.868 106.99C200.423 106.556 201.973 105.875 203.313 105.476C206.567 104.507 207.351 103.731 207.351 101.482C207.351 100.077 207.099 99.4153 206.174 98.3863C205.155 97.2521 204.737 97.0768 203.04 97.0736C201.963 97.0712 200.559 97.2143 199.919 97.3915C198.938 97.6628 198.795 97.6106 199.009 97.0571C199.148 96.6962 199.263 95.1587 199.263 93.6406V90.88L202.493 89.2095C207.417 86.6632 209.41 83.8215 208.519 80.6156C207.588 77.2617 202.422 75.3734 199.97 77.4905C199.302 78.0676 199.263 77.8615 199.263 73.791C199.263 69.5508 199.248 69.4825 198.353 69.6087C197.537 69.7241 197.416 70.0292 197.19 72.551C197.05 74.0984 196.914 78.3787 196.886 82.0626L196.836 88.761L195.232 90.5034C194.349 91.462 192.803 93.8399 191.794 95.7874C190.156 98.9531 189.955 99.6356 189.905 102.218L189.849 105.108L189.436 102.538C189.156 100.792 189.156 98.8249 189.436 96.3971C189.799 93.2583 190.131 92.2704 192.186 88.2433C195.568 81.6128 195.602 78.9716 192.349 75.5889C191.037 74.2243 190.066 73.9284 190.626 75.0631C190.816 75.4502 190.967 76.9422 190.96 78.3792C190.947 81.1626 190.73 81.6646 187.381 86.6287C184.86 90.3663 184.185 92.7764 184.401 97.2705C184.58 100.983 185.104 102.815 186.949 106.175C187.845 107.808 187.661 107.914 186.18 106.622C184.197 104.892 181.203 103.578 178.789 103.379C175.972 103.147 171.976 104.375 167.07 106.981C160.293 110.58 157.874 110.798 155.119 108.06C154.264 107.211 153.449 106.515 153.307 106.515C152.843 106.515 153.555 110.259 154.208 111.25C154.559 111.782 155.675 112.582 156.689 113.028C159.62 114.317 162.298 113.729 169.904 110.132C173.083 108.628 173.913 108.409 176.981 108.263L180.458 108.098L178.366 108.931C175.99 109.877 173.488 112.116 171.734 114.866L170.536 116.743L149 116.83V118.978ZM149 10.0739L149.236 10.0739L170.763 10.0727L171.855 11.7874C173.905 15.0086 177.706 18.0875 179.633 18.0875C179.975 18.0875 180.255 18.2949 180.255 18.5485C180.255 18.8753 179.403 18.9376 177.323 18.7628C174.389 18.5156 171.727 17.6261 167.112 15.3507C162.446 13.0495 159.004 12.6592 156.367 14.132C154.751 15.0347 153.564 17.1385 153.564 19.1004C153.564 20.4027 153.97 20.3581 155.375 18.9006C156.773 17.4504 158.84 16.7141 160.678 17.0107C161.429 17.1317 164.457 18.4183 167.408 19.8697C172.46 22.3541 176.396 23.7147 178.531 23.7147C180.128 23.7147 183.842 22.2199 185.905 20.7476L187.874 19.3412L186.678 21.8819C183.395 28.8552 184.13 35.9704 188.736 41.799C189.349 42.5747 190.15 43.7922 190.518 44.5053C191.426 46.2714 191.816 50.2579 191.192 51.4159C190.4 52.8862 191.082 52.9015 192.591 51.4477C194.472 49.6361 195.401 47.1501 195.076 44.7967C194.934 43.7673 193.845 41.0872 192.585 38.667C190.152 33.9969 189.53 31.5 189.607 26.7293C189.676 22.482 190.258 20.7279 190.318 24.5877C190.361 27.372 190.531 27.9914 192.064 30.9646C192.999 32.7758 194.546 35.1227 195.502 36.1798L197.24 38.1019V46.759C197.24 55.7195 197.514 57.6388 198.758 57.4021C199.367 57.2863 199.481 56.6951 199.58 53.1395L199.696 49.0115L200.58 49.6273C202.467 50.9408 206.459 50.0899 208.092 48.0267C209.371 46.4101 209.29 43.5909 207.906 41.5635C206.579 39.6213 206.207 39.3383 202.639 37.5597L199.746 36.1179L199.46 32.908C199.303 31.1422 199.267 29.6056 199.38 29.4935C199.493 29.3809 200.341 29.4911 201.264 29.7383C204.852 30.6985 207.755 28.6498 207.755 25.1573C207.755 23.3755 206.63 22.2834 203.993 21.5052C202.91 21.1853 201.402 20.5422 200.643 20.0759L199.263 19.2278V13.9145C199.263 10.3183 199.106 8.44566 198.777 8.11928C198.4 7.74426 198.433 7.63694 198.928 7.63694C199.394 7.63694 199.615 8.16429 199.755 9.6133C199.86 10.7002 200.241 11.8823 200.601 12.2404C201.42 13.0543 203.817 14.0681 204.923 14.0681H205.757L204.908 12.9269C204.1 11.8397 203.337 9.45011 203.316 7.9384C203.309 7.42874 203.628 7.235 204.475 7.235C206.331 7.235 207.535 5.99982 207.535 4.09461C207.535 2.2316 206.618 0.988783 205.022 0.685717C203.054 0.311507 200.923 1.66927 200.893 3.31604C200.885 3.74612 200.567 4.01944 200.076 4.01944C198.923 4.01944 195.264 2.57727 194.364 1.76775C193.651 1.12665 193.601 1.12625 193.601 1.75931C193.601 2.8112 194.76 5.31732 195.713 6.325L196.573 7.235H192.049H187.525L186.498 4.92784C185.098 1.78182 184.1 0.801879 182.308 0.812731C179.762 0.828407 178.233 2.69946 178.233 5.80166V7.63694H175.647H173.06L171.77 5.63848C169.398 1.9639 166.432 0 163.256 0C160.238 0 158.433 1.58205 158.439 4.22042C158.441 5.10469 158.71 6.17949 159.037 6.60837C159.363 7.03764 159.631 7.52038 159.631 7.68156C159.631 7.84274 154.99 7.96815 149.318 7.96011C149.212 7.95995 149.106 7.95974 149 7.95947V10.0739ZM164.218 5.82176C167.261 5.21483 167.567 4.86835 165.979 3.83374C164.369 2.78547 162.731 2.65524 161.95 3.51299C161.29 4.2377 161.298 4.32291 162.098 5.17664C162.764 5.88688 163.211 6.02273 164.218 5.82176ZM169.391 7.63694L168.528 6.43111C168.052 5.7679 167.625 5.22528 167.578 5.22528C167.53 5.22528 167.286 5.7679 167.034 6.43111C166.58 7.6273 166.587 7.63694 167.984 7.63694H169.391ZM193.482 10.9168C191.329 13.0451 185.345 13.4643 182.075 11.7155C181.186 11.2396 180.094 10.6178 179.649 10.3332C179.119 9.99435 178.095 9.89065 176.677 10.0329L174.514 10.2496L175.797 11.8574C177.207 13.6259 179.679 15.13 181.835 15.5319C185.005 16.1232 190.243 14.3446 194.391 11.2685L196.578 9.64666L193.775 9.70374C191.503 9.74996 191.274 9.80704 192.565 10.0052C194.05 10.2331 194.112 10.2942 193.482 10.9168ZM196.392 15.3949C196.715 15.716 196.836 15.4853 196.836 14.5504C196.836 13.0656 196.603 12.8992 196.217 14.1087C196.068 14.5729 196.147 15.1517 196.392 15.3949ZM191.895 16.3487C192.095 16.6638 192.349 16.4974 192.658 15.8463C193.192 14.7208 193.176 14.7015 192.27 15.3744C191.891 15.6561 191.726 16.0842 191.895 16.3487ZM190.786 19.6137C190.795 19.7692 191.082 19.383 191.424 18.7555C191.766 18.1277 191.971 17.5392 191.878 17.4472C191.7 17.2695 190.759 19.1358 190.786 19.6137ZM196.183 24.847C195.397 23.0165 195.089 21.6069 195.08 19.7958C195.072 18.4143 195.026 17.2836 194.977 17.2836C194.928 17.2836 194.666 18.5871 194.395 20.1804C193.691 24.3325 194.114 27.7736 195.718 30.9497L197.038 33.5624L197.156 30.4742C197.256 27.8543 197.108 27.001 196.183 24.847ZM190.398 20.7335C190.417 21.2018 190.513 21.297 190.642 20.9767C190.759 20.6865 190.744 20.3396 190.61 20.2061C190.476 20.0727 190.38 20.3098 190.398 20.7335ZM174.618 31.9799C172.749 30.0031 173.314 26.2976 175.708 24.8221C178.375 23.1785 182.269 24.4611 183.113 27.2615C184.66 32.3951 178.332 35.9097 174.618 31.9799ZM206.137 45.0081C206.137 43.832 204.572 42.1294 202.463 41.0128C201.197 40.3416 200.049 39.7925 199.914 39.7925C199.778 39.7925 199.667 40.6129 199.667 41.6153C199.667 43.3441 199.711 43.4148 200.518 42.9855C201.552 42.4357 203.846 42.8047 204.537 43.6315C205.139 44.3517 205.128 44.3642 203.206 45.156C201.555 45.8357 201.308 46.3739 202.375 46.9676C203.508 47.597 206.137 46.2276 206.137 45.0081ZM205.733 81.8632C205.733 81.5268 205.253 80.876 204.667 80.4182C203.404 79.4302 202.385 79.3551 201.681 80.1975C201.399 80.5344 201.241 80.8511 201.328 80.901C202.8 81.743 203.398 81.9967 203.908 81.9967C205.023 81.9967 204.542 83.1004 203.138 83.7624C202.092 84.256 201.497 84.3159 200.686 84.0092C200.096 83.7865 199.535 83.6044 199.438 83.6044C199.342 83.6044 199.263 84.4336 199.263 85.4465C199.263 86.4598 199.399 87.2276 199.566 87.1528C203.312 85.4695 205.733 83.393 205.733 81.8632ZM172.976 98.0547C172.976 96.6765 174.099 94.6985 175.304 93.9565C177.666 92.5011 181.289 93.428 182.41 95.7745C183.247 97.5278 183.262 98.5897 182.473 100.242C181.267 102.768 178.04 103.635 175.523 102.11C174.123 101.261 172.976 99.4358 172.976 98.0547ZM194.689 107.319C194.695 105.36 194.968 104.108 195.781 102.312C196.718 100.243 196.85 99.4764 196.75 96.6845L196.634 93.4521L195.218 96.2576C193.881 98.9089 193.805 99.2746 193.85 102.89C193.875 104.994 194.073 107.44 194.289 108.324C194.67 109.882 194.682 109.851 194.689 107.319ZM191.595 111.255C192.031 111.526 192.388 111.691 192.388 111.621C192.388 111.18 189.997 105.205 189.981 105.606C189.97 105.881 190.321 107.048 190.762 108.2C191.228 109.418 191.404 110.394 191.183 110.529C190.973 110.658 191.159 110.985 191.595 111.255ZM189.86 110.184C190.501 110.684 190.516 110.67 190.013 110.032C189.708 109.646 189.389 109.329 189.305 109.329C188.972 109.329 189.186 109.659 189.86 110.184ZM195.99 113.24C196.331 113.82 196.409 113.674 196.42 112.444C196.433 110.778 196.216 110.517 195.827 111.732C195.688 112.17 195.761 112.848 195.99 113.24ZM194.771 116.061C193.794 115.343 191.665 114.059 190.042 113.208C187.552 111.905 186.601 111.633 183.976 111.476C181.278 111.316 180.588 111.422 178.813 112.267C177.517 112.884 176.283 113.891 175.458 115.004L174.153 116.765L176.651 116.886C178.7 116.985 179.303 116.863 180.011 116.202C182.365 114.003 188.383 113.335 191.517 114.925C193.747 116.055 193.956 116.878 192.063 117.076C191.241 117.162 191.913 117.263 193.558 117.3L196.548 117.368L194.771 116.061ZM168.078 120.54C168.509 120.011 168.832 119.559 168.796 119.535C168.76 119.511 168.207 119.366 167.569 119.213C166.459 118.948 166.421 118.986 166.692 120.06C167.081 121.603 167.182 121.638 168.078 120.54ZM165.331 123.109C166.536 122.402 166.764 121.995 166.164 121.627C165.976 121.511 165.086 121.3 164.186 121.156C162.833 120.941 162.398 121.048 161.67 121.772C160.969 122.469 160.887 122.764 161.271 123.223C161.923 124.004 163.901 123.949 165.331 123.109Z" fill="black"/>
<line x1="60" y1="9" x2="149" y2="9" stroke="black" stroke-width="2"/>
<line x1="60" y1="118" x2="149" y2="118" stroke="black" stroke-width="2"/>
</svg>
