<svg width="37" height="47" viewBox="0 0 37 47" fill="none" xmlns="http://www.w3.org/2000/svg">
<g filter="url(#filter0_d)">
<path fill-rule="evenodd" clip-rule="evenodd" d="M15.4055 29.2126C15.3568 28.6489 16.4438 25.0183 16.9606 23.3329L16.9414 21.4992L16.4513 20.6038C15.105 19.2219 13.479 17.5166 13.3901 16.9332C13.3481 16.6572 13.4678 16.1243 13.6527 15.4908L13.5716 15.3427C12.4029 14.3444 9.16689 11.5725 8.91487 11.2745C8.61231 10.9166 8.58402 6.38979 8.58311 6.2288L8.58243 6.22757C8.58266 6.22742 8.58288 6.22728 8.5831 6.22713C8.58309 6.22532 8.58308 6.2244 8.58308 6.2244L8.58421 6.22638C10.5112 4.9357 12.7159 4.21896 15.0223 4.13337C17.3294 4.04775 19.6746 4.59602 21.8705 5.73443C24.0665 6.87284 26.0524 8.56987 27.6699 10.6901C29.2873 12.8103 30.4915 15.2949 31.1863 17.9458C31.8811 20.5966 32.0473 23.3402 31.6716 25.9576C31.2959 28.575 30.3887 30.9937 29.0224 33.0207C27.6561 35.0477 25.8686 36.6269 23.8025 37.6322C21.7368 38.6373 19.4498 39.0409 17.1239 38.8108L17.1239 38.8115C17.1239 38.8115 15.4023 38.5484 14.6177 37.4147C16.2424 36.6453 16.8567 34.6797 17.069 33.6846L17.0606 32.8834C16.6833 32.175 15.4595 29.8367 15.4055 29.2126Z" fill="url(#paint0_linear)"/>
</g>
<path fill-rule="evenodd" clip-rule="evenodd" d="M18.8022 30.9979C26.2508 28.8265 30.371 20.4867 28.005 12.3702C27.7638 11.5428 27.4645 10.7497 27.1135 9.99473C27.3034 10.2211 27.489 10.4529 27.6699 10.6901C29.2873 12.8103 30.4915 15.2949 31.1863 17.9458C31.8811 20.5966 32.0473 23.3402 31.6716 25.9576C31.2959 28.575 30.3887 30.9937 29.0224 33.0207C27.6561 35.0477 25.8686 36.6269 23.8025 37.6322C21.7368 38.6373 19.4498 39.0409 17.1239 38.8108L17.1239 38.8115C17.1239 38.8115 15.4023 38.5484 14.6177 37.4147C16.2424 36.6453 16.8567 34.6797 17.069 33.6846L17.0606 32.8834C16.9097 32.6002 16.6236 32.0565 16.331 31.4659C17.1554 31.3914 17.9819 31.237 18.8022 30.9979Z" fill="url(#paint1_linear)"/>
<path d="M30.2635 22.8878C30.4196 15.2533 25.4624 9.8225 22.9644 8.06143C19.8868 7.42801 19.9414 8.94265 19.9414 8.94265C24.9094 11.1678 28.8928 19.1665 30.2635 22.8878Z" fill="white" fill-opacity="0.29"/>
<defs>
<filter id="filter0_d" x="0.602173" y="0.509521" width="36.352" height="45.7425" filterUnits="userSpaceOnUse" color-interpolation-filters="sRGB">
<feFlood flood-opacity="0" result="BackgroundImageFix"/>
<feColorMatrix in="SourceAlpha" type="matrix" values="0 0 0 0 0 0 0 0 0 0 0 0 0 0 0 0 0 0 127 0" result="hardAlpha"/>
<feOffset dx="-2" dy="3"/>
<feGaussianBlur stdDeviation="1.5"/>
<feComposite in2="hardAlpha" operator="out"/>
<feColorMatrix type="matrix" values="0 0 0 0 0 0 0 0 0 0 0 0 0 0 0 0 0 0 0.25 0"/>
<feBlend mode="normal" in2="BackgroundImageFix" result="effect1_dropShadow"/>
<feBlend mode="normal" in="SourceGraphic" in2="effect1_dropShadow" result="shape"/>
</filter>
<linearGradient id="paint0_linear" x1="7.56661" y1="9.24581" x2="31.6654" y2="24.9271" gradientUnits="userSpaceOnUse">
<stop stop-color="#FFF7F0"/>
<stop offset="0.75" stop-color="#E3CCB7"/>
</linearGradient>
<linearGradient id="paint1_linear" x1="20.7213" y1="25.2919" x2="27.3973" y2="34.3457" gradientUnits="userSpaceOnUse">
<stop offset="0.192708" stop-color="#E3CCB7" stop-opacity="0"/>
<stop offset="1" stop-color="#BEA894"/>
</linearGradient>
</defs>
</svg>
