        <svg class="bottomHair" viewBox="0 0 165 94" fill="none" xmlns="http://www.w3.org/2000/svg">
			<style>
				.maskB{
				  animation: hairMB 1s .1s linear forwards;
				}
				@keyframes hairMB {
				  0%{
					d: path("M 3 8.5 C -2 2 3.333 3.5 4.999 2 C 12.666 -2 16.499 2 16.499 2 C 15.697 2.314 14.794 2.561 13.876 2.804 C 12.957 3.046 12.024 3.283 11.16 3.577 C 10.296 3.87 9.502 4.22 8.863 4.686 C 8.225 5.153 7.742 5.737 7.499 6.5 C 6.227 10.5 2.349 4.05 3 8.5 C 3 8.5 3 8.5 3 8.5");
				  }
				  20%{
					d: path("M 26 62.5 C 26 62.5 26 62.5 26 62.5 C 26 62.5 26 62.5 26 62.5 C 26 62.5 26 62.5 26 62.5 C 26 62.5 26 62.5 26 62.5 C 11.5 64.5 -1 35 1 18.5 C 3 2 8.5 0.5 8.5 0.5 C 8.5 5.5 7 11.5 11 34 C 15 56.5 26 62.5 26 62.5");
				  }
				  40%{
					d: path("M 85.909 68.822 C 85.909 68.822 85.909 68.822 85.909 68.822 C 52.164 87.184 23.403 102.835 6.501 74.5 C -2 60.25 -0.75 41.75 2.625 26.813 C 5.999 11.875 11.499 0.5 11.499 0.5 C 11.499 3 11.374 9.25 13.124 17.563 C 14.875 25.875 18.5 36.25 26 47 C 41 68.5 48 71 86.5 68.5 C 86.303 68.607 86.106 68.715 85.909 68.822");
				  }
				  60%{
					d: path("M 120.5 61 C 103.5 70.25 85.875 82.75 68.376 90.063 C 50.876 97.375 33.501 99.5 17.001 88 C 0.5 76.5 -0.875 54.625 1.875 35.625 C 4.624 16.625 11.499 0.5 11.499 0.5 C 11.499 3 11.374 9.25 13.124 17.563 C 14.875 25.875 18.5 36.25 26 47 C 41.001 68.5 82 63.5 120.5 61 C 120.5 61 120.5 61 120.5 61");
				  }
				  80%{
					d: path("M 165 68.5 C 146.75 62.75 118 73.375 89.688 82.563 C 61.376 91.75 33.501 99.5 17.001 88 C 0.5 76.5 -0.875 54.625 1.875 35.625 C 4.624 16.625 11.499 0.5 11.499 0.5 C 11.499 3 11.374 9.25 13.124 17.563 C 14.875 25.875 18.5 36.25 26 47 C 41.001 68.5 143 35 165 68.5 C 165 68.5 165 68.5 165 68.5");
				  }
				  100%{
					d: path("M 165 68.5 C 146.75 62.75 118 73.375 89.688 82.563 C 61.376 91.75 33.501 99.5 17.001 88 C 0.5 76.5 -0.875 54.625 1.875 35.625 C 4.624 16.625 11.499 0.5 11.499 0.5 C 11.499 3 11.374 9.25 13.124 17.563 C 14.875 25.875 18.5 36.25 26 47 C 41.001 68.5 143 35 165 68.5 C 165 68.5 165 68.5 165 68.5");
				  }
				}
			</style>
          <mask id="mask0" style="mask-type:alpha" maskUnits="userSpaceOnUse" x="0" y="0" width="165" height="94">
          <path class="maskB" d="M 3 8.5 C -2 2 3.333 3.5 4.999 2 C 12.666 -2 16.499 2 16.499 2 C 15.697 2.314 14.794 2.561 13.876 2.804 C 12.957 3.046 12.024 3.283 11.16 3.577 C 10.296 3.87 9.502 4.22 8.863 4.686 C 8.225 5.153 7.742 5.737 7.499 6.5 C 6.227 10.5 2.349 4.05 3 8.5 C 3 8.5 3 8.5 3 8.5" fill="#C4C4C4"/>
          </mask>
          <g mask="url(#mask0)">
          <path d="M26.7963 90.501C-6.80374 79.301 0.29645 28.5 10.2964 4C10.2964 30.727 18.5067 57.4779 53.2965 65C89.2842 72.7811 120.542 40.356 160.871 66.1812C162.083 66.8261 163.227 67.5958 164.297 68.501C163.147 67.6802 162.006 66.9076 160.871 66.1812C132.624 51.1517 67.0682 103.925 26.7963 90.501Z" fill="#B285CA"/>
          <path d="M30.7958 77C6.296 68.5 6.29628 45 9.296 7.5C13.2964 55.5 29.2964 64 56.7964 64C84.2964 64 111.296 48.5 146.296 59C109.297 55.5 72.6219 91.5112 30.7958 77Z" fill="#D9AFED"/>
          <path d="M5.29639 41C5.79639 50 11.3964 68.4 29.7964 70C21.6297 70.5 5.29639 65.4 5.29639 41Z" fill="#B285CA"/>
          <path d="M100.796 66.9998C111.297 64.7622 114.296 66 118.296 62.5C113.796 64 112.796 62 100.796 66.9998Z" fill="#B285CA"/>
          <path d="M25.7964 51.5C30.1446 59.3958 42.2964 63.7244 53.7964 66C42.7964 64.5 31.5787 62 25.7964 51.5Z" fill="#B285CA"/>
          <path d="M117.796 64.5001C108.996 63.7001 98.1297 67.5001 93.7963 69.5001C84.963 71.8334 69.1963 76.5 76.7963 76.5C86.2963 76.5 93.7963 73.5 101.796 69C108.196 65.4 115.13 64.5001 117.796 64.5001Z" fill="#D9AFED"/>
          <path d="M6.0604 23.5828C7.05609 19.9317 8.38034 18.0831 9.29662 17.5C8.26556 18.4574 7.07178 20.4821 6.0604 23.5828C5.06386 27.237 4.39645 32.6967 4.79662 40.5C5.59662 56.1 7.82515 64 11.7964 70.5C6.79639 65 3.79639 53.7 3.79639 40.5C3.79639 33.1326 4.78289 27.4994 6.0604 23.5828Z" fill="#D9AFED"/>
          <path d="M17.2964 71C17.4491 71.2672 17.6428 71.5557 17.877 71.8591C20.6152 75.3547 27.0262 77.5 31.2964 77.5C34.7964 77.5 46.7964 77.5 55.2964 79.5C47.7964 78.6213 39.2964 80 30.2964 78.5C23.9208 77.4374 19.6884 74.2054 17.877 71.8591C17.6593 71.5812 17.4648 71.2946 17.2964 71Z" fill="#D9AFED"/>
          <path d="M8.29639 75C9.12972 76.8333 15.2964 81 21.2964 81C18.2964 81.5 11.2964 81.6 8.29639 75Z" fill="#D9AFED"/>
          </g>
          </svg>
