<svg width="163" height="62" viewBox="0 0 163 62" fill="none" xmlns="http://www.w3.org/2000/svg">
<path d="M90.6621 10.4583C90.1361 5.7833 89.7522 1.2833 89.8082 0.4583C90.1992 -5.2977 99.3892 44.6733 101.817 65.7533C102.501 71.6903 103.37 75.9653 103.748 75.2533C104.126 74.5413 104.751 69.4583 105.137 63.9583C106.18 49.0833 111.585 1.22531 112.299 0.546313C112.639 0.223313 112.658 13.4583 112.341 29.9583L111.765 59.9583L113.681 49.9583C114.735 44.4583 117.042 31.9693 118.806 22.2043C120.571 12.4393 122.19 4.62531 122.404 4.83931C122.822 5.25731 119.43 46.5723 117.222 67.9583C116.484 75.1083 115.998 81.0813 116.142 81.2323C116.521 81.6273 126.239 48.2523 128.16 39.9583C129.051 36.1083 130.648 28.6833 131.708 23.4583L133.634 13.9583L133.125 23.4583C132.666 32.0163 130.366 49.8223 129.056 54.9583C128.775 56.0583 131.322 52.0083 134.716 45.9583C142.078 32.8363 150.666 19.6953 153.635 17.0083C155.138 15.6473 154.702 16.8453 152.177 21.0123C150.196 24.2833 146.51 31.2333 143.985 36.4583C138.583 47.6413 123.544 83.6453 124.06 84.1613C124.472 84.5743 143.508 57.0473 158.431 34.4593C164.064 25.9343 168.677 19.3673 168.681 19.8683C168.686 20.3683 165.255 27.3433 161.056 35.3683C154.276 48.3263 150.39 55.3883 143.398 67.4583C140.958 71.6693 142.231 70.5603 146.839 64.4583C151.621 58.1263 172.943 31.4683 175.633 28.4583C177.859 25.9673 177.859 25.9723 175.548 29.9583C174.272 32.1583 164.938 46.3083 154.806 61.4023L136.383 88.8454L148.72 78.4023C155.505 72.6583 167.274 62.4333 174.873 55.6803C182.472 48.9283 188.69 43.7063 188.69 44.0773C188.69 45.0993 181.195 53.1313 161.796 72.8973C152.113 82.7633 145.315 90.1493 146.69 89.3093C154.978 84.2493 172.345 75.0873 179.19 72.1653C192.304 66.5673 192.808 66.9493 181.19 73.6863C175.14 77.1933 167.49 81.8413 164.19 84.0123C155.24 89.9033 132.871 105.917 133.155 106.231C133.291 106.381 136.504 105.107 140.296 103.4C156.898 95.9263 179.895 86.3303 180.281 86.7163C180.753 87.1883 173.178 91.7623 154.69 102.169C131.283 115.346 129.19 116.585 131.19 116.086C139.16 114.094 176.808 113.564 183.69 115.347C186.574 116.094 185.607 116.272 178.19 116.357C167.83 116.476 147.747 118.638 129.69 121.578C112.251 124.417 99.8701 124.861 88.5722 123.053C61.8172 118.772 42.4432 116.566 29.6902 116.349L23.1902 116.239L27.6902 115.297C30.1652 114.779 41.2742 114.5 52.3772 114.677C63.4802 114.854 72.4802 114.921 72.3772 114.826C72.2742 114.732 59.5902 109.722 44.1902 103.694C10.2072 90.3913 12.4522 91.3493 16.6902 91.9563C19.4142 92.3463 52.1892 102.246 63.1902 106.002C65.0072 106.622 48.8422 97.2153 12.9132 76.7433C5.61115 72.5833 -0.197837 69.0133 0.00516281 68.8103C0.439163 68.3753 19.7042 77.0803 42.1832 87.8683C50.9792 92.0903 57.7292 95.1553 57.1832 94.6803C56.6372 94.2043 49.8902 89.3703 42.1902 83.9373C28.8412 74.5193 4.69016 55.7483 4.69016 54.7923C4.69016 54.2383 4.74516 54.2703 17.6902 62.4973C23.4652 66.1683 33.3652 72.3093 39.6902 76.1463C46.0152 79.9823 57.2192 86.8133 64.5872 91.3253L77.9842 99.5293L65.5872 86.3683C46.6672 66.2823 21.6902 37.5403 21.6902 35.8563C21.6902 35.5203 30.5822 43.7313 41.4502 54.1023C68.8332 80.2333 68.3062 79.9033 57.9872 64.4583C27.8672 19.3773 27.3772 18.1453 51.7902 48.8923C60.2602 59.5603 67.3122 68.1673 67.4612 68.0193C67.7822 67.7003 53.5672 41.5683 46.5452 29.5683C43.8452 24.9543 41.7992 21.0163 41.9972 20.8173C42.5482 20.2663 54.3941 36.4093 65.2662 52.5283C70.6191 60.4653 75.3692 67.3743 75.8202 67.8843C76.2722 68.3933 73.9042 61.8683 70.5582 53.3843C67.2132 44.8993 62.6942 33.2613 60.5172 27.5193C58.3402 21.7783 56.1221 16.2663 55.5891 15.2693C55.0561 14.2733 54.9732 13.4603 55.4052 13.4633C56.3102 13.4683 59.3192 19.2833 78.6892 58.4583C86.4392 74.1333 92.5502 86.0583 92.2692 84.9583C91.9872 83.8583 89.9282 72.2713 87.6922 59.2083C85.4562 46.1463 82.2902 28.8593 80.6572 20.7933C79.0232 12.7283 77.8832 5.93231 78.1232 5.69231C78.6782 5.13731 86.3401 29.1863 90.7102 45.1953C92.5462 51.9253 94.2082 57.2743 94.4012 57.0803C94.7952 56.6873 92.1441 23.6403 90.6621 10.4583Z" fill="url(#paint0_linear)"/>
<defs>
<linearGradient id="paint0_linear" x1="94.7442" y1="0" x2="94.7442" y2="124.133" gradientUnits="userSpaceOnUse">
<stop offset="0.307292" stop-color="#376040"/>
<stop offset="1" stop-color="#1E2F23"/>
</linearGradient>
</defs>
</svg>
