<svg width="167" height="62" viewBox="0 0 167 62" fill="none" xmlns="http://www.w3.org/2000/svg">
<g filter="url(#filter0_d)">
<path d="M94.6621 10.4583C94.1361 5.7833 93.7522 1.2833 93.8082 0.4583C94.1992 -5.2977 103.389 44.6733 105.817 65.7533C106.501 71.6903 107.37 75.9653 107.748 75.2533C108.126 74.5413 108.751 69.4583 109.137 63.9583C110.18 49.0833 115.585 1.22531 116.299 0.546313C116.639 0.223313 116.658 13.4583 116.341 29.9583L115.765 59.9583L117.681 49.9583C118.735 44.4583 121.042 31.9693 122.806 22.2043C124.571 12.4393 126.19 4.62531 126.404 4.83931C126.822 5.25731 123.43 46.5723 121.222 67.9583C120.484 75.1083 119.998 81.0813 120.142 81.2323C120.521 81.6273 130.239 48.2523 132.16 39.9583C133.051 36.1083 134.648 28.6833 135.708 23.4583L137.634 13.9583L137.125 23.4583C136.666 32.0163 134.366 49.8223 133.056 54.9583C132.775 56.0583 135.322 52.0083 138.716 45.9583C146.078 32.8363 154.666 19.6953 157.635 17.0083C159.138 15.6473 158.702 16.8453 156.177 21.0123C154.196 24.2833 150.51 31.2333 147.985 36.4583C142.583 47.6413 127.544 83.6453 128.06 84.1613C128.472 84.5743 147.508 57.0473 162.431 34.4593C168.064 25.9343 172.677 19.3673 172.681 19.8683C172.686 20.3683 169.255 27.3433 165.056 35.3683C158.276 48.3263 154.39 55.3883 147.398 67.4583C144.958 71.6693 146.231 70.5603 150.839 64.4583C155.621 58.1263 176.943 31.4683 179.633 28.4583C181.859 25.9673 181.859 25.9723 179.548 29.9583C178.272 32.1583 168.938 46.3083 158.806 61.4023L140.383 88.8454L152.72 78.4023C159.505 72.6583 171.274 62.4333 178.873 55.6803C186.472 48.9283 192.69 43.7063 192.69 44.0773C192.69 45.0993 185.195 53.1313 165.796 72.8973C156.113 82.7633 149.315 90.1493 150.69 89.3093C158.978 84.2493 176.345 75.0873 183.19 72.1653C196.304 66.5673 196.808 66.9493 185.19 73.6863C179.14 77.1933 171.49 81.8413 168.19 84.0123C159.24 89.9033 136.871 105.917 137.155 106.231C137.291 106.381 140.504 105.107 144.296 103.4C160.898 95.9263 183.895 86.3303 184.281 86.7163C184.753 87.1883 177.178 91.7623 158.69 102.169C135.283 115.346 133.19 116.585 135.19 116.086C143.16 114.094 180.808 113.564 187.69 115.347C190.574 116.094 189.607 116.272 182.19 116.357C171.83 116.476 151.747 118.638 133.69 121.578C116.251 124.417 103.87 124.861 92.5722 123.053C65.8172 118.772 46.4432 116.566 33.6902 116.349L27.1902 116.239L31.6902 115.297C34.1652 114.779 45.2742 114.5 56.3772 114.677C67.4802 114.854 76.4802 114.921 76.3772 114.826C76.2742 114.732 63.5902 109.722 48.1902 103.694C14.2072 90.3913 16.4522 91.3493 20.6902 91.9563C23.4142 92.3463 56.1892 102.246 67.1902 106.002C69.0072 106.622 52.8422 97.2153 16.9132 76.7433C9.61115 72.5833 3.80216 69.0133 4.00516 68.8103C4.43916 68.3753 23.7042 77.0803 46.1832 87.8683C54.9792 92.0903 61.7292 95.1553 61.1832 94.6803C60.6372 94.2043 53.8902 89.3703 46.1902 83.9373C32.8412 74.5193 8.69016 55.7483 8.69016 54.7923C8.69016 54.2383 8.74516 54.2703 21.6902 62.4973C27.4652 66.1683 37.3652 72.3093 43.6902 76.1463C50.0152 79.9823 61.2192 86.8133 68.5872 91.3253L81.9842 99.5293L69.5872 86.3683C50.6672 66.2823 25.6902 37.5403 25.6902 35.8563C25.6902 35.5203 34.5822 43.7313 45.4502 54.1023C72.8332 80.2333 72.3062 79.9033 61.9872 64.4583C31.8672 19.3773 31.3772 18.1453 55.7902 48.8923C64.2602 59.5603 71.3122 68.1673 71.4612 68.0193C71.7822 67.7003 57.5672 41.5683 50.5452 29.5683C47.8452 24.9543 45.7992 21.0163 45.9972 20.8173C46.5482 20.2663 58.3941 36.4093 69.2662 52.5283C74.6191 60.4653 79.3692 67.3743 79.8202 67.8843C80.2722 68.3933 77.9042 61.8683 74.5582 53.3843C71.2132 44.8993 66.6942 33.2613 64.5172 27.5193C62.3402 21.7783 60.1221 16.2663 59.5891 15.2693C59.0561 14.2733 58.9732 13.4603 59.4052 13.4633C60.3102 13.4683 63.3192 19.2833 82.6892 58.4583C90.4392 74.1333 96.5502 86.0583 96.2692 84.9583C95.9872 83.8583 93.9282 72.2713 91.6922 59.2083C89.4562 46.1463 86.2902 28.8593 84.6572 20.7933C83.0232 12.7283 81.8832 5.93231 82.1232 5.69231C82.6782 5.13731 90.3401 29.1863 94.7102 45.1953C96.5462 51.9253 98.2082 57.2743 98.4012 57.0803C98.7952 56.6873 96.1441 23.6403 94.6621 10.4583Z" fill="url(#paint0_linear)"/>
</g>
<defs>
<filter id="filter0_d" x="0" y="0" width="197.488" height="132.133" filterUnits="userSpaceOnUse" color-interpolation-filters="sRGB">
<feFlood flood-opacity="0" result="BackgroundImageFix"/>
<feColorMatrix in="SourceAlpha" type="matrix" values="0 0 0 0 0 0 0 0 0 0 0 0 0 0 0 0 0 0 127 0" result="hardAlpha"/>
<feOffset dy="4"/>
<feGaussianBlur stdDeviation="2"/>
<feComposite in2="hardAlpha" operator="out"/>
<feColorMatrix type="matrix" values="0 0 0 0 0 0 0 0 0 0 0 0 0 0 0 0 0 0 0.25 0"/>
<feBlend mode="normal" in2="BackgroundImageFix" result="effect1_dropShadow"/>
<feBlend mode="normal" in="SourceGraphic" in2="effect1_dropShadow" result="shape"/>
</filter>
<linearGradient id="paint0_linear" x1="98.7442" y1="0" x2="98.7442" y2="124.133" gradientUnits="userSpaceOnUse">
<stop offset="0.307292" stop-color="#376040"/>
<stop offset="1" stop-color="#1E2F23"/>
</linearGradient>
</defs>
</svg>
