<svg width="171" height="263" viewBox="0 0 171 263" fill="none" xmlns="http://www.w3.org/2000/svg">
<g filter="url(#filter0_d)">
<path d="M80.0334 32.4495C74.1804 23.9175 66.9134 6.45147 66.9234 0.944472C66.9254 0.039472 68.4004 2.22448 70.2024 5.79948C72.0044 9.37448 75.1404 14.8025 77.1714 17.8615C81.9514 25.0585 83.9034 29.8275 83.9904 34.5175C84.0574 38.1085 84.3094 37.7995 88.9904 28.3835C91.7024 22.9305 93.9504 17.0805 93.9884 15.3835C94.0544 12.3525 94.0754 12.3405 95.1914 14.6615C97.0754 18.5825 93.1294 31.0475 86.4304 42.3355C84.9934 44.7585 84.7834 46.3755 85.3914 50.3355C86.0774 54.8075 86.2444 55.0565 87.0804 52.8455C87.5904 51.4955 91.3074 46.3205 95.3404 41.3455C99.3734 36.3705 103.627 30.7245 104.793 28.7995C107.815 23.8095 107.419 26.7475 104.083 34.0715C100.446 42.0545 94.6814 51.0185 89.7274 56.3935C85.9514 60.4885 85.8494 60.7875 86.5124 65.7845L87.1974 70.9455L89.9924 65.8345C94.0464 58.4205 113.92 32.1675 113.92 34.2265C113.92 37.0815 94.7194 68.1265 90.7484 71.6915C87.4284 74.6715 86.9204 75.7025 86.9204 79.4635C86.9204 81.8485 87.2574 83.7935 87.6704 83.7875C88.0834 83.7805 89.3814 82.2895 90.5564 80.4755C91.8284 78.5105 98.8774 72.9545 107.984 66.7375C116.394 60.9965 125.746 54.0495 128.765 51.2995C132.657 47.7545 133.87 47.0265 132.934 48.7995C130.209 53.9575 122.705 62.8315 115.19 69.7805C107.879 76.5425 90.9054 88.7995 88.8544 88.7995C88.3414 88.7995 87.9204 92.2785 87.9204 96.5315V104.263L90.3964 100.62C91.9514 98.3305 98.3644 93.2735 107.646 87.0165C115.772 81.5385 124.783 74.9315 127.67 72.3355C130.557 69.7385 132.92 68.0385 132.92 68.5575C132.92 70.1295 123.448 81.9965 118.274 86.9065C109.786 94.9625 100.567 102.19 94.1774 105.799L87.9794 109.299L87.9764 122.799L87.9734 136.299L91.7514 129.182C103.551 106.957 122.709 87.5825 135.17 85.2725C140.066 84.3645 139.955 85.4015 134.941 87.4075C129.101 89.7445 120.655 99.4115 110.546 115.327C101.144 130.133 95.4304 136.932 90.7704 138.861C88.6894 139.723 87.9204 140.731 87.9204 142.595V145.148L90.1704 143.09C93.5744 139.978 97.6124 138.206 107.981 135.276C127.72 129.699 138.565 124.641 151.748 114.866C161.666 107.513 160.957 109.735 150.141 119.906C136.208 133.008 125.835 138.795 104.771 145.22C96.5834 147.718 88.2584 152.463 87.4584 155.089C87.2554 155.755 86.8374 158.746 86.5294 161.737L85.9704 167.175L90.6954 162.59C96.7674 156.699 99.6104 155.34 121.92 147.668C132.095 144.169 145.033 139.042 150.67 136.274C156.307 133.507 160.92 131.587 160.92 132.009C160.92 133.468 145.691 144.868 136.574 150.234C131.537 153.198 123.367 157.508 118.418 159.812C109.3 164.056 90.4224 170.799 87.6594 170.799C86.5674 170.799 85.9674 172.385 85.4844 176.549C85.1184 179.712 84.5504 184.549 84.2234 187.299L83.6294 192.299L86.5244 189.429C91.6844 184.316 97.2144 181.209 107.92 177.409C134.885 167.836 143.96 164.291 150.805 160.657C154.867 158.5 158.386 156.932 158.626 157.172C159.294 157.84 147.23 167.622 139.802 172.436C126.234 181.229 104.109 191.386 91.0114 194.833C86.9364 195.906 83.4734 196.912 83.3164 197.07C82.8904 197.496 80.2164 214.799 80.5764 214.799C80.7464 214.799 83.8244 213.001 87.4174 210.801C98.3454 204.113 112.742 197.343 126.42 192.461C138.511 188.147 160.835 180.076 165.42 178.361C167.036 177.757 166.941 178.021 164.92 179.742C163.545 180.913 153.195 186.387 141.92 191.906C130.645 197.426 116.245 204.568 109.92 207.779C97.2544 214.207 87.5954 217.799 82.9714 217.799C80.5004 217.799 79.8474 218.294 79.3424 220.549C79.0034 222.062 78.3224 224.874 77.8294 226.799C77.3354 228.724 76.9294 230.554 76.9264 230.865C76.9234 231.177 79.1784 229.256 81.9384 226.596C87.6904 221.051 91.9594 218.992 111.42 212.374C130.293 205.957 136.976 203.295 146.42 198.435C156.859 193.062 156.833 193.07 153.92 196.281C142.285 209.102 105.414 228.901 83.0514 234.336L75.9884 236.054L74.3864 241.676C73.5054 244.77 72.2944 248.987 71.6944 251.049C70.9434 253.63 70.0294 254.799 68.7624 254.799C66.4524 254.799 66.4714 253.813 68.9344 245.956C70.0284 242.467 70.7024 239.256 70.4324 238.82C70.1634 238.383 68.3724 237.732 66.4544 237.372C61.9754 236.532 55.6744 231.691 47.1814 222.564C25.5984 199.372 16.7134 191.635 10.0334 190.213C3.70138 188.866 3.47538 187.788 9.58938 188.101C21.6144 188.715 36.9364 198.625 54.9484 217.437C60.1884 222.91 65.8134 229.504 67.4484 232.091C69.0824 234.678 70.7184 236.796 71.0824 236.797C71.8824 236.799 75.9264 219.618 75.3474 218.68C75.1224 218.317 73.6974 217.71 72.1794 217.33C64.7844 215.477 55.3504 207.913 29.8414 183.391C22.9234 176.741 14.2414 168.431 10.5484 164.925C6.85638 161.419 4.01437 158.371 4.23437 158.151C4.70637 157.68 27.0194 173.423 38.2944 182.182C51.7804 192.658 67.2504 206.264 71.2974 211.209C73.4294 213.814 75.5164 215.575 75.9334 215.122C76.3514 214.669 77.2244 211.165 77.8734 207.335L79.0534 200.372L76.2374 198.38C66.3484 191.383 45.8874 168.053 37.2504 153.927C32.6074 146.334 26.6684 133.787 27.7334 133.821C28.1114 133.832 30.1444 136.25 32.2524 139.192C34.3594 142.134 44.5854 152.972 54.9774 163.277C69.6564 177.832 74.5204 183.312 76.7834 187.841C80.0644 194.406 80.1004 194.363 81.4274 182.299L82.0884 176.299L77.3604 171.299C61.5884 154.62 43.8994 124.014 39.9994 106.655C38.9374 101.927 39.6544 102.44 43.2284 108.962C47.5624 116.872 53.7504 125.315 65.5034 139.359C73.3304 148.711 78.8934 156.52 80.8634 160.92C82.5124 164.603 82.7044 164.738 83.2744 162.611C83.6144 161.339 83.8994 157.824 83.9064 154.799C83.9194 149.681 83.6714 149.1 80.3394 146.442C75.2304 142.365 70.8884 135.073 64.4244 119.714C55.0464 97.4295 48.5254 87.2715 39.9204 81.5425C37.5304 79.9515 37.6284 79.9385 42.1424 81.2325C49.9584 83.4745 57.1044 90.3815 66.1214 104.408C70.9764 111.963 79.7244 130.343 81.9484 137.664C83.1574 141.647 84.2924 144.761 84.4684 144.584C84.6454 144.407 84.9014 139.202 85.0374 133.017L85.2854 121.771L82.2044 118.535C74.7904 110.749 61.9004 87.0445 57.6054 73.2995C55.0924 65.2555 53.6434 58.7995 54.3514 58.7995C54.5604 58.7995 56.0574 61.6315 57.6774 65.0935C59.2974 68.5555 65.4954 78.5675 71.4504 87.3435C77.4054 96.1195 83.0764 105.324 84.0524 107.799L85.8264 112.299L85.8734 101.1L85.9204 89.9015L82.2334 87.1005C76.3734 82.6495 63.4114 66.3155 58.9794 57.7965C54.1154 48.4475 53.7284 45.8495 58.0994 51.8995C59.8484 54.3195 66.1274 61.2665 72.0534 67.3365C77.9784 73.4065 83.2694 79.4815 83.8104 80.8365C84.6664 82.9815 84.8014 82.6795 84.8574 78.5015C84.9154 74.0725 84.5534 73.3375 80.1354 68.9195C76.2434 65.0275 56.9204 34.6395 56.9204 32.4105C56.9204 30.3725 76.0084 54.4475 81.5644 63.4935L85.1314 69.2995L84.6334 62.4585C84.2084 56.6135 83.7034 55.1575 81.1664 52.4585C75.0524 45.9555 63.3304 26.0705 64.1534 23.5995C64.3434 23.0305 65.6544 24.3045 67.0664 26.4315C68.4794 28.5595 72.2864 33.5055 75.5274 37.4225C78.7684 41.3405 81.9994 45.3905 82.7084 46.4225C83.8024 48.0175 83.9114 47.4215 83.4374 42.4495C83.0414 38.2975 82.0534 35.3965 80.0334 32.4495Z" fill="url(#paint0_linear)"/>
</g>
<defs>
<filter id="filter0_d" x="0.222412" y="0.73999" width="170.321" height="262.059" filterUnits="userSpaceOnUse" color-interpolation-filters="sRGB">
<feFlood flood-opacity="0" result="BackgroundImageFix"/>
<feColorMatrix in="SourceAlpha" type="matrix" values="0 0 0 0 0 0 0 0 0 0 0 0 0 0 0 0 0 0 127 0" result="hardAlpha"/>
<feOffset dy="4"/>
<feGaussianBlur stdDeviation="2"/>
<feComposite in2="hardAlpha" operator="out"/>
<feColorMatrix type="matrix" values="0 0 0 0 0 0 0 0 0 0 0 0 0 0 0 0 0 0 0.25 0"/>
<feBlend mode="normal" in2="BackgroundImageFix" result="effect1_dropShadow"/>
<feBlend mode="normal" in="SourceGraphic" in2="effect1_dropShadow" result="shape"/>
</filter>
<linearGradient id="paint0_linear" x1="85.3829" y1="0.73999" x2="85.3829" y2="254.799" gradientUnits="userSpaceOnUse">
<stop offset="0.307292" stop-color="#376040"/>
<stop offset="1" stop-color="#1E2F23"/>
</linearGradient>
</defs>
</svg>
