<svg width="193" height="331" viewBox="0 0 193 331" fill="none" xmlns="http://www.w3.org/2000/svg">
<g filter="url(#filter0_d)">
<path d="M171.968 17.8699C172.021 15.7219 178.021 8.49591 183.06 4.51291C189.836 -0.843088 190.978 -0.618088 185.519 4.99891C183.098 7.48991 179.666 11.3599 177.892 13.5999L174.667 17.6719L180.162 14.5709C187.459 10.4529 188.22 10.6539 182.322 15.1439C179.667 17.1649 175.695 20.6019 173.495 22.7819L169.495 26.7449L174.995 22.3199C184.383 14.7659 184.723 14.7919 177.407 22.5009C173.509 26.6089 169.234 31.1189 167.907 32.5239C166.58 33.9289 164.032 36.0979 162.243 37.3439C160.454 38.5899 158.506 40.5159 157.912 41.6239C156.483 44.2939 171.357 33.3709 180.948 24.7069C186.959 19.2759 188.028 18.6059 186.469 21.2439C185.407 23.0429 181.603 27.5239 178.016 31.2029C174.43 34.8809 172.102 37.5169 172.845 37.0599C173.933 36.3899 173.98 36.6289 173.089 38.2939C172.482 39.4289 171.529 40.6399 170.974 40.9829C170.418 41.3269 167.734 44.8389 165.01 48.7889C162.286 52.7389 158.143 58.1709 155.803 60.8609C151.97 65.2679 152.614 64.8949 162.29 57.1109C168.199 52.3589 173.326 48.4699 173.684 48.4699C174.443 48.4699 151.665 72.0819 142.13 81.1799C138.551 84.5959 133.741 88.3879 131.442 89.6079C128.323 91.2619 126.418 93.3599 123.941 97.8649L120.621 103.905L130.058 94.8019C144.983 80.4059 172.269 57.4779 174.483 57.4719C175.396 57.4699 154.841 78.7809 135.237 98.1609C130.68 102.666 124.251 107.992 120.949 109.998C116.706 112.576 114.341 114.831 112.88 117.696C110.957 121.465 111.638 121.027 122.654 111.399C149.358 88.0619 168.596 68.8149 177.22 56.8059C178.932 54.4229 180.522 52.6639 180.755 52.8969C181.421 53.5629 174.556 64.8139 168.325 73.2719C152.497 94.7539 132.398 114.83 115.643 125.893C105.517 132.58 103.32 134.713 101.145 139.97C100.918 140.52 102.029 139.783 103.613 138.332C105.198 136.882 111.895 131.658 118.495 126.724C144.323 107.415 162.546 91.7119 173.502 79.3239C176.248 76.2179 178.649 73.8219 178.837 73.9989C179.025 74.1759 177.45 76.7829 175.337 79.7919C171.549 85.1859 168.785 88.9479 153.995 108.84C149.87 114.388 141.585 123.887 135.584 129.949C129.583 136.01 125.533 140.309 126.584 139.502C134.929 133.09 146.198 122.922 155.245 113.64C161.157 107.574 165.995 102.829 165.995 103.095C165.995 104.274 157.265 116.268 151.651 122.802C143.554 132.227 126.213 149.309 117.745 156.201C110.392 162.186 109.165 163.747 114.245 160.654C116.032 159.566 125.188 154.164 134.59 148.65C143.992 143.137 155.467 136.199 160.09 133.233C170.748 126.394 170.995 126.25 170.995 126.861C170.995 128.288 145.424 148.409 127.495 161.091C107.245 175.413 94.4015 183.469 82.7815 189.135C77.2715 191.822 75.6815 193.166 73.9155 196.626L71.7645 200.843L76.5035 196.672C84.9125 189.27 97.8165 181.705 128.856 165.979C136.204 162.256 147.752 156.118 154.519 152.34C161.286 148.561 167.167 145.47 167.589 145.47C169.799 145.47 132.427 171.638 114.995 182.296C101.329 190.652 132.386 174.454 156.245 160.782C156.657 160.545 156.995 160.561 156.995 160.817C156.995 161.33 150.923 165.939 138.678 174.721C126.017 183.802 126.787 183.995 139.96 175.043C150.396 167.951 150.95 167.707 146.995 171.945C142.062 177.23 129.085 187.937 118.495 195.459C113.545 198.975 109.045 202.29 108.495 202.825C105.575 205.669 133.621 188.553 141.245 182.839C148.372 177.497 146.963 180.143 138.745 187.533C127.785 197.389 115.564 206.608 98.5795 217.83C90.1395 223.407 82.3925 228.546 81.3645 229.25C80.3365 229.954 83.5455 228.407 88.4955 225.812C102.679 218.378 125.749 204.731 134.425 198.643C150.762 187.18 134.338 203.076 114.973 217.47C96.7055 231.049 79.0735 242.268 61.9955 251.181C49.9265 257.479 49.3665 257.925 48.4405 261.97L47.7545 264.97L51.5775 261.128C57.2285 255.451 61.4875 252.835 83.1415 241.74C112.442 226.728 121.04 220.677 129.192 209.331C130.853 207.019 130.866 207.052 129.833 210.97C128.453 216.206 127.71 217.522 123.19 222.745C121.104 225.155 118.17 229.635 116.67 232.702C110.335 245.649 84.1605 264.146 56.9955 274.871C41.6995 280.91 42.7825 279.965 40.2345 289.505C38.9905 294.161 36.8755 303.311 35.5335 309.838C34.1915 316.365 32.8995 321.9 32.6625 322.137C32.4255 322.373 31.0735 322.277 29.6575 321.921C27.3985 321.354 27.1545 320.891 27.6605 318.123C28.5585 313.202 36.9655 280.327 37.5795 279.335C37.8805 278.847 35.4465 275.415 32.1695 271.709C20.2295 258.201 9.75548 241.898 5.99348 230.963C3.87148 224.797 3.33048 217.47 4.99548 217.47C5.54548 217.47 5.99548 218.62 5.99548 220.026C5.99548 224.325 12.0815 235.584 19.2075 244.47C29.4145 257.196 34.7415 264.565 36.3975 268.244C37.4435 270.568 38.6805 272.47 39.1475 272.47C40.8385 272.47 39.8945 270.483 34.4435 262.57C25.3245 249.332 16.1675 228.468 14.4505 217.016C13.6745 211.845 14.5905 205.47 16.1085 205.47C16.6765 205.47 16.8475 206.361 16.4935 207.476C15.2285 211.463 21.7855 228.238 29.2295 240.058C33.3595 246.615 39.1625 258.321 40.4575 262.706C41.6475 266.738 41.7015 266.778 42.3635 264.138C42.8635 262.147 41.8705 258.424 38.6435 250.196C31.2845 231.432 25.0305 208.479 22.5145 191.011C20.9685 180.267 21.1725 177.655 23.0155 184.619C24.8225 191.448 31.2805 210.525 37.5215 227.47C41.7155 238.854 43.4045 244.962 43.8845 250.47L44.5385 257.97L46.3215 252.47L48.1045 246.97L45.0345 240.207C38.3245 225.428 28.3975 187.783 27.4415 173.495L27.0055 166.97L28.5445 172.47C31.5375 183.165 35.2395 194.167 41.5665 211.169C45.0865 220.628 48.2615 230.878 48.6215 233.947C49.4145 240.688 50.4515 241.649 51.9695 237.047C52.9375 234.114 52.8045 233.015 51.0635 229.603C45.4975 218.693 35.3015 182.388 32.9665 165.164C31.6065 155.127 32.1585 152.81 34.0405 160.666C35.9425 168.612 39.1025 178.078 46.3335 197.5C49.9235 207.142 53.3955 218.104 54.0505 221.862C54.8425 226.41 55.5275 228.238 56.1025 227.332C57.5735 225.009 57.1035 222.19 54.0265 214.865C49.1195 203.187 39.1815 161.252 36.0405 138.97C35.4195 134.57 34.6535 129.62 34.3365 127.97C33.2475 122.286 34.9565 126.112 37.4915 135.031C41.6675 149.728 54.3505 190.448 54.6565 190.143C54.8125 189.987 53.6185 182.684 52.0025 173.914C48.3025 153.83 45.3075 131.053 44.5815 117.47L44.0195 106.97L46.0685 115.97C47.1955 120.92 51.0315 136.895 54.5925 151.47C61.5095 179.781 63.9465 192.659 64.0555 201.47L64.1235 206.97L65.7255 203.753C67.2215 200.749 67.1835 199.891 65.1555 190.753C60.9645 171.876 57.7145 133.715 58.1885 108.97L58.4955 92.9699L59.8235 102.97C61.2335 113.583 64.9875 137.747 68.0565 155.97L69.9095 166.97L69.6065 148.47C69.2505 126.79 70.6355 88.2829 71.9265 83.9699C72.7005 81.3819 72.8355 81.7939 72.9095 86.9699C73.0005 93.3169 75.3165 124.167 76.9635 140.97C77.5025 146.47 77.9765 156.82 78.0165 163.97L78.0885 176.97L80.5195 172.303C82.4785 168.54 82.7645 167.087 81.9925 164.803C78.2485 153.716 76.9195 127.62 79.0145 106.326C80.2635 93.6289 83.4765 76.1049 85.5165 70.8629L87.0315 66.9699L86.5165 70.9699C83.7295 92.6209 83.5445 109.199 85.6505 148.338C86.2495 159.485 86.4475 160.455 87.6525 158.155C88.7085 156.14 88.8025 152.92 88.1015 142.851C86.4555 119.205 89.6865 81.2589 94.6475 65.9699C97.4815 57.2349 101.938 49.4699 104.116 49.4699C104.562 49.4699 104.076 50.9329 103.034 52.7199C100.095 57.7659 98.0365 67.3029 96.9945 80.7049C96.0855 92.3919 95.8345 111.736 96.6595 106.47C99.9725 85.3319 103.003 71.7579 107.378 58.4699C110.144 50.0679 113.966 41.1069 114.538 41.6799C114.745 41.8869 114.005 44.9619 112.893 48.5129C109.023 60.8759 104.688 92.0979 102.556 122.97C102.064 130.092 102.153 130.696 103.362 128.47C104.136 127.046 104.983 121.168 105.329 114.818C105.663 108.685 106.665 100.135 107.555 95.8179C109.618 85.8089 116.925 62.3379 121.205 51.9699C124.777 43.3199 132.049 29.1899 132.63 29.7719C132.827 29.9689 131.177 34.9369 128.962 40.8129C125.321 50.4749 116.972 81.7839 117.053 85.4699C117.09 87.1399 132.703 43.1119 136.12 31.7039C137.317 27.7069 138.493 24.6349 138.735 24.8759C139.963 26.1049 130.204 68.9089 124.635 86.7199C123.303 90.9829 122.346 94.4699 122.509 94.4699C123.848 94.4699 127.997 84.8979 128.004 81.7919C128.009 79.6899 129.541 73.6949 131.409 68.4699C135.036 58.3219 149.54 22.5909 150.369 21.7629C151.045 21.0859 148.425 32.4079 145.923 40.9699C144.798 44.8199 143.642 48.8699 143.354 49.9699C143.066 51.0699 144.558 48.5949 146.671 44.4699C150.881 36.2489 164.09 15.2319 164.678 15.8189C164.88 16.0219 164.134 18.3129 163.02 20.9109C160.21 27.4679 160.521 27.8949 163.791 21.9699C167.6 15.0679 172.287 8.43091 175.389 5.54591C178.697 2.46791 178.701 3.34891 175.399 8.17591C173.972 10.2629 171.25 15.1199 169.351 18.9699L165.899 25.9699L168.92 22.4699C170.582 20.5449 171.953 18.4749 171.968 17.8699Z" fill="url(#paint0_linear)"/>
</g>
<defs>
<filter id="filter0_d" x="0.0163574" y="0.636719" width="192.961" height="329.629" filterUnits="userSpaceOnUse" color-interpolation-filters="sRGB">
<feFlood flood-opacity="0" result="BackgroundImageFix"/>
<feColorMatrix in="SourceAlpha" type="matrix" values="0 0 0 0 0 0 0 0 0 0 0 0 0 0 0 0 0 0 127 0" result="hardAlpha"/>
<feOffset dy="4"/>
<feGaussianBlur stdDeviation="2"/>
<feComposite in2="hardAlpha" operator="out"/>
<feColorMatrix type="matrix" values="0 0 0 0 0 0 0 0 0 0 0 0 0 0 0 0 0 0 0.25 0"/>
<feBlend mode="normal" in2="BackgroundImageFix" result="effect1_dropShadow"/>
<feBlend mode="normal" in="SourceGraphic" in2="effect1_dropShadow" result="shape"/>
</filter>
<linearGradient id="paint0_linear" x1="96.4967" y1="0.636719" x2="96.4967" y2="322.266" gradientUnits="userSpaceOnUse">
<stop offset="0.307292" stop-color="#376040"/>
<stop offset="1" stop-color="#1E2F23"/>
</linearGradient>
</defs>
</svg>
