<svg width="328" height="138" viewBox="0 0 328 138" fill="none" xmlns="http://www.w3.org/2000/svg">
<g filter="url(#filter0_d)">
<path d="M27.4907 23.5579C25.6148 24.6055 16.341 23.1182 10.3479 20.8076C2.28887 17.7006 1.90135 16.6031 9.51476 18.4436C12.8912 19.2598 17.9691 20.2446 20.8002 20.6316L25.9467 21.3354L20.4808 18.1834C13.2223 13.9979 13.008 13.2405 19.8747 16.0325C22.9656 17.2894 27.9457 18.9593 30.9419 19.7436L36.389 21.1699L29.7808 18.6875C18.5004 14.4507 18.3498 14.1448 28.7091 16.5191C34.2291 17.7839 40.287 19.1685 42.1718 19.5958C44.0566 20.023 47.2204 21.1125 49.2035 22.0183C51.1865 22.9242 53.8358 23.6209 55.0919 23.5683C58.1175 23.4395 41.1451 16.1949 28.8059 12.3483C21.0716 9.938 19.9509 9.35878 23.0151 9.35822C25.1042 9.35683 30.8974 10.3508 35.8899 11.5662C40.881 12.7812 44.3348 13.4436 43.5633 13.0366C42.4328 12.441 42.6147 12.2789 44.5014 12.1986C45.7873 12.1434 47.3147 12.3475 47.8925 12.6506C48.4715 12.9542 52.8607 13.4772 57.6472 13.8118C62.4337 14.1463 69.2181 14.9482 72.7246 15.5934C78.4689 16.65 77.8201 16.2855 66.1951 11.9179C59.0973 9.24979 53.1403 6.81566 52.9581 6.50749C52.5718 5.85414 84.4897 13.4447 97.1739 17.0223C101.936 18.3646 107.648 20.5752 109.868 21.9333C112.879 23.7764 115.655 24.3485 120.793 24.188L127.682 23.9719L115.044 20.4813C95.0557 14.9603 61.4324 3.14108 60.3005 1.2383C59.8341 0.453404 88.6398 7.30146 115.299 14.3136C121.496 15.9436 129.353 18.7672 132.76 20.5887C137.139 22.929 140.284 23.8172 143.493 23.6168C147.716 23.3539 146.993 22.9906 133.099 18.408C99.4195 7.29788 73.0607 0.533062 58.3342 -0.778782C55.4116 -1.03971 53.0883 -1.51316 53.1703 -1.83232C53.4046 -2.74456 66.5834 -2.56111 77.0352 -1.50196C103.582 1.19005 131.093 8.27411 149.143 17.0666C160.053 22.3799 163.007 23.1856 168.639 22.3824C169.228 22.2979 168.028 21.7166 165.973 21.0915C163.918 20.4651 156.013 17.3589 148.407 14.1887C118.641 1.78271 95.8496 -5.91204 79.6101 -9.0384C75.5389 -9.82144 72.2545 -10.6688 72.3111 -10.9207C72.3678 -11.1727 75.4135 -11.1437 79.0791 -10.8562C85.6501 -10.3406 90.2951 -9.87592 114.945 -7.26825C121.82 -6.54096 134.214 -4.24352 142.486 -2.16295C150.758 -0.0818811 156.519 1.21649 155.29 0.722492C145.523 -3.19767 131.035 -7.7233 118.441 -10.7871C110.211 -12.789 103.664 -14.5387 103.893 -14.6741C104.908 -15.2742 119.675 -13.8634 128.157 -12.3562C140.391 -10.1829 163.921 -3.94924 174.163 -0.16747C183.057 3.11609 185.025 3.37786 179.777 0.579084C177.931 -0.405465 168.621 -5.53776 159.09 -10.8248C149.559 -16.1124 137.747 -22.4592 132.841 -24.9292C121.53 -30.6231 121.28 -30.7625 121.806 -31.0734C123.035 -31.7997 153.369 -20.0282 173.41 -11.049C196.044 -0.90658 209.516 6.04968 220.307 13.1687C225.424 16.5442 227.39 17.2289 231.267 16.9882L235.992 16.6936L229.99 14.737C219.339 11.2656 206.259 4.00779 176.925 -14.7082C169.981 -19.1387 158.82 -25.9555 152.124 -29.8578C145.427 -33.7596 139.773 -37.2489 139.558 -37.6122C138.434 -39.5146 179.979 -20.6622 198.025 -11.0808C212.173 -3.56964 182.424 -22.0601 158.512 -35.64C158.099 -35.874 157.94 -36.1731 158.161 -36.3034C158.602 -36.5645 165.66 -33.6833 179.452 -27.6121C193.712 -21.3351 193.486 -22.0961 179.076 -28.8796C167.66 -34.2536 167.168 -34.6063 172.829 -33.3587C179.889 -31.802 195.71 -26.0805 207.575 -20.7927C213.121 -18.3211 218.264 -16.1346 219.005 -15.9334C222.939 -14.8672 193.932 -30.2986 185.133 -33.9533C176.908 -37.3696 179.902 -37.5034 190.446 -34.1902C204.508 -29.7718 218.664 -23.9437 236.968 -15.0342C246.064 -10.6072 254.43 -6.55398 255.559 -6.02735C256.689 -5.50073 253.724 -7.47574 248.971 -10.4161C235.353 -18.8424 211.864 -31.7558 202.208 -36.1258C184.026 -44.3549 206.068 -38.307 228.314 -28.963C249.3 -20.1486 267.931 -10.6805 284.295 -0.515738C295.859 6.6681 296.528 6.92317 300.481 5.66165L303.413 4.72537L298.16 3.38982C290.397 1.4146 285.978 -0.920219 265.406 -13.9135C237.572 -31.496 227.987 -35.8177 214.072 -37.0606C211.236 -37.3138 211.258 -37.3418 215.156 -38.4465C220.366 -39.9234 221.877 -39.9536 228.673 -38.7209C231.809 -38.1518 237.159 -37.9062 240.563 -38.1758C254.932 -39.3118 284.175 -26.1938 307.232 -8.26828C320.215 1.82519 318.851 1.37389 328.36 -1.28798C333.001 -2.58672 341.953 -5.42283 348.255 -7.58942C354.556 -9.75602 359.979 -11.4608 360.303 -11.3774C360.627 -11.2935 361.232 -10.0808 361.647 -8.68072C362.308 -6.4476 362.034 -6.00194 359.394 -5.02879C354.7 -3.29735 322.123 6.19697 320.956 6.1733C320.383 6.16256 318.668 10.0044 317.145 14.7114C311.594 31.864 302.891 49.1773 295.393 57.9808C291.165 62.9455 285.133 67.1401 284.286 65.7069C284.006 65.2334 284.767 64.2608 285.977 63.5452C289.678 61.3573 296.272 50.3884 300.294 39.7319C306.054 24.469 309.687 16.1332 312.011 12.8353C313.479 10.7522 314.487 8.71935 314.249 8.31736C313.388 6.86173 312.158 8.68558 308.121 17.405C301.367 31.9919 288.067 50.4927 279.083 57.799C275.027 61.0986 269.073 63.5546 268.3 62.2479C268.011 61.7589 268.691 61.1583 269.831 60.8956C273.907 59.9554 285.01 45.7737 291.396 33.3503C294.939 26.4581 302.062 15.5053 305.177 12.1589C308.043 9.08253 308.049 9.01569 305.44 9.78942C303.472 10.3723 300.772 13.1218 295.332 20.0871C282.925 35.9714 266.35 53.0364 252.594 64.0922C244.132 70.8909 241.78 72.0447 246.836 66.914C251.795 61.883 264.93 46.6151 276.34 32.6189C284.005 23.215 288.403 18.6526 292.9 15.4362L299.024 11.0562L293.382 12.3205L287.74 13.5848L283.481 19.6694C274.174 32.9669 246.821 60.6709 235.008 68.7654L229.613 72.4615L233.564 68.3376C241.248 60.3182 248.834 51.5322 260.25 37.433C266.6 29.589 273.808 21.6394 276.267 19.7676C281.666 15.6543 281.965 14.2726 277.231 15.3079C274.214 15.9674 273.335 16.6412 271.284 19.8763C264.726 30.22 238.663 57.4735 225.025 68.2494C217.077 74.5282 214.802 75.2322 220.606 69.614C226.478 63.9328 233.019 56.3951 246.057 40.2862C252.53 32.2887 260.199 23.7211 263.101 21.2447C266.613 18.2483 267.837 16.7284 266.765 16.6945C264.017 16.6105 261.829 18.4498 257.09 24.8264C249.535 34.9936 218.494 64.8904 200.912 78.9342C197.441 81.708 193.57 84.8866 192.311 85.9992C187.972 89.8294 190.396 86.4111 196.783 79.6898C207.309 68.6153 235.907 36.974 235.488 36.8659C235.275 36.811 229.596 41.5555 222.869 47.4099C207.464 60.8162 189.381 74.9863 178.058 82.524L169.306 88.3516L176.01 82.0074C179.698 78.5181 191.497 67.0858 202.231 56.6028C223.081 36.2403 232.926 27.5885 240.455 23.0105L245.155 20.1528L241.571 20.411C238.223 20.6521 237.504 21.1215 230.67 27.5178C216.554 40.7325 185.358 62.9515 163.816 75.1369L149.887 83.0156L157.82 76.7831C166.238 70.1681 185.128 54.6388 199.252 42.7227L207.778 35.5294L192.007 45.2055C173.526 56.5455 139.674 74.9507 135.305 76.0345C132.683 76.6853 132.969 76.3594 137.387 73.6615C142.804 70.353 168.181 52.6588 181.807 42.6895C186.267 39.4264 194.935 33.7509 201.07 30.0776L212.224 23.3996L206.969 23.6821C202.733 23.9109 201.336 24.4042 199.763 26.2311C192.125 35.0965 170.338 49.5216 150.941 58.5554C139.376 63.9421 122.656 70.0949 117.106 71.0066L112.983 71.6838L116.689 70.0914C136.745 61.4716 151.109 53.1938 183.728 31.4619C193.019 25.2732 193.753 24.6091 191.16 24.7424C188.888 24.8588 186.069 26.4167 177.758 32.1445C158.241 45.5956 123.932 62.1262 108.247 65.6368C99.2852 67.6428 90.3327 67.758 89.2242 65.8832C88.9972 65.4993 90.504 65.173 92.5725 65.1606C98.4119 65.1224 107.669 62.0411 119.736 56.1174C130.259 50.952 147.038 41.3233 142.085 43.2932C122.204 51.1991 108.976 55.4982 95.3114 58.4949C86.6712 60.3899 77.0123 61.6604 77.2145 60.8764C77.2873 60.5929 80.3109 59.6649 83.9336 58.8149C96.5453 55.8543 125.628 43.6961 153.287 29.8196C159.669 26.6185 160.143 26.2345 157.612 26.3267C155.992 26.3851 150.501 28.6475 144.859 31.5814C139.41 34.4152 131.54 37.904 127.371 39.3349C117.705 42.653 93.7822 48.3082 82.6791 49.9005C73.4152 51.228 57.5511 52.1594 57.7564 51.3631C57.8257 51.0932 62.9419 49.9852 69.1273 48.9014C79.2975 47.1183 110.498 38.3711 113.629 36.4254C115.048 35.5436 69.2024 44.5111 57.6433 47.3756C53.5935 48.3794 50.3506 48.9305 50.4349 48.5996C50.8678 46.917 92.6805 33.5333 110.847 29.2626C115.194 28.2396 118.683 27.2888 118.6 27.1485C117.918 25.9958 107.567 27.2958 104.89 28.8706C103.078 29.936 97.1377 31.6683 91.6893 32.7195C81.1079 34.762 42.9689 40.4614 41.8343 40.1692C40.9075 39.9319 51.9869 36.4251 60.6305 34.2213C64.5172 33.2304 68.5918 32.1643 69.6852 31.8524C70.7787 31.5405 67.8889 31.5158 63.2626 31.7962C54.0433 32.3561 29.2293 31.6819 29.4353 30.877C29.5073 30.5998 31.8591 30.076 34.6624 29.7128C41.7368 28.7946 41.9461 28.3095 35.1816 28.5101C27.3018 28.7439 19.2032 28.0871 15.1411 26.8852C10.808 25.6041 11.5643 25.1523 17.3999 25.5381C19.9227 25.7043 25.4889 25.5755 29.7695 25.2508L37.552 24.6598L33.0017 23.8406C30.4988 23.3896 28.0192 23.2629 27.4907 23.5579Z" fill="url(#paint0_linear)"/>
</g>
<defs>
<filter id="filter0_d" x="0" y="-146" width="378.993" height="330.903" filterUnits="userSpaceOnUse" color-interpolation-filters="sRGB">
<feFlood flood-opacity="0" result="BackgroundImageFix"/>
<feColorMatrix in="SourceAlpha" type="matrix" values="0 0 0 0 0 0 0 0 0 0 0 0 0 0 0 0 0 0 127 0" result="hardAlpha"/>
<feOffset dy="4"/>
<feGaussianBlur stdDeviation="2"/>
<feComposite in2="hardAlpha" operator="out"/>
<feColorMatrix type="matrix" values="0 0 0 0 0 0 0 0 0 0 0 0 0 0 0 0 0 0 0.25 0"/>
<feBlend mode="normal" in2="BackgroundImageFix" result="effect1_dropShadow"/>
<feBlend mode="normal" in="SourceGraphic" in2="effect1_dropShadow" result="shape"/>
</filter>
<linearGradient id="paint0_linear" x1="51.0662" y1="97.2951" x2="327.927" y2="-66.3921" gradientUnits="userSpaceOnUse">
<stop offset="0.307292" stop-color="#376040"/>
<stop offset="1" stop-color="#1E2F23"/>
</linearGradient>
</defs>
</svg>
