<svg width="252" height="125" viewBox="0 0 252 125" fill="none" xmlns="http://www.w3.org/2000/svg">
<g filter="url(#filter0_d)">
<path d="M209.232 79.2494C216.943 72.3513 233.334 62.906 238.797 62.2102C239.695 62.0962 237.717 63.8391 234.402 66.0844C231.088 68.3296 226.106 72.1353 223.333 74.5416C216.808 80.2044 212.328 82.7515 207.688 83.4388C204.135 83.9654 204.474 84.1757 214.412 87.6115C220.168 89.6024 226.257 91.0822 227.945 90.9024C230.96 90.5794 230.974 90.5987 228.815 92.0029C225.168 94.3739 212.3 92.0578 200.247 86.8605C197.66 85.7459 196.029 85.7448 192.18 86.8552C187.833 88.1087 187.607 88.3062 189.907 88.852C191.311 89.1848 196.92 92.208 202.371 95.5702C207.821 98.9324 213.966 102.428 216.024 103.337C221.361 105.695 218.396 105.679 210.705 103.309C202.322 100.725 192.693 96.1562 186.727 91.9318C182.182 88.7117 181.873 88.6488 177.002 89.9467L171.971 91.2874L177.398 93.4044C185.271 96.4749 213.854 112.821 211.812 113.085C208.98 113.451 175.731 98.3862 171.686 94.9048C168.305 91.994 167.218 91.6223 163.488 92.1043C161.122 92.4099 159.237 92.9934 159.296 93.4022C159.355 93.8109 161.001 94.9071 162.95 95.84C165.062 96.8497 171.475 103.129 178.808 111.364C185.58 118.969 193.668 127.353 196.782 129.995C200.796 133.401 201.674 134.511 199.796 133.809C194.331 131.768 184.568 125.463 176.714 118.9C169.071 112.516 154.739 97.2528 154.477 95.2187C154.411 94.7099 150.907 94.7382 146.689 95.2832L139.02 96.274L142.951 98.2628C145.421 99.5115 151.258 105.224 158.653 113.627C165.127 120.984 172.834 129.074 175.779 131.605C178.725 134.135 180.713 136.261 180.199 136.327C178.64 136.529 165.657 128.656 160.124 124.154C151.047 116.768 142.697 108.551 138.299 102.676L134.034 96.9779L120.644 98.7049L107.255 100.432L114.798 103.267C138.352 112.121 160.022 128.639 163.91 140.701C165.438 145.44 164.395 145.463 161.763 140.747C158.697 135.255 148.027 128.117 130.947 120.131C115.059 112.704 107.584 107.908 105.073 103.534C103.951 101.581 102.853 100.947 101.004 101.186L98.4725 101.513L100.802 103.481C104.324 106.458 106.599 110.236 110.834 120.144C118.894 139.005 125.3 149.113 136.684 160.935C145.248 169.829 142.953 169.41 131.48 159.987C116.7 147.848 109.632 138.302 100.561 118.235C97.0339 110.434 91.2612 102.786 88.5543 102.329C87.8678 102.213 84.8479 102.182 81.8421 102.26L76.3772 102.402L81.53 106.501C88.1505 111.768 89.8626 114.413 100.33 135.556C105.104 145.199 111.847 157.373 115.315 162.609C118.781 167.845 121.276 172.174 120.858 172.228C119.411 172.415 106.153 158.772 99.6633 150.418C96.0783 145.802 90.7568 138.252 87.8376 133.639C82.4602 125.14 73.3536 107.282 72.9996 104.542C72.8596 103.459 71.2098 103.067 67.0183 103.121C63.8344 103.164 58.9645 103.22 56.1953 103.248L51.1604 103.3L54.3777 105.803C60.1098 110.266 63.8998 115.352 69.0405 125.483C81.99 150.998 86.6687 159.544 91.1499 165.867C93.8096 169.619 95.8157 172.908 95.6084 173.177C95.0315 173.925 83.7842 163.214 78.058 156.464C67.5988 144.135 54.6903 123.494 49.5933 110.946C48.0069 107.042 46.5655 103.736 46.3886 103.601C45.9116 103.233 28.4085 102.798 28.4547 103.155C28.4765 103.324 30.655 106.146 33.2964 109.428C41.3306 119.408 49.8887 132.819 56.4833 145.759C62.3111 157.197 73.1773 178.303 75.4647 182.63C76.2718 184.156 75.9968 184.095 74.031 182.312C72.6935 181.098 65.9383 171.535 59.0199 161.06C52.1006 150.585 43.1722 137.219 39.1771 131.358C31.179 119.62 26.3789 110.501 25.7863 105.915C25.4697 103.464 24.8951 102.88 22.594 102.668C21.05 102.526 18.1739 102.211 16.2016 101.969C14.2292 101.726 12.3623 101.557 12.0534 101.594C11.7436 101.631 13.9387 103.621 16.9304 106.018C23.1658 111.012 25.7559 114.982 34.8122 133.434C43.5948 151.329 47.0913 157.616 53.1214 166.36C59.7879 176.024 59.7775 175.999 56.2197 173.522C42.0135 163.625 17.6519 129.596 9.39593 108.114L6.78795 101.329L1.00603 100.461C-2.17437 99.9832 -6.51277 99.3227 -8.63465 98.9919C-11.2906 98.5778 -12.5671 97.8212 -12.7295 96.5646C-13.0255 94.2737 -12.0451 94.1662 -3.9373 95.602C-0.336877 96.2399 2.93497 96.4967 3.33278 96.1731C3.73072 95.8504 4.14783 93.9906 4.25907 92.0423C4.51818 87.4926 8.51182 80.6232 16.4742 71.0307C36.7092 46.6537 43.2449 36.8504 43.7991 30.0433C44.3236 23.5908 45.3637 23.2286 45.8368 29.3323C46.7688 41.3368 38.904 57.8024 22.5553 78.0766C17.7989 83.9747 11.9791 90.3985 9.62295 92.3515C7.26666 94.3036 5.37579 96.1975 5.42144 96.5586C5.52197 97.3523 23.0795 99.1612 23.9356 98.4668C24.2668 98.1972 24.6871 96.706 24.8695 95.1518C25.7595 87.5803 32.0513 77.2549 53.1022 48.8138C58.8109 41.1007 65.9398 31.4254 68.9437 27.3136C71.9476 23.2027 74.6063 19.9936 74.8527 20.1835C75.3803 20.5913 62.6264 44.7377 55.3845 57.0422C46.723 71.7595 35.2117 88.8455 30.826 93.4928C28.5157 95.9411 27.0367 98.2365 27.5394 98.592C28.0422 98.9485 31.6292 99.3653 35.5107 99.5182L42.5685 99.796L44.1833 96.748C49.8543 86.044 70.37 62.762 83.2728 52.386C90.2082 46.8083 101.891 39.3104 101.993 40.371C102.031 40.7473 99.8934 43.0734 97.2458 45.541C94.598 48.0077 85.1598 59.5382 76.2715 71.1651C63.7175 87.5882 58.906 93.1144 54.7044 95.9391C48.6139 100.034 48.6612 100.064 60.7958 99.8346L66.831 99.7213L71.1839 94.3915C85.7043 76.6122 113.791 55.147 130.507 49.0547C135.06 47.3956 134.643 48.1724 128.633 52.5527C121.344 57.8646 113.763 65.0835 101.341 78.5393C93.0693 87.5002 86.0375 94.018 81.9262 96.5356C78.4849 98.643 78.3756 98.8507 80.5581 99.1434C81.8632 99.3176 85.3858 99.1498 88.3867 98.7691C93.4642 98.1262 94.0086 97.8058 96.2177 94.1606C99.6064 88.5713 106.282 83.3307 120.686 74.9517C141.585 62.7953 150.824 55.0264 155.403 45.7582C156.675 43.184 156.7 43.2795 155.995 47.9221C154.773 55.961 148.839 63.9332 136.083 74.6733C129.213 80.4565 112.105 91.4877 105.13 94.6315C101.334 96.341 98.3914 97.8656 98.5895 98.0175C98.7877 98.1704 103.983 97.7572 110.134 97.0995L121.319 95.9043L124.134 92.4341C130.905 84.0835 152.763 68.262 165.844 62.2411C173.5 58.718 179.717 56.4536 179.808 57.1558C179.835 57.363 177.218 59.2106 173.992 61.2609C170.766 63.3112 161.631 70.7411 153.69 77.7716C145.75 84.8021 137.347 91.6059 135.018 92.8911L130.782 95.2271L141.895 93.8386L153.008 92.4501L155.313 88.4346C158.977 82.0525 173.515 67.1042 181.396 61.6171C190.044 55.5951 192.571 54.8784 187.131 59.9886C184.955 62.0333 178.87 69.1508 173.61 75.8058C168.349 82.4598 163.002 88.4857 161.728 89.1959C159.71 90.3197 160.027 90.4149 164.178 89.935C168.577 89.425 169.26 88.9718 173.075 84.024C176.437 79.6654 204.098 56.6076 206.309 56.3219C208.33 56.0608 186.899 78.0765 178.64 84.7459L173.339 89.0275L180.06 87.657C185.802 86.4865 187.181 85.7991 189.533 82.9371C195.199 76.0402 213.418 61.8666 215.974 62.3662C216.562 62.4817 215.467 63.9452 213.538 65.6181C211.609 67.2921 207.192 71.7016 203.722 75.4178C200.252 79.1341 196.649 82.8575 195.717 83.6929C194.275 84.9823 194.88 85.014 199.75 83.9068C203.817 82.982 206.568 81.6304 209.232 79.2494Z" fill="url(#paint0_linear)"/>
</g>
<defs>
<filter id="filter0_d" x="-25" y="0" width="280.766" height="201.539" filterUnits="userSpaceOnUse" color-interpolation-filters="sRGB">
<feFlood flood-opacity="0" result="BackgroundImageFix"/>
<feColorMatrix in="SourceAlpha" type="matrix" values="0 0 0 0 0 0 0 0 0 0 0 0 0 0 0 0 0 0 127 0" result="hardAlpha"/>
<feOffset dy="4"/>
<feGaussianBlur stdDeviation="2"/>
<feComposite in2="hardAlpha" operator="out"/>
<feColorMatrix type="matrix" values="0 0 0 0 0 0 0 0 0 0 0 0 0 0 0 0 0 0 0.25 0"/>
<feBlend mode="normal" in2="BackgroundImageFix" result="effect1_dropShadow"/>
<feBlend mode="normal" in="SourceGraphic" in2="effect1_dropShadow" result="shape"/>
</filter>
<linearGradient id="paint0_linear" x1="241.365" y1="80.4913" x2="-10.5996" y2="113.048" gradientUnits="userSpaceOnUse">
<stop offset="0.307292" stop-color="#376040"/>
<stop offset="1" stop-color="#1E2F23"/>
</linearGradient>
</defs>
</svg>
