<svg width="375" height="323" viewBox="0 0 375 323" fill="none" xmlns="http://www.w3.org/2000/svg">
<g filter="url(#filter0_d)">
<path d="M27.4907 169.558C25.6148 170.605 16.341 169.118 10.3479 166.808C2.28887 163.701 1.90135 162.603 9.51476 164.444C12.8912 165.26 17.9691 166.245 20.8002 166.632L25.9467 167.335L20.4808 164.183C13.2223 159.998 13.008 159.241 19.8747 162.032C22.9656 163.289 27.9457 164.959 30.9419 165.744L36.389 167.17L29.7808 164.688C18.5004 160.451 18.3498 160.145 28.7091 162.519C34.2291 163.784 40.287 165.169 42.1718 165.596C44.0566 166.023 47.2204 167.112 49.2035 168.018C51.1865 168.924 53.8358 169.621 55.0919 169.568C58.1175 169.44 41.1451 162.195 28.8059 158.348C21.0716 155.938 19.9509 155.359 23.0151 155.358C25.1042 155.357 30.8974 156.351 35.8899 157.566C40.881 158.781 44.3348 159.444 43.5633 159.037C42.4328 158.441 42.6147 158.279 44.5014 158.199C45.7873 158.143 47.3147 158.347 47.8925 158.651C48.4715 158.954 52.8607 159.477 57.6472 159.812C62.4337 160.146 69.2181 160.948 72.7246 161.593C78.4689 162.65 77.8201 162.286 66.1951 157.918C59.0973 155.25 53.1403 152.816 52.9581 152.507C52.5718 151.854 84.4897 159.445 97.1739 163.022C101.936 164.365 107.648 166.575 109.868 167.933C112.879 169.776 115.655 170.348 120.793 170.188L127.682 169.972L115.044 166.481C95.0557 160.96 61.4324 149.141 60.3005 147.238C59.8341 146.453 88.6398 153.301 115.299 160.314C121.496 161.944 129.353 164.767 132.76 166.589C137.139 168.929 140.284 169.817 143.493 169.617C147.716 169.354 146.993 168.991 133.099 164.408C99.4195 153.298 73.0607 146.533 58.3342 145.221C55.4116 144.96 53.0883 144.487 53.1703 144.168C53.4046 143.255 66.5834 143.439 77.0352 144.498C103.582 147.19 131.093 154.274 149.143 163.067C160.053 168.38 163.007 169.186 168.639 168.382C169.228 168.298 168.028 167.717 165.973 167.092C163.918 166.465 156.013 163.359 148.407 160.189C118.641 147.783 95.8496 140.088 79.6101 136.962C75.5389 136.179 72.2545 135.331 72.3111 135.079C72.3678 134.827 75.4135 134.856 79.0791 135.144C85.6501 135.659 90.2951 136.124 114.945 138.732C121.82 139.459 134.214 141.756 142.486 143.837C150.758 145.918 156.519 147.216 155.29 146.722C145.523 142.802 131.035 138.277 118.441 135.213C110.211 133.211 103.664 131.461 103.893 131.326C104.908 130.726 119.675 132.137 128.157 133.644C140.391 135.817 163.921 142.051 174.163 145.833C183.057 149.116 185.025 149.378 179.777 146.579C177.931 145.595 168.621 140.462 159.09 135.175C149.559 129.888 137.747 123.541 132.841 121.071C121.53 115.377 121.28 115.238 121.806 114.927C123.035 114.2 153.369 125.972 173.41 134.951C196.044 145.093 209.516 152.05 220.307 159.169C225.424 162.544 227.39 163.229 231.267 162.988L235.992 162.694L229.99 160.737C219.339 157.266 206.259 150.008 176.925 131.292C169.981 126.861 158.82 120.045 152.124 116.142C145.427 112.24 139.773 108.751 139.558 108.388C138.434 106.485 179.979 125.338 198.025 134.919C212.173 142.43 182.424 123.94 158.512 110.36C158.099 110.126 157.94 109.827 158.161 109.697C158.602 109.436 165.66 112.317 179.452 118.388C193.712 124.665 193.486 123.904 179.076 117.12C167.66 111.746 167.168 111.394 172.829 112.641C179.889 114.198 195.71 119.92 207.575 125.207C213.121 127.679 218.264 129.865 219.005 130.067C222.939 131.133 193.932 115.701 185.133 112.047C176.908 108.63 179.902 108.497 190.446 111.81C204.508 116.228 218.664 122.056 236.968 130.966C246.064 135.393 254.43 139.446 255.559 139.973C256.689 140.499 253.724 138.524 248.971 135.584C235.353 127.158 211.864 114.244 202.208 109.874C184.026 101.645 206.068 107.693 228.314 117.037C249.3 125.851 267.931 135.319 284.295 145.484C295.859 152.668 296.528 152.923 300.481 151.662L303.413 150.725L298.16 149.39C290.397 147.415 285.978 145.08 265.406 132.086C237.572 114.504 227.987 110.182 214.072 108.939C211.236 108.686 211.258 108.658 215.156 107.553C220.366 106.077 221.877 106.046 228.673 107.279C231.809 107.848 237.159 108.094 240.563 107.824C254.932 106.688 284.175 119.806 307.232 137.732C320.215 147.825 318.851 147.374 328.36 144.712C333.001 143.413 341.953 140.577 348.255 138.411C354.556 136.244 359.979 134.539 360.303 134.623C360.627 134.707 361.232 135.919 361.647 137.319C362.308 139.552 362.034 139.998 359.394 140.971C354.7 142.703 322.123 152.197 320.956 152.173C320.383 152.163 318.668 156.004 317.145 160.711C311.594 177.864 302.891 195.177 295.393 203.981C291.165 208.945 285.133 213.14 284.286 211.707C284.006 211.233 284.767 210.261 285.977 209.545C289.678 207.357 296.272 196.388 300.294 185.732C306.054 170.469 309.687 162.133 312.011 158.835C313.479 156.752 314.487 154.719 314.249 154.317C313.388 152.862 312.158 154.686 308.121 163.405C301.367 177.992 288.067 196.493 279.083 203.799C275.027 207.099 269.073 209.555 268.3 208.248C268.011 207.759 268.691 207.158 269.831 206.896C273.907 205.955 285.01 191.774 291.396 179.35C294.939 172.458 302.062 161.505 305.177 158.159C308.043 155.083 308.049 155.016 305.44 155.789C303.472 156.372 300.772 159.122 295.332 166.087C282.925 181.971 266.35 199.036 252.594 210.092C244.132 216.891 241.78 218.045 246.836 212.914C251.795 207.883 264.93 192.615 276.34 178.619C284.005 169.215 288.403 164.653 292.9 161.436L299.024 157.056L293.382 158.321L287.74 159.585L283.481 165.669C274.174 178.967 246.821 206.671 235.008 214.765L229.613 218.462L233.564 214.338C241.248 206.318 248.834 197.532 260.25 183.433C266.6 175.589 273.808 167.639 276.267 165.768C281.666 161.654 281.965 160.273 277.231 161.308C274.214 161.967 273.335 162.641 271.284 165.876C264.726 176.22 238.663 203.474 225.025 214.249C217.077 220.528 214.802 221.232 220.606 215.614C226.478 209.933 233.019 202.395 246.057 186.286C252.53 178.289 260.199 169.721 263.101 167.245C266.613 164.248 267.837 162.728 266.765 162.694C264.017 162.61 261.829 164.45 257.09 170.826C249.535 180.994 218.494 210.89 200.912 224.934C197.441 227.708 193.57 230.887 192.311 231.999C187.972 235.829 190.396 232.411 196.783 225.69C207.309 214.615 235.907 182.974 235.488 182.866C235.275 182.811 229.596 187.555 222.869 193.41C207.464 206.816 189.381 220.986 178.058 228.524L169.306 234.352L176.01 228.007C179.698 224.518 191.497 213.086 202.231 202.603C223.081 182.24 232.926 173.588 240.455 169.01L245.155 166.153L241.571 166.411C238.223 166.652 237.504 167.121 230.67 173.518C216.554 186.733 185.358 208.951 163.816 221.137L149.887 229.016L157.82 222.783C166.238 216.168 185.128 200.639 199.252 188.723L207.778 181.529L192.007 191.205C173.526 202.546 139.674 220.951 135.305 222.034C132.683 222.685 132.969 222.359 137.387 219.661C142.804 216.353 168.181 198.659 181.807 188.689C186.267 185.426 194.935 179.751 201.07 176.078L212.224 169.4L206.969 169.682C202.733 169.911 201.336 170.404 199.763 172.231C192.125 181.097 170.338 195.522 150.941 204.555C139.376 209.942 122.656 216.095 117.106 217.007L112.983 217.684L116.689 216.091C136.745 207.472 151.109 199.194 183.728 177.462C193.019 171.273 193.753 170.609 191.16 170.742C188.888 170.859 186.069 172.417 177.758 178.145C158.241 191.596 123.932 208.126 108.247 211.637C99.2852 213.643 90.3327 213.758 89.2242 211.883C88.9972 211.499 90.504 211.173 92.5725 211.161C98.4119 211.122 107.669 208.041 119.736 202.117C130.259 196.952 147.038 187.323 142.085 189.293C122.204 197.199 108.976 201.498 95.3114 204.495C86.6712 206.39 77.0123 207.66 77.2145 206.876C77.2873 206.593 80.3109 205.665 83.9336 204.815C96.5453 201.854 125.628 189.696 153.287 175.82C159.669 172.619 160.143 172.235 157.612 172.327C155.992 172.385 150.501 174.648 144.859 177.581C139.41 180.415 131.54 183.904 127.371 185.335C117.705 188.653 93.7822 194.308 82.6791 195.901C73.4152 197.228 57.5511 198.159 57.7564 197.363C57.8257 197.093 62.9419 195.985 69.1273 194.901C79.2975 193.118 110.498 184.371 113.629 182.425C115.048 181.544 69.2024 190.511 57.6433 193.376C53.5935 194.379 50.3506 194.931 50.4349 194.6C50.8678 192.917 92.6805 179.533 110.847 175.263C115.194 174.24 118.683 173.289 118.6 173.148C117.918 171.996 107.567 173.296 104.89 174.871C103.078 175.936 97.1377 177.668 91.6893 178.719C81.1079 180.762 42.9689 186.461 41.8343 186.169C40.9075 185.932 51.9869 182.425 60.6305 180.221C64.5172 179.23 68.5918 178.164 69.6852 177.852C70.7787 177.54 67.8889 177.516 63.2626 177.796C54.0433 178.356 29.2293 177.682 29.4353 176.877C29.5073 176.6 31.8591 176.076 34.6624 175.713C41.7368 174.795 41.9461 174.31 35.1816 174.51C27.3018 174.744 19.2032 174.087 15.1411 172.885C10.808 171.604 11.5643 171.152 17.3999 171.538C19.9227 171.704 25.4889 171.576 29.7695 171.251L37.552 170.66L33.0017 169.841C30.4988 169.39 28.0192 169.263 27.4907 169.558Z" fill="url(#paint0_linear)"/>
</g>
<defs>
<filter id="filter0_d" x="0" y="0" width="378.993" height="330.903" filterUnits="userSpaceOnUse" color-interpolation-filters="sRGB">
<feFlood flood-opacity="0" result="BackgroundImageFix"/>
<feColorMatrix in="SourceAlpha" type="matrix" values="0 0 0 0 0 0 0 0 0 0 0 0 0 0 0 0 0 0 127 0" result="hardAlpha"/>
<feOffset dy="4"/>
<feGaussianBlur stdDeviation="2"/>
<feComposite in2="hardAlpha" operator="out"/>
<feColorMatrix type="matrix" values="0 0 0 0 0 0 0 0 0 0 0 0 0 0 0 0 0 0 0.25 0"/>
<feBlend mode="normal" in2="BackgroundImageFix" result="effect1_dropShadow"/>
<feBlend mode="normal" in="SourceGraphic" in2="effect1_dropShadow" result="shape"/>
</filter>
<linearGradient id="paint0_linear" x1="51.0662" y1="243.295" x2="327.927" y2="79.6079" gradientUnits="userSpaceOnUse">
<stop offset="0.307292" stop-color="#376040"/>
<stop offset="1" stop-color="#1E2F23"/>
</linearGradient>
</defs>
</svg>
