<svg class="sandwitch" preserveAspectRatio="none" viewBox="-15 0 200 86" fill="none"
          xmlns="http://www.w3.org/2000/svg">
          <path d="M198.198 73.3333H11.8919L16.8468 45.5856H197.207L198.198 73.3333Z" fill="#EF8B2D" />
          <path
            d="M11.8919 73.3333H198.198V83.2252C198.198 84.3298 197.303 85.2252 196.198 85.2252H13.8919C12.7873 85.2252 11.8919 84.3298 11.8919 83.2252V73.3333Z"
            fill="#F7AA66" />
          <rect x="37.6577" y="75.3153" width="158.559" height="7.92793" rx="2" fill="#F9BD74" />
          <g filter="url(#filter0_d)">
            <path fill-rule="evenodd" clip-rule="evenodd"
              d="M59.2557 47.4639C61.6286 49.8263 64.3468 51.9323 65.6008 54.5686C67.0095 57.5301 68.5982 60.6131 66.9003 63.535C65.0582 66.7052 60.7153 69.09 56.0208 71.0549C50.5887 73.3287 44.4171 76.7773 38.0534 75.6095C31.5349 74.4133 31.4278 69.0291 27.4676 65.8152C24.4346 63.3537 19.7175 61.8127 17.6354 59.0392C15.0196 55.5546 12.2028 51.7349 14.1643 48.0937C16.2508 44.2205 21.9798 41.2822 28.2132 39.4036C34.4802 37.5148 42.2399 36.0327 48.6556 37.6986C54.8794 39.3146 55.8337 44.0571 59.2557 47.4639Z"
              fill="#8FBC3B" />
            <path
              d="M58.726 47.6413C59.2987 48.2115 59.8839 48.7608 60.4597 49.3014C62.3155 51.0436 64.0745 52.695 65.0103 54.6622C65.0556 54.7575 65.1011 54.8529 65.1465 54.9481C66.5273 57.8443 67.8946 60.7124 66.3197 63.4226C64.5396 66.486 60.3257 68.8164 55.6614 70.7687C54.8031 71.128 53.9401 71.5099 53.0692 71.8952C51.1247 72.7556 49.1408 73.6335 47.0815 74.3162C44.121 75.2977 41.1779 75.8119 38.2389 75.2726C35.2646 74.7268 33.6983 73.2236 32.3684 71.3358C32.0387 70.8678 31.7278 70.3829 31.4134 69.8892C31.39 69.8525 31.3666 69.8157 31.3432 69.779C31.0527 69.3224 30.7577 68.859 30.4451 68.4031C29.7704 67.419 28.9996 66.4486 27.9666 65.6103C26.6948 64.5781 25.1294 63.7004 23.6237 62.8561C23.2868 62.6672 22.9528 62.4799 22.6258 62.293C20.8154 61.2581 19.1888 60.2193 18.1973 58.8986C16.8863 57.1522 15.5497 55.3529 14.778 53.5408C14.008 51.7326 13.8125 49.9372 14.749 48.1987C16.768 44.4509 22.3384 41.573 28.4966 39.717C34.7509 37.832 42.2722 36.4287 48.4044 38.021C51.3078 38.7749 53.0224 40.2649 54.4499 42.0574C54.982 42.7255 55.4641 43.4216 55.9543 44.1297C56.1224 44.3723 56.2914 44.6164 56.4637 44.8612C57.1335 45.8128 57.8479 46.7671 58.726 47.6413Z"
              stroke="#6F9F28" />
          </g>
          <g filter="url(#filter1_d)">
            <path fill-rule="evenodd" clip-rule="evenodd"
              d="M102.378 49.5513C107.282 51.4069 111.075 54.181 112.884 57.391C114.892 60.9538 115.304 64.8543 112.945 68.3005C110.457 71.9341 106.072 75.5028 99.6416 76.7314C93.4364 77.917 87.1829 75.3045 80.7559 74.4509C74.8617 73.6681 68.0143 74.3494 63.5904 71.9433C59.1331 69.5189 59.2594 65.5848 58.1072 62.1323C56.9198 58.5744 53.8223 54.7255 56.7934 51.5768C59.7524 48.4407 66.6603 47.36 72.738 46.6262C77.7509 46.021 82.5844 47.3484 87.6646 47.8497C92.7162 48.3483 98.0693 47.9213 102.378 49.5513Z"
              fill="#8FBC3B" />
            <path
              d="M102.042 49.847C106.836 51.6609 110.538 54.3708 112.302 57.5004C114.28 61.0101 114.668 64.8222 112.375 68.1705C109.914 71.7654 105.625 75.2157 99.4492 76.3958C96.5412 76.9514 93.5863 76.6259 90.4776 76.0209C89.3713 75.8055 88.2676 75.5596 87.1454 75.3095C86.6879 75.2076 86.2273 75.1049 85.7622 75.0034C84.1694 74.6557 82.5418 74.3253 80.8932 74.1064C79.3788 73.9052 77.8127 73.7994 76.2667 73.7152C75.825 73.6912 75.3864 73.669 74.9509 73.6469C73.8491 73.5911 72.7667 73.5363 71.7017 73.4553C68.738 73.2299 66.0794 72.8113 64.0103 71.686C61.91 70.5436 60.8647 69.0337 60.2068 67.3457C59.878 66.5019 59.6493 65.6233 59.4295 64.7311C59.4032 64.6242 59.3769 64.5171 59.3507 64.4098C59.1589 63.626 58.965 62.834 58.7085 62.0654C58.4242 61.2134 58.0325 60.3465 57.6453 59.4897C57.6221 59.4383 57.5989 59.387 57.5758 59.3356C57.1643 58.424 56.7648 57.524 56.4939 56.6396C55.9516 54.8687 55.9441 53.2159 57.3311 51.7459C58.7252 50.2684 61.0645 49.2575 63.8508 48.5222C66.6409 47.7858 69.8298 47.3385 72.8633 46.9723C75.2427 46.685 77.603 46.8531 80.0424 47.168C80.9902 47.2904 81.9369 47.433 82.9001 47.5781C83.1789 47.6201 83.4591 47.6623 83.7411 47.7043C84.99 47.8902 86.265 48.0703 87.5614 48.1982C88.8541 48.3258 90.1596 48.3935 91.4429 48.4493C91.7485 48.4625 92.0522 48.4751 92.3542 48.4876C93.329 48.5279 94.2861 48.5675 95.2329 48.6277C97.7067 48.7848 100.008 49.0775 102.042 49.847Z"
              stroke="#6F9F28" />
          </g>
          <g filter="url(#filter2_d)">
            <path fill-rule="evenodd" clip-rule="evenodd"
              d="M148.832 50.4484C151.205 52.8108 153.923 54.9168 155.177 57.5531C156.586 60.5146 158.175 63.5975 156.477 66.5195C154.635 69.6897 150.292 72.0744 145.597 74.0394C140.165 76.3131 133.993 79.7617 127.63 78.5939C121.111 77.3978 121.004 72.0136 117.044 68.7997C114.011 66.3382 109.294 64.7971 107.212 62.0236C104.596 58.5391 101.779 54.7194 103.741 51.0782C105.827 47.205 111.556 44.2667 117.79 42.388C124.057 40.4993 131.816 39.0171 138.232 40.683C144.456 42.2991 145.41 47.0415 148.832 50.4484Z"
              fill="#8FBC3B" />
            <path
              d="M148.302 50.6257C148.875 51.196 149.46 51.7453 150.036 52.2858C151.892 54.0281 153.651 55.6794 154.587 57.6467C154.632 57.742 154.677 57.8373 154.723 57.9326C156.104 60.8288 157.471 63.6968 155.896 66.407C154.116 69.4705 149.902 71.8009 145.238 73.7532C144.379 74.1125 143.516 74.4943 142.646 74.8797C140.701 75.7401 138.717 76.6179 136.658 77.3007C133.697 78.2822 130.754 78.7963 127.815 78.257C124.841 77.7112 123.275 76.2081 121.945 74.3203C121.615 73.8522 121.304 73.3674 120.99 72.8736C120.966 72.8369 120.943 72.8002 120.92 72.7634C120.629 72.3069 120.334 71.8435 120.021 71.3876C119.347 70.4035 118.576 69.4331 117.543 68.5948C116.271 67.5626 114.706 66.6849 113.2 65.8406C112.863 65.6517 112.529 65.4644 112.202 65.2775C110.392 64.2426 108.765 63.2038 107.774 61.8831C106.463 60.1367 105.126 58.3374 104.354 56.5253C103.584 54.7171 103.389 52.9217 104.325 51.1832C106.344 47.4353 111.915 44.5574 118.073 42.7014C124.327 40.8165 131.849 39.4132 137.981 41.0054C140.884 41.7593 142.599 43.2494 144.026 45.0418C144.558 45.71 145.04 46.4061 145.531 47.1141C145.699 47.3568 145.868 47.6008 146.04 47.8456C146.71 48.7972 147.424 49.7516 148.302 50.6257Z"
              stroke="#6F9F28" />
          </g>
          <g filter="url(#filter3_d)">
            <path fill-rule="evenodd" clip-rule="evenodd"
              d="M192.408 45.5637C197.34 48.1045 193.292 52.9207 194.2 56.708C195.085 60.3974 201.281 64.3294 197.65 67.4224C193.908 70.6106 184.83 68.5095 178.651 69.9546C173.357 71.1923 170.251 75.3835 164.565 75.1589C158.891 74.9348 155.873 71.2859 151.983 68.9011C148.232 66.6019 142.808 64.68 142.327 61.5272C141.851 58.4041 147.329 56.1987 149.611 53.3453C152.038 50.3095 151.073 45.9699 156.1 44.3065C161.11 42.6483 167.033 45.4772 172.784 45.6764C179.475 45.9081 187.417 42.9932 192.408 45.5637Z"
              fill="#8FBC3B" />
            <path
              d="M192 45.8275C194.23 46.976 194.483 48.6542 194.203 50.6397C194.123 51.2073 194.005 51.7687 193.886 52.3406C193.794 52.7821 193.7 53.2299 193.621 53.6916C193.445 54.7235 193.357 55.7677 193.594 56.7565C193.825 57.7222 194.401 58.6916 195.055 59.635C195.348 60.0576 195.648 60.4643 195.944 60.8651C196.327 61.3842 196.703 61.8935 197.046 62.4145C198.246 64.237 198.773 65.8359 197.143 67.2241C195.462 68.6566 192.565 68.9348 189.048 68.9888C188.384 68.999 187.689 69.0012 186.983 69.0034C185.881 69.0069 184.75 69.0105 183.667 69.0446C181.861 69.1015 180.057 69.2442 178.421 69.6269C177.008 69.9572 175.763 70.4793 174.615 71.0545C173.854 71.4357 173.11 71.8543 172.388 72.261C172.031 72.4617 171.68 72.6594 171.334 72.8484C169.181 74.025 167.159 74.907 164.607 74.8062C162.009 74.7036 159.974 73.8187 158.058 72.6024C157.145 72.0223 156.279 71.3802 155.398 70.7274C155.357 70.697 155.316 70.6666 155.275 70.6362C154.359 69.9569 153.424 69.2688 152.429 68.6587C151.486 68.081 150.443 67.5284 149.417 66.985L149.374 66.9618C148.327 66.4076 147.3 65.8622 146.376 65.2926C144.527 64.1527 143.16 62.9561 142.937 61.4962C142.72 60.0679 143.854 58.8259 145.434 57.5396C145.881 57.1762 146.333 56.8313 146.794 56.4801C147.17 56.1941 147.551 55.904 147.938 55.5962C148.773 54.9328 149.571 54.238 150.167 53.4935C150.801 52.6998 151.207 51.8301 151.54 50.9625C151.688 50.5762 151.818 50.2007 151.946 49.8306C152.114 49.3462 152.279 48.871 152.476 48.3932C153.161 46.7347 154.128 45.3665 156.404 44.6132C158.664 43.8653 161.167 44.1095 163.977 44.6315C164.668 44.7598 165.365 44.9024 166.077 45.0478L166.095 45.0515C166.809 45.1975 167.537 45.3462 168.268 45.4817C169.729 45.7524 171.234 45.9769 172.747 46.0293C174.498 46.0899 176.309 45.9443 178.09 45.7419C178.938 45.6455 179.788 45.535 180.624 45.4263L180.752 45.4097C181.633 45.2953 182.498 45.1836 183.348 45.0903C186.782 44.7132 189.741 44.664 192 45.8275Z"
              stroke="#6F9F28" />
          </g>
          <g filter="url(#filter4_ii)">
            <rect width="57.5551" height="32.3649"
              transform="matrix(0.866044 0.499967 -0.866044 0.499967 146.948 25.7658)" fill="#FCD030" />
          </g>
          <g filter="url(#filter5_ii)">
            <rect width="57.5551" height="32.3649"
              transform="matrix(0.866044 -0.499967 0.866044 0.499967 95.1351 54.5415)" fill="#FCD030" />
          </g>
          <g filter="url(#filter6_ii)">
            <rect width="57.5551" height="32.3649"
              transform="matrix(0.866044 -0.499967 0.866044 0.499967 57.4775 52.5595)" fill="#FCD030" />
          </g>
          <g filter="url(#filter7_ii)">
            <rect width="57.5551" height="32.3649"
              transform="matrix(0.866044 -0.499967 0.866044 0.499967 15.8559 52.5595)" fill="#FCD030" />
          </g>
          <circle r="15.1655" transform="matrix(0.866044 0.499967 -0.866044 0.499967 41 49.1644)" fill="#EF7A5F" />
          <circle r="15.1655" transform="matrix(0.866044 0.499967 -0.866044 0.499967 41 49.1644)" stroke="#B41310"
            stroke-width="2" />
          <circle r="15.1655" transform="matrix(0.866044 0.499967 -0.866044 0.499967 41 49.1644)"
            stroke="url(#paint0_linear)" stroke-width="2" />
          <circle r="11.5468" transform="matrix(0.866044 0.499967 -0.866044 0.499967 41 49.1644)" fill="#D35234" />
          <ellipse rx="5.08057" ry="10.623" transform="matrix(0.866044 0.499967 -0.866044 0.499967 41 49.1644)"
            fill="#EF7A5F" />
          <circle r="15.1655" transform="matrix(0.866044 0.499967 -0.866044 0.499967 73 49.1644)" fill="#EF7A5F" />
          <circle r="15.1655" transform="matrix(0.866044 0.499967 -0.866044 0.499967 73 49.1644)" stroke="#B41310"
            stroke-width="2" />
          <circle r="15.1655" transform="matrix(0.866044 0.499967 -0.866044 0.499967 73 49.1644)"
            stroke="url(#paint1_linear)" stroke-width="2" />
          <circle r="11.5468" transform="matrix(0.866044 0.499967 -0.866044 0.499967 73 49.1644)" fill="#D35234" />
          <ellipse rx="5.08057" ry="10.623" transform="matrix(0.866044 0.499967 -0.866044 0.499967 73 49.1644)"
            fill="#EF7A5F" />
          <circle r="15.1655" transform="matrix(0.866044 0.499967 -0.866044 0.499967 107 49.1644)" fill="#EF7A5F" />
          <circle r="15.1655" transform="matrix(0.866044 0.499967 -0.866044 0.499967 107 49.1644)" stroke="#B41310"
            stroke-width="2" />
          <circle r="15.1655" transform="matrix(0.866044 0.499967 -0.866044 0.499967 107 49.1644)"
            stroke="url(#paint2_linear)" stroke-width="2" />
          <circle r="11.5468" transform="matrix(0.866044 0.499967 -0.866044 0.499967 107 49.1644)" fill="#D35234" />
          <ellipse rx="5.08057" ry="10.623" transform="matrix(0.866044 0.499967 -0.866044 0.499967 107 49.1644)"
            fill="#EF7A5F" />
          <circle r="15.1655" transform="matrix(0.866044 0.499967 -0.866044 0.499967 140 49.1644)" fill="#EF7A5F" />
          <circle r="15.1655" transform="matrix(0.866044 0.499967 -0.866044 0.499967 140 49.1644)" stroke="#B41310"
            stroke-width="2" />
          <circle r="15.1655" transform="matrix(0.866044 0.499967 -0.866044 0.499967 140 49.1644)"
            stroke="url(#paint3_linear)" stroke-width="2" />
          <circle r="11.5468" transform="matrix(0.866044 0.499967 -0.866044 0.499967 140 49.1644)" fill="#D35234" />
          <ellipse rx="5.08057" ry="10.623" transform="matrix(0.866044 0.499967 -0.866044 0.499967 140 49.1644)"
            fill="#EF7A5F" />
          <circle r="15.1655" transform="matrix(0.866044 0.499967 -0.866044 0.499967 173 49.1644)" fill="#EF7A5F" />
          <circle r="15.1655" transform="matrix(0.866044 0.499967 -0.866044 0.499967 173 49.1644)" stroke="#B41310"
            stroke-width="2" />
          <circle r="15.1655" transform="matrix(0.866044 0.499967 -0.866044 0.499967 173 49.1644)"
            stroke="url(#paint4_linear)" stroke-width="2" />
          <circle r="11.5468" transform="matrix(0.866044 0.499967 -0.866044 0.499967 173 49.1644)" fill="#D35234" />
          <ellipse rx="5.08057" ry="10.623" transform="matrix(0.866044 0.499967 -0.866044 0.499967 173 49.1644)"
            fill="#EF7A5F" />
          <circle r="13.7773" transform="matrix(0.866044 0.499967 -0.866044 0.499967 168.404 44.7763)" fill="white" />
          <circle r="13.7773" transform="matrix(0.866044 0.499967 -0.866044 0.499967 168.404 44.7763)" stroke="#7C2053"
            stroke-width="2" />
          <circle r="13.7773" transform="matrix(0.866044 0.499967 -0.866044 0.499967 168.404 44.7763)"
            stroke="url(#paint5_linear)" stroke-width="2" />
          <circle r="9.49967" transform="matrix(0.866044 0.499967 -0.866044 0.499967 168.404 44.7763)" fill="#D4B3BD" />
          <circle r="13.7773" transform="matrix(0.866044 0.499967 -0.866044 0.499967 138.997 44.7763)" fill="white" />
          <circle r="13.7773" transform="matrix(0.866044 0.499967 -0.866044 0.499967 138.997 44.7763)" stroke="#7C2053"
            stroke-width="2" />
          <circle r="13.7773" transform="matrix(0.866044 0.499967 -0.866044 0.499967 138.997 44.7763)"
            stroke="url(#paint6_linear)" stroke-width="2" />
          <circle r="9.49967" transform="matrix(0.866044 0.499967 -0.866044 0.499967 138.997 44.7763)" fill="#D4B3BD" />
          <circle r="13.7773" transform="matrix(0.866044 0.499967 -0.866044 0.499967 108.5 44.7763)" fill="white" />
          <circle r="13.7773" transform="matrix(0.866044 0.499967 -0.866044 0.499967 108.5 44.7763)" stroke="#7C2053"
            stroke-width="2" />
          <circle r="13.7773" transform="matrix(0.866044 0.499967 -0.866044 0.499967 108.5 44.7763)"
            stroke="url(#paint7_linear)" stroke-width="2" />
          <circle r="9.49967" transform="matrix(0.866044 0.499967 -0.866044 0.499967 108.5 44.7763)" fill="#D4B3BD" />
          <circle r="13.7773" transform="matrix(0.866044 0.499967 -0.866044 0.499967 79.0924 44.7763)" fill="white" />
          <circle r="13.7773" transform="matrix(0.866044 0.499967 -0.866044 0.499967 79.0924 44.7763)" stroke="#7C2053"
            stroke-width="2" />
          <circle r="13.7773" transform="matrix(0.866044 0.499967 -0.866044 0.499967 79.0924 44.7763)"
            stroke="url(#paint8_linear)" stroke-width="2" />
          <circle r="9.49967" transform="matrix(0.866044 0.499967 -0.866044 0.499967 79.0924 44.7763)" fill="#D4B3BD" />
          <circle r="13.7773" transform="matrix(0.866044 0.499967 -0.866044 0.499967 48.5956 44.7763)" fill="white" />
          <circle r="13.7773" transform="matrix(0.866044 0.499967 -0.866044 0.499967 48.5956 44.7763)" stroke="#7C2053"
            stroke-width="2" />
          <circle r="13.7773" transform="matrix(0.866044 0.499967 -0.866044 0.499967 48.5956 44.7763)"
            stroke="url(#paint9_linear)" stroke-width="2" />
          <circle r="9.49967" transform="matrix(0.866044 0.499967 -0.866044 0.499967 48.5956 44.7763)" fill="#D4B3BD" />
          <g filter="url(#filter8_d)">
            <path fill-rule="evenodd" clip-rule="evenodd"
              d="M27.5468 49.8088C24.2119 50.1081 20.8514 50.8366 18.0258 50.1027C14.8516 49.2782 11.4688 48.5135 10.3218 45.3347C9.0774 41.8858 10.0421 37.026 11.5543 32.1668C13.3042 26.544 14.6295 19.5996 19.6145 15.4753C24.7208 11.2508 28.9142 14.6295 33.9218 13.6617C37.757 12.9205 41.9696 10.2975 45.4325 10.4853C49.7833 10.7213 54.52 11.0187 56.0484 14.8618C57.6743 18.9498 56.2427 25.2272 53.6751 31.2098C51.0937 37.2247 47.2412 44.1217 41.8411 47.9657C36.6026 51.6946 32.3563 49.3772 27.5468 49.8088Z"
              fill="#8FBC3B" />
            <path
              d="M27.7515 49.289C26.9465 49.3612 26.1496 49.4564 25.3654 49.55C22.8378 49.8518 20.4422 50.1378 18.3337 49.5901C18.2315 49.5636 18.1293 49.5371 18.0271 49.5107C14.9209 48.7068 11.845 47.9107 10.7811 44.9622C9.57863 41.6294 10.5021 36.9034 12.0046 32.0754C12.2811 31.187 12.5433 30.2804 12.8079 29.3656C13.3987 27.323 14.0015 25.2389 14.8021 23.2226C15.9532 20.3238 17.4511 17.7387 19.7534 15.834C22.0833 13.9064 24.2416 13.6727 26.5426 13.8674C27.1131 13.9157 27.6843 13.9892 28.2647 14.0657C28.3078 14.0714 28.351 14.0771 28.3942 14.0828C28.9307 14.1536 29.4753 14.2255 30.0255 14.2791C31.213 14.3948 32.4518 14.4282 33.758 14.1757C35.3662 13.8649 37.0448 13.2299 38.6594 12.6191C39.0207 12.4825 39.3788 12.347 39.7322 12.2167C41.6887 11.495 43.53 10.9166 45.1791 11.0061C47.3596 11.1244 49.597 11.257 51.4812 11.8307C53.3613 12.403 54.8624 13.4073 55.5922 15.2423C57.1654 19.198 55.7895 25.315 53.2529 31.2255C50.6767 37.2282 46.9171 43.8919 41.7556 47.566C39.3119 49.3055 37.0683 49.6612 34.7776 49.6026C33.9238 49.5808 33.0806 49.5026 32.2231 49.423C31.9292 49.3958 31.6336 49.3683 31.3354 49.343C30.1759 49.2444 28.9856 49.1783 27.7515 49.289Z"
              stroke="#6F9F28" />
          </g>
          <g filter="url(#filter9_d)">
            <path fill-rule="evenodd" clip-rule="evenodd"
              d="M65.2016 23.6803C67.5745 26.0427 70.2926 28.1486 71.5466 30.7849C72.9554 33.7465 74.544 36.8294 72.8462 39.7513C71.004 42.9215 66.6611 45.3063 61.9667 47.2713C56.5346 49.545 50.363 52.9936 43.9992 51.8258C37.4808 50.6296 37.3736 45.2455 33.4135 42.0316C30.3804 39.5701 25.6633 38.029 23.5812 35.2555C20.9654 31.771 18.1486 27.9513 20.1101 24.3101C22.1966 20.4369 27.9256 17.4986 34.159 15.6199C40.426 13.7311 48.1858 12.249 54.6015 13.9149C60.8252 15.5309 61.7795 20.2734 65.2016 23.6803Z"
              fill="#8FBC3B" />
            <path
              d="M64.6718 23.8576C65.2446 24.4278 65.8297 24.9772 66.4055 25.5177C68.2613 27.26 70.0204 28.9113 70.9561 30.8785C71.0015 30.9739 71.0469 31.0692 71.0923 31.1645C72.4731 34.0607 73.8404 36.9287 72.2656 39.6389C70.4855 42.7023 66.2715 45.0327 61.6072 46.9851C60.7489 47.3443 59.8859 47.7262 59.015 48.1116C57.0705 48.972 55.0866 49.8498 53.0273 50.5325C50.0669 51.5141 47.1237 52.0282 44.1847 51.4889C41.2104 50.9431 39.6442 49.4399 38.3143 47.5521C37.9845 47.0841 37.6737 46.5993 37.3592 46.1055C37.3359 46.0688 37.3125 46.0321 37.2891 45.9953C36.9985 45.5388 36.7035 45.0754 36.3909 44.6194C35.7162 43.6354 34.9455 42.665 33.9125 41.8266C32.6406 40.7945 31.0752 39.9167 29.5696 39.0725C29.2326 38.8835 28.8986 38.6963 28.5716 38.5093C26.7612 37.4744 25.1346 36.4357 24.1431 35.1149C22.8321 33.3685 21.4956 31.5693 20.7239 29.7571C19.9538 27.949 19.7583 26.1536 20.6949 24.4151C22.7139 20.6672 28.2842 17.7893 34.4424 15.9333C40.6967 14.0484 48.218 12.645 54.3503 14.2373C57.2536 14.9912 58.9682 16.4812 60.3958 18.2737C60.9279 18.9418 61.4099 19.638 61.9002 20.346C62.0682 20.5887 62.2372 20.8327 62.4095 21.0775C63.0793 22.0291 63.7937 22.9834 64.6718 23.8576Z"
              stroke="#6F9F28" />
          </g>
          <g filter="url(#filter10_d)">
            <path fill-rule="evenodd" clip-rule="evenodd"
              d="M108.324 25.7677C113.228 27.6233 117.021 30.3973 118.83 33.6073C120.838 37.1701 121.25 41.0706 118.891 44.5168C116.403 48.1504 112.018 51.7191 105.587 52.9477C99.3823 54.1334 93.1288 51.5208 86.7018 50.6672C80.8075 49.8844 73.9601 50.5658 69.5362 48.1596C65.0789 45.7353 65.2053 41.8011 64.053 38.3486C62.8657 34.7908 59.7682 30.9419 62.7392 27.7931C65.6982 24.6571 72.6061 23.5763 78.6838 22.8425C83.6967 22.2374 88.5302 23.5647 93.6105 24.0661C98.6621 24.5646 104.015 24.1377 108.324 25.7677Z"
              fill="#8FBC3B" />
            <path
              d="M107.988 26.0634C112.782 27.8772 116.484 30.5872 118.248 33.7167C120.226 37.2264 120.614 41.0385 118.321 44.3868C115.86 47.9817 111.571 51.4321 105.395 52.6121C102.487 53.1678 99.5322 52.8423 96.4234 52.2372C95.3172 52.0219 94.2135 51.7759 93.0913 51.5259C92.6337 51.4239 92.1731 51.3213 91.708 51.2197C90.1152 50.872 88.4877 50.5417 86.8391 50.3227C85.3246 50.1216 83.7586 50.0157 82.2126 49.9316C81.7708 49.9075 81.3323 49.8853 80.8967 49.8633C79.7949 49.8075 78.7126 49.7527 77.6476 49.6717C74.6839 49.4463 72.0253 49.0277 69.9562 47.9023C67.8558 46.7599 66.8105 45.2501 66.1527 43.5621C65.8238 42.7182 65.5952 41.8396 65.3754 40.9474C65.349 40.8405 65.3228 40.7334 65.2966 40.6261C65.1047 39.8424 64.9109 39.0504 64.6544 38.2817C64.37 37.4298 63.9783 36.5628 63.5912 35.706C63.568 35.6546 63.5448 35.6033 63.5216 35.552C63.1101 34.6404 62.7106 33.7403 62.4398 32.8559C61.8975 31.0851 61.89 29.4322 63.277 27.9622C64.6711 26.4847 67.0104 25.4738 69.7966 24.7385C72.5867 24.0021 75.7757 23.5548 78.8092 23.1886C81.1885 22.9013 83.5488 23.0694 85.9883 23.3844C86.9361 23.5067 87.8828 23.6493 88.846 23.7944C89.1248 23.8364 89.405 23.8786 89.687 23.9206C90.9359 24.1066 92.2109 24.2866 93.5073 24.4146C94.7999 24.5421 96.1054 24.6099 97.3888 24.6656C97.6944 24.6789 97.9981 24.6914 98.3001 24.7039C99.2749 24.7443 100.232 24.7839 101.179 24.844C103.653 25.0011 105.954 25.2938 107.988 26.0634Z"
              stroke="#6F9F28" />
          </g>
          <g filter="url(#filter11_d)">
            <path fill-rule="evenodd" clip-rule="evenodd"
              d="M154.778 26.6647C157.151 29.0271 159.869 31.133 161.123 33.7693C162.532 36.7309 164.121 39.8138 162.423 42.7357C160.581 45.906 156.238 48.2907 151.543 50.2557C146.111 52.5294 139.939 55.978 133.576 54.8102C127.057 53.614 126.95 48.2299 122.99 45.016C119.957 42.5545 115.24 41.0134 113.158 38.2399C110.542 34.7554 107.725 30.9357 109.687 27.2945C111.773 23.4213 117.502 20.483 123.736 18.6043C130.002 16.7155 137.762 15.2334 144.178 16.8993C150.402 18.5153 151.356 23.2578 154.778 26.6647Z"
              fill="#8FBC3B" />
            <path
              d="M154.248 26.842C154.821 27.4122 155.406 27.9616 155.982 28.5021C157.838 30.2444 159.597 31.8957 160.533 33.8629C160.578 33.9583 160.623 34.0536 160.669 34.1489C162.05 37.0451 163.417 39.9131 161.842 42.6233C160.062 45.6867 155.848 48.0171 151.184 49.9695C150.325 50.3287 149.462 50.7106 148.592 51.096C146.647 51.9564 144.663 52.8342 142.604 53.517C139.643 54.4985 136.7 55.0126 133.761 54.4733C130.787 53.9275 129.221 52.4244 127.891 50.5365C127.561 50.0685 127.25 49.5837 126.936 49.0899C126.912 49.0532 126.889 49.0165 126.866 48.9797C126.575 48.5232 126.28 48.0598 125.967 47.6038C125.293 46.6198 124.522 45.6494 123.489 44.811C122.217 43.7789 120.652 42.9011 119.146 42.0569C118.809 41.8679 118.475 41.6807 118.148 41.4937C116.338 40.4588 114.711 39.4201 113.72 38.0993C112.409 36.353 111.072 34.5537 110.3 32.7415C109.53 30.9334 109.335 29.138 110.271 27.3995C112.29 23.6516 117.861 20.7737 124.019 18.9177C130.273 17.0328 137.795 15.6295 143.927 17.2217C146.83 17.9756 148.545 19.4656 149.972 21.2581C150.504 21.9262 150.986 22.6224 151.477 23.3304C151.645 23.5731 151.814 23.8171 151.986 24.0619C152.656 25.0135 153.37 25.9678 154.248 26.842Z"
              stroke="#6F9F28" />
          </g>
          <g filter="url(#filter12_d)">
            <path fill-rule="evenodd" clip-rule="evenodd"
              d="M198.354 21.7801C203.286 24.3208 199.238 29.137 200.147 32.9243C201.031 36.6138 207.227 40.5458 203.596 43.6388C199.854 46.827 190.776 44.7259 184.597 46.1709C179.303 47.4087 176.197 51.5998 170.511 51.3752C164.837 51.1511 161.819 47.5023 157.929 45.1174C154.178 42.8183 148.754 40.8963 148.273 37.7435C147.797 34.6204 153.275 32.415 155.557 29.5616C157.984 26.5258 157.019 22.1862 162.046 20.5228C167.056 18.8646 172.98 21.6936 178.73 21.8927C185.421 22.1244 193.363 19.2095 198.354 21.7801Z"
              fill="#8FBC3B" />
            <path
              d="M197.946 22.0439C200.176 23.1923 200.43 24.8706 200.149 26.856C200.069 27.4236 199.951 27.985 199.832 28.5569C199.74 28.9984 199.646 29.4462 199.567 29.9079C199.391 30.9398 199.303 31.9841 199.54 32.9728C199.772 33.9385 200.347 34.908 201.001 35.8513C201.294 36.2739 201.594 36.6806 201.89 37.0814C202.273 37.6006 202.649 38.1098 202.992 38.6308C204.192 40.4533 204.719 42.0522 203.089 43.4404C201.408 44.8729 198.511 45.1511 194.994 45.2051C194.33 45.2153 193.635 45.2175 192.929 45.2198C191.827 45.2232 190.696 45.2268 189.613 45.261C187.807 45.3179 186.003 45.4605 184.367 45.8432C182.954 46.1735 181.709 46.6957 180.561 47.2709C179.8 47.6521 179.056 48.0706 178.334 48.4773C177.977 48.678 177.626 48.8758 177.28 49.0647C175.127 50.2414 173.105 51.1234 170.553 51.0225C167.955 50.9199 165.92 50.035 164.004 48.8188C163.091 48.2386 162.225 47.5965 161.344 46.9437C161.303 46.9134 161.262 46.883 161.221 46.8526C160.305 46.1732 159.37 45.4851 158.375 44.875C157.432 44.2974 156.389 43.7448 155.363 43.2014L155.32 43.1782C154.273 42.6239 153.246 42.0785 152.322 41.5089C150.473 40.3691 149.106 39.1724 148.883 37.7125C148.666 36.2842 149.8 35.0423 151.38 33.756C151.827 33.3925 152.279 33.0477 152.74 32.6964C153.116 32.4105 153.497 32.1203 153.884 31.8125C154.72 31.1491 155.517 30.4544 156.113 29.7098C156.747 28.9162 157.153 28.0464 157.486 27.1789C157.634 26.7926 157.764 26.4171 157.892 26.0469C158.06 25.5625 158.225 25.0874 158.422 24.6095C159.107 22.951 160.074 21.5828 162.35 20.8295C164.61 20.0816 167.113 20.3259 169.923 20.8478C170.614 20.9761 171.311 21.1187 172.023 21.2642L172.041 21.2678C172.755 21.4139 173.483 21.5626 174.214 21.6981C175.675 21.9687 177.18 22.1932 178.693 22.2456C180.444 22.3062 182.255 22.1606 184.036 21.9582C184.884 21.8618 185.734 21.7514 186.57 21.6427L186.698 21.626C187.579 21.5116 188.444 21.4 189.294 21.3066C192.728 20.9295 195.687 20.8803 197.946 22.0439Z"
              stroke="#6F9F28" />
          </g>
          <path
            d="M11.8919 20.446C11.8919 12.4379 18.3837 5.94601 26.3919 5.94601H183.698C191.706 5.94601 198.198 12.4379 198.198 20.446V25.7658H11.8919V20.446Z"
            fill="#F28832" />
          <rect x="27.7477" y="5.94601" width="166.486" height="17.8378" rx="8.91892" fill="#F7A34D" />
          <path
            d="M163.613 19.8199H77.3443C73.2362 19.8199 68.3321 19.1798 65.0201 16.5166C60.9121 13.2133 75.2903 9.90997 81.4524 9.90997H143.073C159.505 9.90997 177.992 14.0391 177.992 16.5166C177.992 18.4986 168.406 19.5446 163.613 19.8199Z"
            fill="#F9B66F" />
          <path
            d="M141.446 7.92798C145.734 9.26362 155.598 13.5377 160.744 19.9487C165.89 26.3598 150.023 14.6062 141.446 7.92798Z"
            fill="#F29746" />
          <path
            d="M96.7787 7.92798C101.067 9.26362 110.931 13.5377 116.077 19.9487C121.223 26.3598 105.356 14.6062 96.7787 7.92798Z"
            fill="#F29746" />
          <path
            d="M72.4149 7.92798C76.7034 9.26362 86.5669 13.5377 91.7131 19.9487C96.8594 26.3598 80.9919 14.6062 72.4149 7.92798Z"
            fill="#F29746" />
          <path
            d="M121.143 7.92798C125.431 9.26362 135.295 13.5377 140.441 19.9487C145.587 26.3598 129.72 14.6062 121.143 7.92798Z"
            fill="#F29746" />
          <path
            d="M11.8919 25.7658H198.198V35.6577C198.198 36.7623 197.303 37.6577 196.198 37.6577H13.8919C12.7873 37.6577 11.8919 36.7623 11.8919 35.6577V25.7658Z"
            fill="#F7AA66" />
          <rect x="67.3874" y="27.7478" width="128.829" height="7.92793" rx="2" fill="#F9BD74" />
          <defs>
            <filter id="filter0_d" x="9.50842" y="33.975" width="62.1267" height="46.8694" filterUnits="userSpaceOnUse"
              color-interpolation-filters="sRGB">
              <feFlood flood-opacity="0" result="BackgroundImageFix" />
              <feColorMatrix in="SourceAlpha" type="matrix" values="0 0 0 0 0 0 0 0 0 0 0 0 0 0 0 0 0 0 127 0" />
              <feOffset dy="1" />
              <feGaussianBlur stdDeviation="2" />
              <feColorMatrix type="matrix" values="0 0 0 0 0 0 0 0 0 0 0 0 0 0 0 0 0 0 0.25 0" />
              <feBlend mode="normal" in2="BackgroundImageFix" result="effect1_dropShadow" />
              <feBlend mode="normal" in="SourceGraphic" in2="effect1_dropShadow" result="shape" />
            </filter>
            <filter id="filter1_d" x="51.5421" y="43.4712" width="67.0149" height="38.5637" filterUnits="userSpaceOnUse"
              color-interpolation-filters="sRGB">
              <feFlood flood-opacity="0" result="BackgroundImageFix" />
              <feColorMatrix in="SourceAlpha" type="matrix" values="0 0 0 0 0 0 0 0 0 0 0 0 0 0 0 0 0 0 127 0" />
              <feOffset dy="1" />
              <feGaussianBlur stdDeviation="2" />
              <feColorMatrix type="matrix" values="0 0 0 0 0 0 0 0 0 0 0 0 0 0 0 0 0 0 0.25 0" />
              <feBlend mode="normal" in2="BackgroundImageFix" result="effect1_dropShadow" />
              <feBlend mode="normal" in="SourceGraphic" in2="effect1_dropShadow" result="shape" />
            </filter>
            <filter id="filter2_d" x="99.0848" y="36.9595" width="62.1267" height="46.8694" filterUnits="userSpaceOnUse"
              color-interpolation-filters="sRGB">
              <feFlood flood-opacity="0" result="BackgroundImageFix" />
              <feColorMatrix in="SourceAlpha" type="matrix" values="0 0 0 0 0 0 0 0 0 0 0 0 0 0 0 0 0 0 127 0" />
              <feOffset dy="1" />
              <feGaussianBlur stdDeviation="2" />
              <feColorMatrix type="matrix" values="0 0 0 0 0 0 0 0 0 0 0 0 0 0 0 0 0 0 0.25 0" />
              <feBlend mode="normal" in2="BackgroundImageFix" result="effect1_dropShadow" />
              <feBlend mode="normal" in="SourceGraphic" in2="effect1_dropShadow" result="shape" />
            </filter>
            <filter id="filter3_d" x="138.298" y="40.7876" width="64.4828" height="39.38" filterUnits="userSpaceOnUse"
              color-interpolation-filters="sRGB">
              <feFlood flood-opacity="0" result="BackgroundImageFix" />
              <feColorMatrix in="SourceAlpha" type="matrix" values="0 0 0 0 0 0 0 0 0 0 0 0 0 0 0 0 0 0 127 0" />
              <feOffset dy="1" />
              <feGaussianBlur stdDeviation="2" />
              <feColorMatrix type="matrix" values="0 0 0 0 0 0 0 0 0 0 0 0 0 0 0 0 0 0 0.25 0" />
              <feBlend mode="normal" in2="BackgroundImageFix" result="effect1_dropShadow" />
              <feBlend mode="normal" in="SourceGraphic" in2="effect1_dropShadow" result="shape" />
            </filter>
            <filter id="filter4_ii" x="117.919" y="25.7658" width="79.8747" height="44.9571"
              filterUnits="userSpaceOnUse" color-interpolation-filters="sRGB">
              <feFlood flood-opacity="0" result="BackgroundImageFix" />
              <feBlend mode="normal" in="SourceGraphic" in2="BackgroundImageFix" result="shape" />
              <feColorMatrix in="SourceAlpha" type="matrix" values="0 0 0 0 0 0 0 0 0 0 0 0 0 0 0 0 0 0 127 0"
                result="hardAlpha" />
              <feOffset dx="1" />
              <feGaussianBlur stdDeviation="0.5" />
              <feComposite in2="hardAlpha" operator="arithmetic" k2="-1" k3="1" />
              <feColorMatrix type="matrix" values="0 0 0 0 0 0 0 0 0 0 0 0 0 0 0 0 0 0 0.25 0" />
              <feBlend mode="normal" in2="shape" result="effect1_innerShadow" />
              <feColorMatrix in="SourceAlpha" type="matrix" values="0 0 0 0 0 0 0 0 0 0 0 0 0 0 0 0 0 0 127 0"
                result="hardAlpha" />
              <feOffset dx="-1" />
              <feGaussianBlur stdDeviation="0.5" />
              <feComposite in2="hardAlpha" operator="arithmetic" k2="-1" k3="1" />
              <feColorMatrix type="matrix" values="0 0 0 0 1 0 0 0 0 1 0 0 0 0 1 0 0 0 0.25 0" />
              <feBlend mode="normal" in2="effect1_innerShadow" result="effect2_innerShadow" />
            </filter>
            <filter id="filter5_ii" x="94.1351" y="24.7658" width="79.8747" height="46.9571"
              filterUnits="userSpaceOnUse" color-interpolation-filters="sRGB">
              <feFlood flood-opacity="0" result="BackgroundImageFix" />
              <feBlend mode="normal" in="SourceGraphic" in2="BackgroundImageFix" result="shape" />
              <feColorMatrix in="SourceAlpha" type="matrix" values="0 0 0 0 0 0 0 0 0 0 0 0 0 0 0 0 0 0 127 0"
                result="hardAlpha" />
              <feOffset dx="1" dy="1" />
              <feGaussianBlur stdDeviation="0.5" />
              <feComposite in2="hardAlpha" operator="arithmetic" k2="-1" k3="1" />
              <feColorMatrix type="matrix" values="0 0 0 0 0 0 0 0 0 0 0 0 0 0 0 0 0 0 0.25 0" />
              <feBlend mode="normal" in2="shape" result="effect1_innerShadow" />
              <feColorMatrix in="SourceAlpha" type="matrix" values="0 0 0 0 0 0 0 0 0 0 0 0 0 0 0 0 0 0 127 0"
                result="hardAlpha" />
              <feOffset dx="-1" dy="-1" />
              <feGaussianBlur stdDeviation="0.5" />
              <feComposite in2="hardAlpha" operator="arithmetic" k2="-1" k3="1" />
              <feColorMatrix type="matrix" values="0 0 0 0 1 0 0 0 0 1 0 0 0 0 1 0 0 0 0.25 0" />
              <feBlend mode="normal" in2="effect1_innerShadow" result="effect2_innerShadow" />
            </filter>
            <filter id="filter6_ii" x="56.4775" y="22.7839" width="79.8747" height="46.9571"
              filterUnits="userSpaceOnUse" color-interpolation-filters="sRGB">
              <feFlood flood-opacity="0" result="BackgroundImageFix" />
              <feBlend mode="normal" in="SourceGraphic" in2="BackgroundImageFix" result="shape" />
              <feColorMatrix in="SourceAlpha" type="matrix" values="0 0 0 0 0 0 0 0 0 0 0 0 0 0 0 0 0 0 127 0"
                result="hardAlpha" />
              <feOffset dx="1" dy="1" />
              <feGaussianBlur stdDeviation="0.5" />
              <feComposite in2="hardAlpha" operator="arithmetic" k2="-1" k3="1" />
              <feColorMatrix type="matrix" values="0 0 0 0 0 0 0 0 0 0 0 0 0 0 0 0 0 0 0.25 0" />
              <feBlend mode="normal" in2="shape" result="effect1_innerShadow" />
              <feColorMatrix in="SourceAlpha" type="matrix" values="0 0 0 0 0 0 0 0 0 0 0 0 0 0 0 0 0 0 127 0"
                result="hardAlpha" />
              <feOffset dx="-1" dy="-1" />
              <feGaussianBlur stdDeviation="0.5" />
              <feComposite in2="hardAlpha" operator="arithmetic" k2="-1" k3="1" />
              <feColorMatrix type="matrix" values="0 0 0 0 1 0 0 0 0 1 0 0 0 0 1 0 0 0 0.25 0" />
              <feBlend mode="normal" in2="effect1_innerShadow" result="effect2_innerShadow" />
            </filter>
            <filter id="filter7_ii" x="14.8559" y="22.7839" width="79.8747" height="46.9571"
              filterUnits="userSpaceOnUse" color-interpolation-filters="sRGB">
              <feFlood flood-opacity="0" result="BackgroundImageFix" />
              <feBlend mode="normal" in="SourceGraphic" in2="BackgroundImageFix" result="shape" />
              <feColorMatrix in="SourceAlpha" type="matrix" values="0 0 0 0 0 0 0 0 0 0 0 0 0 0 0 0 0 0 127 0"
                result="hardAlpha" />
              <feOffset dx="1" dy="1" />
              <feGaussianBlur stdDeviation="0.5" />
              <feComposite in2="hardAlpha" operator="arithmetic" k2="-1" k3="1" />
              <feColorMatrix type="matrix" values="0 0 0 0 0 0 0 0 0 0 0 0 0 0 0 0 0 0 0.25 0" />
              <feBlend mode="normal" in2="shape" result="effect1_innerShadow" />
              <feColorMatrix in="SourceAlpha" type="matrix" values="0 0 0 0 0 0 0 0 0 0 0 0 0 0 0 0 0 0 127 0"
                result="hardAlpha" />
              <feOffset dx="-1" dy="-1" />
              <feGaussianBlur stdDeviation="0.5" />
              <feComposite in2="hardAlpha" operator="arithmetic" k2="-1" k3="1" />
              <feColorMatrix type="matrix" values="0 0 0 0 1 0 0 0 0 1 0 0 0 0 1 0 0 0 0.25 0" />
              <feBlend mode="normal" in2="effect1_innerShadow" result="effect2_innerShadow" />
            </filter>
            <filter id="filter8_d" x="5.75137" y="7.47571" width="54.9871" height="47.9443" filterUnits="userSpaceOnUse"
              color-interpolation-filters="sRGB">
              <feFlood flood-opacity="0" result="BackgroundImageFix" />
              <feColorMatrix in="SourceAlpha" type="matrix" values="0 0 0 0 0 0 0 0 0 0 0 0 0 0 0 0 0 0 127 0" />
              <feOffset dy="1" />
              <feGaussianBlur stdDeviation="2" />
              <feColorMatrix type="matrix" values="0 0 0 0 0 0 0 0 0 0 0 0 0 0 0 0 0 0 0.25 0" />
              <feBlend mode="normal" in2="BackgroundImageFix" result="effect1_dropShadow" />
              <feBlend mode="normal" in="SourceGraphic" in2="effect1_dropShadow" result="shape" />
            </filter>
            <filter id="filter9_d" x="15.4543" y="10.1914" width="62.1267" height="46.8694" filterUnits="userSpaceOnUse"
              color-interpolation-filters="sRGB">
              <feFlood flood-opacity="0" result="BackgroundImageFix" />
              <feColorMatrix in="SourceAlpha" type="matrix" values="0 0 0 0 0 0 0 0 0 0 0 0 0 0 0 0 0 0 127 0" />
              <feOffset dy="1" />
              <feGaussianBlur stdDeviation="2" />
              <feColorMatrix type="matrix" values="0 0 0 0 0 0 0 0 0 0 0 0 0 0 0 0 0 0 0.25 0" />
              <feBlend mode="normal" in2="BackgroundImageFix" result="effect1_dropShadow" />
              <feBlend mode="normal" in="SourceGraphic" in2="effect1_dropShadow" result="shape" />
            </filter>
            <filter id="filter10_d" x="57.4879" y="19.6875" width="67.0149" height="38.5637"
              filterUnits="userSpaceOnUse" color-interpolation-filters="sRGB">
              <feFlood flood-opacity="0" result="BackgroundImageFix" />
              <feColorMatrix in="SourceAlpha" type="matrix" values="0 0 0 0 0 0 0 0 0 0 0 0 0 0 0 0 0 0 127 0" />
              <feOffset dy="1" />
              <feGaussianBlur stdDeviation="2" />
              <feColorMatrix type="matrix" values="0 0 0 0 0 0 0 0 0 0 0 0 0 0 0 0 0 0 0.25 0" />
              <feBlend mode="normal" in2="BackgroundImageFix" result="effect1_dropShadow" />
              <feBlend mode="normal" in="SourceGraphic" in2="effect1_dropShadow" result="shape" />
            </filter>
            <filter id="filter11_d" x="105.031" y="13.1758" width="62.1267" height="46.8694"
              filterUnits="userSpaceOnUse" color-interpolation-filters="sRGB">
              <feFlood flood-opacity="0" result="BackgroundImageFix" />
              <feColorMatrix in="SourceAlpha" type="matrix" values="0 0 0 0 0 0 0 0 0 0 0 0 0 0 0 0 0 0 127 0" />
              <feOffset dy="1" />
              <feGaussianBlur stdDeviation="2" />
              <feColorMatrix type="matrix" values="0 0 0 0 0 0 0 0 0 0 0 0 0 0 0 0 0 0 0.25 0" />
              <feBlend mode="normal" in2="BackgroundImageFix" result="effect1_dropShadow" />
              <feBlend mode="normal" in="SourceGraphic" in2="effect1_dropShadow" result="shape" />
            </filter>
            <filter id="filter12_d" x="144.244" y="17.0039" width="64.4828" height="39.38" filterUnits="userSpaceOnUse"
              color-interpolation-filters="sRGB">
              <feFlood flood-opacity="0" result="BackgroundImageFix" />
              <feColorMatrix in="SourceAlpha" type="matrix" values="0 0 0 0 0 0 0 0 0 0 0 0 0 0 0 0 0 0 127 0" />
              <feOffset dy="1" />
              <feGaussianBlur stdDeviation="2" />
              <feColorMatrix type="matrix" values="0 0 0 0 0 0 0 0 0 0 0 0 0 0 0 0 0 0 0.25 0" />
              <feBlend mode="normal" in2="BackgroundImageFix" result="effect1_dropShadow" />
              <feBlend mode="normal" in="SourceGraphic" in2="effect1_dropShadow" result="shape" />
            </filter>
            <linearGradient id="paint0_linear" x1="16.1655" y1="0" x2="16.1655" y2="32.3309"
              gradientUnits="userSpaceOnUse">
              <stop stop-color="#750000" />
              <stop offset="1" stop-color="#FF0000" stop-opacity="0" />
            </linearGradient>
            <linearGradient id="paint1_linear" x1="16.1655" y1="0" x2="16.1655" y2="32.3309"
              gradientUnits="userSpaceOnUse">
              <stop stop-color="#750000" />
              <stop offset="1" stop-color="#FF0000" stop-opacity="0" />
            </linearGradient>
            <linearGradient id="paint2_linear" x1="16.1655" y1="0" x2="16.1655" y2="32.3309"
              gradientUnits="userSpaceOnUse">
              <stop stop-color="#750000" />
              <stop offset="1" stop-color="#FF0000" stop-opacity="0" />
            </linearGradient>
            <linearGradient id="paint3_linear" x1="16.1655" y1="0" x2="16.1655" y2="32.3309"
              gradientUnits="userSpaceOnUse">
              <stop stop-color="#750000" />
              <stop offset="1" stop-color="#FF0000" stop-opacity="0" />
            </linearGradient>
            <linearGradient id="paint4_linear" x1="16.1655" y1="0" x2="16.1655" y2="32.3309"
              gradientUnits="userSpaceOnUse">
              <stop stop-color="#750000" />
              <stop offset="1" stop-color="#FF0000" stop-opacity="0" />
            </linearGradient>
            <linearGradient id="paint5_linear" x1="14.7773" y1="0" x2="14.7773" y2="29.5545"
              gradientUnits="userSpaceOnUse">
              <stop stop-color="#6A003B" />
              <stop offset="1" stop-color="#FF008D" stop-opacity="0" />
            </linearGradient>
            <linearGradient id="paint6_linear" x1="14.7773" y1="0" x2="14.7773" y2="29.5545"
              gradientUnits="userSpaceOnUse">
              <stop stop-color="#6A003B" />
              <stop offset="1" stop-color="#FF008D" stop-opacity="0" />
            </linearGradient>
            <linearGradient id="paint7_linear" x1="14.7773" y1="0" x2="14.7773" y2="29.5545"
              gradientUnits="userSpaceOnUse">
              <stop stop-color="#6A003B" />
              <stop offset="1" stop-color="#FF008D" stop-opacity="0" />
            </linearGradient>
            <linearGradient id="paint8_linear" x1="14.7773" y1="0" x2="14.7773" y2="29.5545"
              gradientUnits="userSpaceOnUse">
              <stop stop-color="#6A003B" />
              <stop offset="1" stop-color="#FF008D" stop-opacity="0" />
            </linearGradient>
            <linearGradient id="paint9_linear" x1="14.7773" y1="0" x2="14.7773" y2="29.5545"
              gradientUnits="userSpaceOnUse">
              <stop stop-color="#6A003B" />
              <stop offset="1" stop-color="#FF008D" stop-opacity="0" />
            </linearGradient>
          </defs>
        </svg>
