<svg class="sandwitch" viewBox="0 0 205 79" preserveAspectRatio="none" fill="none" xmlns="http://www.w3.org/2000/svg">
<mask id="mask0" mask-type="alpha" maskUnits="userSpaceOnUse" x="0" y="0" width="205" height="79">
<rect width="205" height="79" fill="#C4C4C4"/>
</mask>
<g mask="url(#mask0)">
<path d="M194.198 67.3333H7.89188L12.8468 39.5856H193.207L194.198 67.3333Z" fill="#EF8B2D"/>
<path d="M7.89188 67.3333H194.198V77.2252C194.198 78.3298 193.303 79.2252 192.198 79.2252H9.89188C8.78731 79.2252 7.89188 78.3298 7.89188 77.2252V67.3333Z" fill="#F7AA66"/>
<rect x="33.6577" y="69.3153" width="158.559" height="7.92793" rx="2" fill="#F9BD74"/>
<g filter="url(#filter0_d)">
<path fill-rule="evenodd" clip-rule="evenodd" d="M55.2557 41.4639C57.6286 43.8263 60.3468 45.9323 61.6008 48.5686C63.0095 51.5301 64.5982 54.6131 62.9003 57.535C61.0582 60.7052 56.7153 63.09 52.0208 65.0549C46.5887 67.3287 40.4171 70.7773 34.0534 69.6095C27.5349 68.4133 27.4278 63.0291 23.4676 59.8152C20.4346 57.3537 15.7175 55.8127 13.6354 53.0392C11.0196 49.5546 8.20276 45.7349 10.1643 42.0937C12.2508 38.2205 17.9798 35.2822 24.2132 33.4036C30.4802 31.5148 38.2399 30.0327 44.6556 31.6986C50.8794 33.3146 51.8337 38.0571 55.2557 41.4639Z" fill="#8FBC3B"/>
<path d="M54.726 41.6413C55.2987 42.2115 55.8839 42.7608 56.4597 43.3014C58.3155 45.0436 60.0745 46.695 61.0103 48.6622C61.0556 48.7575 61.1011 48.8529 61.1465 48.9481C62.5273 51.8443 63.8946 54.7124 62.3197 57.4226C60.5396 60.486 56.3257 62.8164 51.6614 64.7687C50.8031 65.128 49.9401 65.5099 49.0692 65.8952C47.1247 66.7556 45.1408 67.6335 43.0815 68.3162C40.121 69.2977 37.1779 69.8119 34.2389 69.2726C31.2646 68.7268 29.6983 67.2236 28.3684 65.3358C28.0387 64.8678 27.7278 64.3829 27.4134 63.8892C27.39 63.8524 27.3666 63.8156 27.3431 63.7788C27.0526 63.3223 26.7576 62.8589 26.4451 62.4031C25.7704 61.419 24.9996 60.4486 23.9666 59.6103C22.6948 58.5781 21.1294 57.7004 19.6237 56.8561C19.2867 56.6672 18.9528 56.4799 18.6258 56.293C16.8154 55.2581 15.1888 54.2193 14.1973 52.8986C12.8863 51.1522 11.5497 49.3529 10.778 47.5408C10.008 45.7326 9.81249 43.9372 10.749 42.1987C12.768 38.4509 18.3384 35.573 24.4966 33.717C30.7509 31.832 38.2722 30.4287 44.4044 32.021C47.3078 32.7749 49.0224 34.2649 50.4499 36.0574C50.982 36.7255 51.4641 37.4216 51.9543 38.1297C52.1224 38.3723 52.2914 38.6164 52.4637 38.8612C53.1335 39.8128 53.8479 40.7671 54.726 41.6413Z" stroke="#6F9F28"/>
</g>
<g filter="url(#filter1_d)">
<path fill-rule="evenodd" clip-rule="evenodd" d="M98.3777 43.5513C103.282 45.4069 107.075 48.181 108.884 51.391C110.892 54.9538 111.304 58.8543 108.945 62.3005C106.457 65.9341 102.072 69.5028 95.6416 70.7314C89.4364 71.917 83.1829 69.3045 76.7559 68.4509C70.8617 67.6681 64.0143 68.3494 59.5904 65.9433C55.1331 63.5189 55.2594 59.5848 54.1072 56.1323C52.9198 52.5744 49.8223 48.7255 52.7934 45.5768C55.7524 42.4407 62.6603 41.36 68.738 40.6262C73.7509 40.021 78.5844 41.3484 83.6646 41.8497C88.7162 42.3483 94.0693 41.9213 98.3777 43.5513Z" fill="#8FBC3B"/>
<path d="M98.0421 43.847C102.836 45.6609 106.538 48.3708 108.302 51.5004C110.28 55.0101 110.668 58.8222 108.375 62.1705C105.914 65.7654 101.625 69.2157 95.4492 70.3958C92.5412 70.9514 89.5863 70.6259 86.4776 70.0209C85.3713 69.8055 84.2677 69.5596 83.1455 69.3095C82.688 69.2076 82.2273 69.1049 81.7622 69.0034C80.1694 68.6557 78.5419 68.3253 76.8932 68.1064C75.3788 67.9052 73.8127 67.7994 72.2667 67.7152C71.825 67.6912 71.3865 67.669 70.951 67.6469C69.8491 67.5911 68.7668 67.5363 67.7017 67.4553C64.738 67.2299 62.0794 66.8113 60.0103 65.686C57.91 64.5436 56.8647 63.0337 56.2068 61.3457C55.878 60.5019 55.6493 59.6233 55.4295 58.7311C55.4032 58.6242 55.3769 58.5171 55.3507 58.4098C55.1589 57.626 54.965 56.834 54.7085 56.0654C54.4242 55.2134 54.0325 54.3465 53.6453 53.4897C53.6221 53.4383 53.5989 53.387 53.5758 53.3356C53.1643 52.424 52.7648 51.524 52.4939 50.6396C51.9516 48.8687 51.9441 47.2159 53.3311 45.7459C54.7252 44.2684 57.0645 43.2575 59.8508 42.5222C62.6409 41.7858 65.8298 41.3385 68.8633 40.9723C71.2427 40.685 73.603 40.8531 76.0424 41.168C76.9902 41.2904 77.9369 41.433 78.9001 41.5781C79.1789 41.6201 79.4591 41.6623 79.7411 41.7043C80.99 41.8902 82.265 42.0703 83.5614 42.1982C84.8541 42.3258 86.1596 42.3935 87.4429 42.4493C87.7485 42.4625 88.0522 42.4751 88.3542 42.4876C89.329 42.5279 90.2861 42.5675 91.2329 42.6277C93.7067 42.7848 96.0079 43.0775 98.0421 43.847Z" stroke="#6F9F28"/>
</g>
<g filter="url(#filter2_d)">
<path fill-rule="evenodd" clip-rule="evenodd" d="M144.832 44.4484C147.205 46.8108 149.923 48.9168 151.177 51.5531C152.586 54.5146 154.175 57.5975 152.477 60.5195C150.635 63.6897 146.292 66.0744 141.597 68.0394C136.165 70.3131 129.993 73.7617 123.63 72.5939C117.111 71.3978 117.004 66.0136 113.044 62.7997C110.011 60.3382 105.294 58.7971 103.212 56.0236C100.596 52.5391 97.7791 48.7194 99.7406 45.0782C101.827 41.205 107.556 38.2667 113.79 36.388C120.057 34.4993 127.816 33.0171 134.232 34.683C140.456 36.2991 141.41 41.0415 144.832 44.4484Z" fill="#8FBC3B"/>
<path d="M144.302 44.6257C144.875 45.196 145.46 45.7453 146.036 46.2858C147.892 48.0281 149.651 49.6794 150.587 51.6467C150.632 51.742 150.677 51.8373 150.723 51.9326C152.104 54.8288 153.471 57.6968 151.896 60.407C150.116 63.4705 145.902 65.8009 141.238 67.7532C140.379 68.1125 139.516 68.4943 138.646 68.8797C136.701 69.7401 134.717 70.6179 132.658 71.3007C129.697 72.2822 126.754 72.7963 123.815 72.257C120.841 71.7112 119.275 70.2081 117.945 68.3203C117.615 67.8522 117.304 67.3674 116.99 66.8736C116.966 66.8369 116.943 66.8001 116.919 66.7632C116.629 66.3068 116.334 65.8434 116.021 65.3876C115.347 64.4035 114.576 63.4331 113.543 62.5948C112.271 61.5626 110.706 60.6849 109.2 59.8406C108.863 59.6517 108.529 59.4644 108.202 59.2775C106.392 58.2426 104.765 57.2038 103.774 55.8831C102.463 54.1367 101.126 52.3374 100.354 50.5253C99.5843 48.7171 99.3888 46.9217 100.325 45.1832C102.344 41.4353 107.915 38.5574 114.073 36.7014C120.327 34.8165 127.849 33.4132 133.981 35.0054C136.884 35.7593 138.599 37.2494 140.026 39.0418C140.558 39.71 141.04 40.4061 141.531 41.1141C141.699 41.3568 141.868 41.6008 142.04 41.8456C142.71 42.7972 143.424 43.7516 144.302 44.6257Z" stroke="#6F9F28"/>
</g>
<g filter="url(#filter3_d)">
<path fill-rule="evenodd" clip-rule="evenodd" d="M188.408 39.5637C193.34 42.1045 189.292 46.9207 190.2 50.708C191.085 54.3974 197.281 58.3294 193.65 61.4224C189.908 64.6106 180.83 62.5095 174.651 63.9546C169.357 65.1923 166.251 69.3835 160.565 69.1589C154.891 68.9348 151.873 65.2859 147.983 62.9011C144.232 60.6019 138.808 58.68 138.327 55.5272C137.851 52.4041 143.329 50.1987 145.611 47.3453C148.038 44.3095 147.073 39.9699 152.1 38.3065C157.11 36.6483 163.033 39.4772 168.784 39.6764C175.475 39.9081 183.417 36.9932 188.408 39.5637Z" fill="#8FBC3B"/>
<path d="M188 39.8275C190.23 40.976 190.483 42.6542 190.203 44.6397C190.123 45.2073 190.005 45.7687 189.886 46.3406C189.794 46.7821 189.7 47.2299 189.621 47.6916C189.445 48.7235 189.357 49.7677 189.594 50.7565C189.825 51.7222 190.401 52.6916 191.055 53.635C191.348 54.0576 191.648 54.4643 191.944 54.8651C192.327 55.3842 192.703 55.8935 193.046 56.4145C194.246 58.237 194.773 59.8359 193.143 61.2241C191.462 62.6566 188.565 62.9348 185.048 62.9888C184.384 62.999 183.689 63.0012 182.983 63.0034C181.881 63.0069 180.75 63.0105 179.667 63.0446C177.861 63.1015 176.057 63.2442 174.421 63.6269C173.008 63.9572 171.763 64.4793 170.615 65.0545C169.854 65.4357 169.11 65.8543 168.388 66.261C168.031 66.4617 167.68 66.6594 167.334 66.8484C165.181 68.025 163.159 68.907 160.607 68.8062C158.009 68.7036 155.974 67.8187 154.058 66.6024C153.145 66.0223 152.279 65.3802 151.398 64.7274C151.357 64.697 151.316 64.6666 151.275 64.6362C150.359 63.9569 149.424 63.2688 148.429 62.6587C147.486 62.081 146.443 61.5284 145.417 60.985L145.374 60.9618C144.327 60.4076 143.3 59.8622 142.376 59.2926C140.527 58.1527 139.16 56.9561 138.937 55.4962C138.72 54.0679 139.854 52.8259 141.434 51.5396C141.881 51.1762 142.333 50.8313 142.794 50.4801C143.17 50.1941 143.551 49.904 143.938 49.5962C144.773 48.9328 145.571 48.238 146.167 47.4935C146.801 46.6998 147.207 45.8301 147.54 44.9625C147.688 44.5762 147.818 44.2007 147.946 43.8306C148.114 43.3462 148.279 42.871 148.476 42.3932C149.161 40.7347 150.128 39.3665 152.404 38.6132C154.664 37.8653 157.167 38.1095 159.977 38.6315C160.667 38.7597 161.365 38.9024 162.077 39.0478L162.095 39.0515C162.809 39.1975 163.537 39.3462 164.268 39.4817C165.729 39.7524 167.234 39.9769 168.747 40.0293C170.498 40.0899 172.309 39.9443 174.09 39.7419C174.938 39.6455 175.788 39.535 176.624 39.4263L176.752 39.4097C177.633 39.2953 178.498 39.1836 179.348 39.0903C182.782 38.7132 185.741 38.664 188 39.8275Z" stroke="#6F9F28"/>
</g>
<g filter="url(#filter4_ii)">
<rect width="57.5551" height="32.3649" transform="matrix(0.866044 0.499967 -0.866044 0.499967 142.948 19.7658)" fill="#FCD030"/>
</g>
<g filter="url(#filter5_ii)">
<rect width="57.5551" height="32.3649" transform="matrix(0.866044 -0.499967 0.866044 0.499967 91.1351 48.5415)" fill="#FCD030"/>
</g>
<g filter="url(#filter6_ii)">
<rect width="57.5551" height="32.3649" transform="matrix(0.866044 -0.499967 0.866044 0.499967 53.4775 46.5595)" fill="#FCD030"/>
</g>
<g filter="url(#filter7_ii)">
<rect width="57.5551" height="32.3649" transform="matrix(0.866044 -0.499967 0.866044 0.499967 11.8559 46.5595)" fill="#FCD030"/>
</g>
<circle r="15.1655" transform="matrix(0.866044 0.499967 -0.866044 0.499967 37 43.1644)" fill="#EF7A5F"/>
<circle r="15.1655" transform="matrix(0.866044 0.499967 -0.866044 0.499967 37 43.1644)" stroke="#B41310" stroke-width="2"/>
<circle r="15.1655" transform="matrix(0.866044 0.499967 -0.866044 0.499967 37 43.1644)" stroke="url(#paint0_linear)" stroke-width="2"/>
<circle r="11.5468" transform="matrix(0.866044 0.499967 -0.866044 0.499967 37 43.1644)" fill="#D35234"/>
<ellipse rx="5.08057" ry="10.623" transform="matrix(0.866044 0.499967 -0.866044 0.499967 37 43.1644)" fill="#EF7A5F"/>
<circle r="15.1655" transform="matrix(0.866044 0.499967 -0.866044 0.499967 69 43.1644)" fill="#EF7A5F"/>
<circle r="15.1655" transform="matrix(0.866044 0.499967 -0.866044 0.499967 69 43.1644)" stroke="#B41310" stroke-width="2"/>
<circle r="15.1655" transform="matrix(0.866044 0.499967 -0.866044 0.499967 69 43.1644)" stroke="url(#paint1_linear)" stroke-width="2"/>
<circle r="11.5468" transform="matrix(0.866044 0.499967 -0.866044 0.499967 69 43.1644)" fill="#D35234"/>
<ellipse rx="5.08057" ry="10.623" transform="matrix(0.866044 0.499967 -0.866044 0.499967 69 43.1644)" fill="#EF7A5F"/>
<circle r="15.1655" transform="matrix(0.866044 0.499967 -0.866044 0.499967 103 43.1644)" fill="#EF7A5F"/>
<circle r="15.1655" transform="matrix(0.866044 0.499967 -0.866044 0.499967 103 43.1644)" stroke="#B41310" stroke-width="2"/>
<circle r="15.1655" transform="matrix(0.866044 0.499967 -0.866044 0.499967 103 43.1644)" stroke="url(#paint2_linear)" stroke-width="2"/>
<circle r="11.5468" transform="matrix(0.866044 0.499967 -0.866044 0.499967 103 43.1644)" fill="#D35234"/>
<ellipse rx="5.08057" ry="10.623" transform="matrix(0.866044 0.499967 -0.866044 0.499967 103 43.1644)" fill="#EF7A5F"/>
<circle r="15.1655" transform="matrix(0.866044 0.499967 -0.866044 0.499967 136 43.1644)" fill="#EF7A5F"/>
<circle r="15.1655" transform="matrix(0.866044 0.499967 -0.866044 0.499967 136 43.1644)" stroke="#B41310" stroke-width="2"/>
<circle r="15.1655" transform="matrix(0.866044 0.499967 -0.866044 0.499967 136 43.1644)" stroke="url(#paint3_linear)" stroke-width="2"/>
<circle r="11.5468" transform="matrix(0.866044 0.499967 -0.866044 0.499967 136 43.1644)" fill="#D35234"/>
<ellipse rx="5.08057" ry="10.623" transform="matrix(0.866044 0.499967 -0.866044 0.499967 136 43.1644)" fill="#EF7A5F"/>
<circle r="15.1655" transform="matrix(0.866044 0.499967 -0.866044 0.499967 169 43.1644)" fill="#EF7A5F"/>
<circle r="15.1655" transform="matrix(0.866044 0.499967 -0.866044 0.499967 169 43.1644)" stroke="#B41310" stroke-width="2"/>
<circle r="15.1655" transform="matrix(0.866044 0.499967 -0.866044 0.499967 169 43.1644)" stroke="url(#paint4_linear)" stroke-width="2"/>
<circle r="11.5468" transform="matrix(0.866044 0.499967 -0.866044 0.499967 169 43.1644)" fill="#D35234"/>
<ellipse rx="5.08057" ry="10.623" transform="matrix(0.866044 0.499967 -0.866044 0.499967 169 43.1644)" fill="#EF7A5F"/>
<circle r="13.7773" transform="matrix(0.866044 0.499967 -0.866044 0.499967 164.404 38.7763)" fill="white"/>
<circle r="13.7773" transform="matrix(0.866044 0.499967 -0.866044 0.499967 164.404 38.7763)" stroke="#7C2053" stroke-width="2"/>
<circle r="13.7773" transform="matrix(0.866044 0.499967 -0.866044 0.499967 164.404 38.7763)" stroke="url(#paint5_linear)" stroke-width="2"/>
<circle r="9.49967" transform="matrix(0.866044 0.499967 -0.866044 0.499967 164.404 38.7763)" fill="#D4B3BD"/>
<circle r="13.7773" transform="matrix(0.866044 0.499967 -0.866044 0.499967 134.997 38.7763)" fill="white"/>
<circle r="13.7773" transform="matrix(0.866044 0.499967 -0.866044 0.499967 134.997 38.7763)" stroke="#7C2053" stroke-width="2"/>
<circle r="13.7773" transform="matrix(0.866044 0.499967 -0.866044 0.499967 134.997 38.7763)" stroke="url(#paint6_linear)" stroke-width="2"/>
<circle r="9.49967" transform="matrix(0.866044 0.499967 -0.866044 0.499967 134.997 38.7763)" fill="#D4B3BD"/>
<circle r="13.7773" transform="matrix(0.866044 0.499967 -0.866044 0.499967 104.5 38.7763)" fill="white"/>
<circle r="13.7773" transform="matrix(0.866044 0.499967 -0.866044 0.499967 104.5 38.7763)" stroke="#7C2053" stroke-width="2"/>
<circle r="13.7773" transform="matrix(0.866044 0.499967 -0.866044 0.499967 104.5 38.7763)" stroke="url(#paint7_linear)" stroke-width="2"/>
<circle r="9.49967" transform="matrix(0.866044 0.499967 -0.866044 0.499967 104.5 38.7763)" fill="#D4B3BD"/>
<circle r="13.7773" transform="matrix(0.866044 0.499967 -0.866044 0.499967 75.0924 38.7763)" fill="white"/>
<circle r="13.7773" transform="matrix(0.866044 0.499967 -0.866044 0.499967 75.0924 38.7763)" stroke="#7C2053" stroke-width="2"/>
<circle r="13.7773" transform="matrix(0.866044 0.499967 -0.866044 0.499967 75.0924 38.7763)" stroke="url(#paint8_linear)" stroke-width="2"/>
<circle r="9.49967" transform="matrix(0.866044 0.499967 -0.866044 0.499967 75.0924 38.7763)" fill="#D4B3BD"/>
<circle r="13.7773" transform="matrix(0.866044 0.499967 -0.866044 0.499967 44.5956 38.7763)" fill="white"/>
<circle r="13.7773" transform="matrix(0.866044 0.499967 -0.866044 0.499967 44.5956 38.7763)" stroke="#7C2053" stroke-width="2"/>
<circle r="13.7773" transform="matrix(0.866044 0.499967 -0.866044 0.499967 44.5956 38.7763)" stroke="url(#paint9_linear)" stroke-width="2"/>
<circle r="9.49967" transform="matrix(0.866044 0.499967 -0.866044 0.499967 44.5956 38.7763)" fill="#D4B3BD"/>
<g filter="url(#filter8_d)">
<path fill-rule="evenodd" clip-rule="evenodd" d="M23.5468 43.8088C20.2119 44.1081 16.8514 44.8366 14.0258 44.1027C10.8516 43.2782 7.46877 42.5135 6.32182 39.3347C5.0774 35.8858 6.04206 31.026 7.55433 26.1668C9.30423 20.544 10.6295 13.5996 15.6145 9.47531C20.7208 5.25076 24.9142 8.62955 29.9218 7.6617C33.757 6.92045 37.9696 4.29747 41.4325 4.4853C45.7833 4.72127 50.52 5.01869 52.0484 8.86181C53.6743 12.9498 52.2427 19.2272 49.6751 25.2098C47.0937 31.2247 43.2412 38.1217 37.8411 41.9657C32.6026 45.6946 28.3563 43.3772 23.5468 43.8088Z" fill="#8FBC3B"/>
<path d="M23.7515 43.289C22.9465 43.3612 22.1496 43.4564 21.3654 43.55C18.8378 43.8518 16.4422 44.1378 14.3337 43.5901C14.2315 43.5636 14.1293 43.5371 14.0271 43.5107C10.9209 42.7068 7.84498 41.9107 6.78114 38.9622C5.57863 35.6294 6.5021 30.9034 8.00465 26.0754C8.28114 25.187 8.54334 24.2804 8.80793 23.3656C9.3987 21.323 10.0015 19.2389 10.8021 17.2226C11.9532 14.3238 13.4511 11.7387 15.7534 9.83399C18.0833 7.90637 20.2416 7.67274 22.5426 7.86741C23.1131 7.91567 23.6843 7.98917 24.2647 8.06569C24.3079 8.07138 24.3511 8.07709 24.3944 8.08281C24.9308 8.15365 25.4754 8.22555 26.0255 8.27914C27.213 8.39481 28.4518 8.42815 29.758 8.17569C31.3662 7.86486 33.0448 7.2299 34.6594 6.61914C35.0207 6.48246 35.3788 6.347 35.7322 6.21665C37.6887 5.49503 39.53 4.91665 41.1791 5.00609C43.3596 5.12436 45.597 5.25705 47.4812 5.83068C49.3613 6.40305 50.8624 7.40734 51.5922 9.24228C53.1654 13.198 51.7895 19.315 49.2529 25.2255C46.6767 31.2282 42.9171 37.8919 37.7556 41.566C35.3119 43.3055 33.0683 43.6612 30.7776 43.6026C29.9238 43.5808 29.0806 43.5026 28.2231 43.423C27.9292 43.3958 27.6336 43.3683 27.3354 43.343C26.1759 43.2444 24.9856 43.1783 23.7515 43.289Z" stroke="#6F9F28"/>
</g>
<g filter="url(#filter9_d)">
<path fill-rule="evenodd" clip-rule="evenodd" d="M61.2016 17.6803C63.5745 20.0427 66.2926 22.1486 67.5466 24.7849C68.9554 27.7465 70.544 30.8294 68.8462 33.7513C67.004 36.9215 62.6611 39.3063 57.9667 41.2713C52.5346 43.545 46.363 46.9936 39.9992 45.8258C33.4808 44.6296 33.3736 39.2455 29.4134 36.0316C26.3804 33.5701 21.6633 32.029 19.5812 29.2555C16.9654 25.771 14.1486 21.9513 16.1101 18.3101C18.1966 14.4369 23.9256 11.4986 30.159 9.6199C36.426 7.73113 44.1858 6.24902 50.6015 7.9149C56.8252 9.53093 57.7795 14.2734 61.2016 17.6803Z" fill="#8FBC3B"/>
<path d="M60.6718 17.8576C61.2446 18.4278 61.8297 18.9772 62.4055 19.5177C64.2613 21.26 66.0204 22.9113 66.9561 24.8785C67.0015 24.9739 67.0469 25.0692 67.0923 25.1645C68.4731 28.0607 69.8404 30.9287 68.2656 33.6389C66.4854 36.7023 62.2715 39.0327 57.6072 40.9851C56.7489 41.3443 55.8859 41.7262 55.015 42.1116C53.0705 42.972 51.0866 43.8498 49.0273 44.5325C46.0669 45.5141 43.1237 46.0282 40.1847 45.4889C37.2104 44.9431 35.6442 43.4399 34.3143 41.5521C33.9845 41.0841 33.6737 40.5993 33.3592 40.1055C33.3358 40.0687 33.3124 40.0319 33.2889 39.9951C32.9984 39.5386 32.7035 39.0753 32.3909 38.6194C31.7162 37.6354 30.9455 36.665 29.9125 35.8266C28.6406 34.7945 27.0752 33.9167 25.5695 33.0725C25.2326 32.8835 24.8986 32.6963 24.5716 32.5093C22.7612 31.4744 21.1346 30.4357 20.1431 29.1149C18.8321 27.3685 17.4956 25.5693 16.7239 23.7571C15.9538 21.949 15.7583 20.1536 16.6949 18.4151C18.7139 14.6672 24.2842 11.7893 30.4424 9.9333C36.6967 8.04836 44.218 6.64505 50.3503 8.23732C53.2536 8.99119 54.9682 10.4812 56.3958 12.2737C56.9279 12.9418 57.4099 13.638 57.9002 14.346C58.0682 14.5887 58.2372 14.8327 58.4095 15.0775C59.0793 16.0291 59.7937 16.9834 60.6718 17.8576Z" stroke="#6F9F28"/>
</g>
<g filter="url(#filter10_d)">
<path fill-rule="evenodd" clip-rule="evenodd" d="M104.324 19.7677C109.228 21.6233 113.021 24.3973 114.83 27.6073C116.838 31.1701 117.25 35.0706 114.89 38.5168C112.403 42.1504 108.018 45.7191 101.587 46.9477C95.3823 48.1334 89.1287 45.5208 82.7017 44.6672C76.8075 43.8844 69.9601 44.5658 65.5362 42.1596C61.0789 39.7353 61.2052 35.8011 60.053 32.3486C58.8656 28.7908 55.7682 24.9419 58.7392 21.7931C61.6982 18.6571 68.6061 17.5763 74.6838 16.8425C79.6967 16.2374 84.5302 17.5647 89.6104 18.0661C94.6621 18.5646 100.015 18.1377 104.324 19.7677Z" fill="#8FBC3B"/>
<path d="M103.988 20.0634C108.782 21.8772 112.484 24.5872 114.247 27.7167C116.226 31.2264 116.614 35.0385 114.321 38.3868C111.86 41.9817 107.571 45.4321 101.395 46.6121C98.487 47.1678 95.5321 46.8423 92.4234 46.2372C91.3172 46.0219 90.2135 45.7759 89.0914 45.5259C88.6338 45.4239 88.1731 45.3213 87.708 45.2197C86.1152 44.872 84.4877 44.5417 82.839 44.3227C81.3246 44.1216 79.7586 44.0157 78.2126 43.9316C77.7709 43.9075 77.3323 43.8853 76.8968 43.8633C75.795 43.8075 74.7126 43.7527 73.6476 43.6717C70.6839 43.4463 68.0252 43.0277 65.9562 41.9023C63.8558 40.7599 62.8105 39.2501 62.1527 37.5621C61.8238 36.7182 61.5952 35.8396 61.3753 34.9474C61.349 34.8405 61.3228 34.7334 61.2965 34.6261C61.1047 33.8424 60.9109 33.0504 60.6543 32.2817C60.37 31.4298 59.9783 30.5628 59.5912 29.706C59.568 29.6546 59.5448 29.6033 59.5216 29.552C59.1101 28.6404 58.7106 27.7403 58.4397 26.8559C57.8974 25.0851 57.89 23.4322 59.277 21.9622C60.671 20.4847 63.0104 19.4738 65.7966 18.7385C68.5867 18.0021 71.7757 17.5548 74.8091 17.1886C77.1885 16.9013 79.5488 17.0694 81.9882 17.3844C82.936 17.5067 83.8827 17.6493 84.8459 17.7944C85.1248 17.8364 85.4049 17.8786 85.6869 17.9206C86.9359 18.1066 88.2109 18.2866 89.5072 18.4146C90.7999 18.5421 92.1054 18.6099 93.3887 18.6656C93.6943 18.6789 93.998 18.6914 94.3 18.7039C95.2748 18.7443 96.2319 18.7838 97.1787 18.844C99.6525 19.0011 101.954 19.2938 103.988 20.0634Z" stroke="#6F9F28"/>
</g>
<g filter="url(#filter11_d)">
<path fill-rule="evenodd" clip-rule="evenodd" d="M150.778 20.6647C153.151 23.0271 155.869 25.133 157.123 27.7693C158.532 30.7309 160.121 33.8138 158.423 36.7357C156.581 39.906 152.238 42.2907 147.543 44.2557C142.111 46.5294 135.939 49.978 129.576 48.8102C123.057 47.614 122.95 42.2299 118.99 39.016C115.957 36.5545 111.24 35.0134 109.158 32.2399C106.542 28.7554 103.725 24.9357 105.687 21.2945C107.773 17.4213 113.502 14.483 119.736 12.6043C126.002 10.7155 133.762 9.23343 140.178 10.8993C146.402 12.5153 147.356 17.2578 150.778 20.6647Z" fill="#8FBC3B"/>
<path d="M150.248 20.842C150.821 21.4122 151.406 21.9616 151.982 22.5021C153.838 24.2444 155.597 25.8957 156.533 27.8629C156.578 27.9583 156.623 28.0536 156.669 28.1489C158.05 31.0451 159.417 33.9131 157.842 36.6233C156.062 39.6867 151.848 42.0171 147.184 43.9695C146.325 44.3287 145.462 44.7106 144.592 45.096C142.647 45.9564 140.663 46.8342 138.604 47.517C135.643 48.4985 132.7 49.0126 129.761 48.4733C126.787 47.9275 125.221 46.4244 123.891 44.5365C123.561 44.0685 123.25 43.5837 122.936 43.0899C122.912 43.0531 122.889 43.0163 122.865 42.9795C122.575 42.523 122.28 42.0597 121.967 41.6038C121.293 40.6198 120.522 39.6494 119.489 38.811C118.217 37.7789 116.652 36.9011 115.146 36.0569C114.809 35.8679 114.475 35.6807 114.148 35.4937C112.338 34.4588 110.711 33.4201 109.72 32.0993C108.409 30.353 107.072 28.5537 106.3 26.7415C105.53 24.9334 105.335 23.138 106.271 21.3995C108.29 17.6516 113.861 14.7737 120.019 12.9177C126.273 11.0328 133.795 9.62945 139.927 11.2217C142.83 11.9756 144.545 13.4656 145.972 15.2581C146.504 15.9262 146.986 16.6224 147.477 17.3304C147.645 17.5731 147.814 17.8171 147.986 18.0619C148.656 19.0135 149.37 19.9678 150.248 20.842Z" stroke="#6F9F28"/>
</g>
<g filter="url(#filter12_d)">
<path fill-rule="evenodd" clip-rule="evenodd" d="M194.354 15.7801C199.286 18.3208 195.238 23.137 196.147 26.9243C197.031 30.6138 203.227 34.5458 199.596 37.6388C195.854 40.827 186.776 38.7259 180.597 40.1709C175.303 41.4087 172.197 45.5998 166.511 45.3752C160.837 45.1511 157.819 41.5023 153.929 39.1174C150.178 36.8183 144.754 34.8963 144.273 31.7435C143.797 28.6204 149.275 26.415 151.557 23.5616C153.984 20.5258 153.019 16.1862 158.046 14.5228C163.056 12.8646 168.98 15.6936 174.73 15.8927C181.421 16.1244 189.363 13.2095 194.354 15.7801Z" fill="#8FBC3B"/>
<path d="M193.946 16.0439C196.176 17.1923 196.43 18.8706 196.149 20.856C196.069 21.4236 195.951 21.985 195.832 22.5569C195.74 22.9984 195.646 23.4462 195.567 23.9079C195.391 24.9398 195.303 25.9841 195.54 26.9728C195.772 27.9385 196.347 28.908 197.001 29.8513C197.294 30.2739 197.594 30.6806 197.89 31.0815C198.273 31.6006 198.649 32.1098 198.992 32.6308C200.192 34.4533 200.719 36.0522 199.089 37.4404C197.408 38.8729 194.511 39.1511 190.994 39.2051C190.33 39.2153 189.635 39.2175 188.929 39.2198C187.827 39.2232 186.696 39.2268 185.613 39.261C183.807 39.3179 182.003 39.4605 180.367 39.8432C178.954 40.1735 177.709 40.6957 176.561 41.2709C175.8 41.6521 175.056 42.0706 174.334 42.4773C173.977 42.678 173.626 42.8758 173.28 43.0647C171.127 44.2414 169.105 45.1234 166.553 45.0225C163.955 44.9199 161.92 44.035 160.004 42.8188C159.091 42.2386 158.225 41.5965 157.344 40.9438C157.303 40.9134 157.262 40.883 157.221 40.8526C156.305 40.1732 155.37 39.4851 154.375 38.875C153.432 38.2974 152.389 37.7448 151.363 37.2014L151.32 37.1782C150.273 36.6239 149.246 36.0785 148.322 35.5089C146.473 34.3691 145.106 33.1724 144.883 31.7125C144.666 30.2842 145.8 29.0423 147.38 27.756C147.827 27.3925 148.279 27.0477 148.74 26.6964C149.116 26.4105 149.497 26.1203 149.884 25.8125C150.72 25.1491 151.517 24.4544 152.113 23.7098C152.747 22.9162 153.153 22.0464 153.486 21.1789C153.634 20.7926 153.764 20.4171 153.892 20.0469C154.06 19.5625 154.225 19.0874 154.422 18.6095C155.107 16.951 156.074 15.5828 158.35 14.8295C160.61 14.0816 163.113 14.3259 165.923 14.8478C166.613 14.9761 167.311 15.1187 168.023 15.2641L168.041 15.2678C168.755 15.4139 169.483 15.5626 170.214 15.6981C171.675 15.9687 173.18 16.1932 174.693 16.2456C176.444 16.3062 178.255 16.1606 180.036 15.9582C180.884 15.8618 181.734 15.7514 182.57 15.6427L182.698 15.626C183.579 15.5116 184.444 15.4 185.294 15.3066C188.728 14.9295 191.687 14.8803 193.946 16.0439Z" stroke="#6F9F28"/>
</g>
<path d="M7.89188 14.446C7.89188 6.43788 14.3837 -0.0539856 22.3919 -0.0539856H179.698C187.706 -0.0539856 194.198 6.43788 194.198 14.446V19.7658H7.89188V14.446Z" fill="#F28832"/>
<rect x="23.7477" y="-0.0539856" width="166.486" height="17.8378" rx="8.91892" fill="#F7A34D"/>
<path d="M159.613 13.8199H73.3443C69.2362 13.8199 64.3321 13.1798 61.0201 10.5166C56.9121 7.21328 71.2903 3.90997 77.4524 3.90997H139.073C155.505 3.90997 173.992 8.0391 173.992 10.5166C173.992 12.4986 164.406 13.5446 159.613 13.8199Z" fill="#F9B66F"/>
<path d="M137.446 1.92798C141.734 3.26362 151.598 7.53767 156.744 13.9487C161.89 20.3598 146.023 8.60618 137.446 1.92798Z" fill="#F29746"/>
<path d="M92.7787 1.92798C97.0673 3.26362 106.931 7.53767 112.077 13.9487C117.223 20.3598 101.356 8.60618 92.7787 1.92798Z" fill="#F29746"/>
<path d="M68.4149 1.92798C72.7034 3.26362 82.5669 7.53767 87.7131 13.9487C92.8594 20.3598 76.9919 8.60618 68.4149 1.92798Z" fill="#F29746"/>
<path d="M117.143 1.92798C121.431 3.26362 131.295 7.53767 136.441 13.9487C141.587 20.3598 125.72 8.60618 117.143 1.92798Z" fill="#F29746"/>
<path d="M7.89188 19.7658H194.198V29.6577C194.198 30.7623 193.303 31.6577 192.198 31.6577H9.89188C8.78731 31.6577 7.89188 30.7623 7.89188 29.6577V19.7658Z" fill="#F7AA66"/>
<rect x="63.3874" y="21.7478" width="128.829" height="7.92793" rx="2" fill="#F9BD74"/>
<g style="mix-blend-mode:hard-light" filter="url(#filter13_f)">
<rect x="12" y="32" width="178" height="35" fill="#20170A" fill-opacity="0.6"/>
</g>
</g>
<defs>
<filter id="filter0_d" x="5.50842" y="27.975" width="62.1267" height="46.8694" filterUnits="userSpaceOnUse" color-interpolation-filters="sRGB">
<feFlood flood-opacity="0" result="BackgroundImageFix"/>
<feColorMatrix in="SourceAlpha" type="matrix" values="0 0 0 0 0 0 0 0 0 0 0 0 0 0 0 0 0 0 127 0"/>
<feOffset dy="1"/>
<feGaussianBlur stdDeviation="2"/>
<feColorMatrix type="matrix" values="0 0 0 0 0 0 0 0 0 0 0 0 0 0 0 0 0 0 0.25 0"/>
<feBlend mode="normal" in2="BackgroundImageFix" result="effect1_dropShadow"/>
<feBlend mode="normal" in="SourceGraphic" in2="effect1_dropShadow" result="shape"/>
</filter>
<filter id="filter1_d" x="47.5421" y="37.4712" width="67.0149" height="38.5637" filterUnits="userSpaceOnUse" color-interpolation-filters="sRGB">
<feFlood flood-opacity="0" result="BackgroundImageFix"/>
<feColorMatrix in="SourceAlpha" type="matrix" values="0 0 0 0 0 0 0 0 0 0 0 0 0 0 0 0 0 0 127 0"/>
<feOffset dy="1"/>
<feGaussianBlur stdDeviation="2"/>
<feColorMatrix type="matrix" values="0 0 0 0 0 0 0 0 0 0 0 0 0 0 0 0 0 0 0.25 0"/>
<feBlend mode="normal" in2="BackgroundImageFix" result="effect1_dropShadow"/>
<feBlend mode="normal" in="SourceGraphic" in2="effect1_dropShadow" result="shape"/>
</filter>
<filter id="filter2_d" x="95.0848" y="30.9595" width="62.1267" height="46.8694" filterUnits="userSpaceOnUse" color-interpolation-filters="sRGB">
<feFlood flood-opacity="0" result="BackgroundImageFix"/>
<feColorMatrix in="SourceAlpha" type="matrix" values="0 0 0 0 0 0 0 0 0 0 0 0 0 0 0 0 0 0 127 0"/>
<feOffset dy="1"/>
<feGaussianBlur stdDeviation="2"/>
<feColorMatrix type="matrix" values="0 0 0 0 0 0 0 0 0 0 0 0 0 0 0 0 0 0 0.25 0"/>
<feBlend mode="normal" in2="BackgroundImageFix" result="effect1_dropShadow"/>
<feBlend mode="normal" in="SourceGraphic" in2="effect1_dropShadow" result="shape"/>
</filter>
<filter id="filter3_d" x="134.298" y="34.7876" width="64.4828" height="39.38" filterUnits="userSpaceOnUse" color-interpolation-filters="sRGB">
<feFlood flood-opacity="0" result="BackgroundImageFix"/>
<feColorMatrix in="SourceAlpha" type="matrix" values="0 0 0 0 0 0 0 0 0 0 0 0 0 0 0 0 0 0 127 0"/>
<feOffset dy="1"/>
<feGaussianBlur stdDeviation="2"/>
<feColorMatrix type="matrix" values="0 0 0 0 0 0 0 0 0 0 0 0 0 0 0 0 0 0 0.25 0"/>
<feBlend mode="normal" in2="BackgroundImageFix" result="effect1_dropShadow"/>
<feBlend mode="normal" in="SourceGraphic" in2="effect1_dropShadow" result="shape"/>
</filter>
<filter id="filter4_ii" x="113.919" y="19.7658" width="79.8747" height="44.9571" filterUnits="userSpaceOnUse" color-interpolation-filters="sRGB">
<feFlood flood-opacity="0" result="BackgroundImageFix"/>
<feBlend mode="normal" in="SourceGraphic" in2="BackgroundImageFix" result="shape"/>
<feColorMatrix in="SourceAlpha" type="matrix" values="0 0 0 0 0 0 0 0 0 0 0 0 0 0 0 0 0 0 127 0" result="hardAlpha"/>
<feOffset dx="1"/>
<feGaussianBlur stdDeviation="0.5"/>
<feComposite in2="hardAlpha" operator="arithmetic" k2="-1" k3="1"/>
<feColorMatrix type="matrix" values="0 0 0 0 0 0 0 0 0 0 0 0 0 0 0 0 0 0 0.25 0"/>
<feBlend mode="normal" in2="shape" result="effect1_innerShadow"/>
<feColorMatrix in="SourceAlpha" type="matrix" values="0 0 0 0 0 0 0 0 0 0 0 0 0 0 0 0 0 0 127 0" result="hardAlpha"/>
<feOffset dx="-1"/>
<feGaussianBlur stdDeviation="0.5"/>
<feComposite in2="hardAlpha" operator="arithmetic" k2="-1" k3="1"/>
<feColorMatrix type="matrix" values="0 0 0 0 1 0 0 0 0 1 0 0 0 0 1 0 0 0 0.25 0"/>
<feBlend mode="normal" in2="effect1_innerShadow" result="effect2_innerShadow"/>
</filter>
<filter id="filter5_ii" x="90.1351" y="18.7658" width="79.8747" height="46.9571" filterUnits="userSpaceOnUse" color-interpolation-filters="sRGB">
<feFlood flood-opacity="0" result="BackgroundImageFix"/>
<feBlend mode="normal" in="SourceGraphic" in2="BackgroundImageFix" result="shape"/>
<feColorMatrix in="SourceAlpha" type="matrix" values="0 0 0 0 0 0 0 0 0 0 0 0 0 0 0 0 0 0 127 0" result="hardAlpha"/>
<feOffset dx="1" dy="1"/>
<feGaussianBlur stdDeviation="0.5"/>
<feComposite in2="hardAlpha" operator="arithmetic" k2="-1" k3="1"/>
<feColorMatrix type="matrix" values="0 0 0 0 0 0 0 0 0 0 0 0 0 0 0 0 0 0 0.25 0"/>
<feBlend mode="normal" in2="shape" result="effect1_innerShadow"/>
<feColorMatrix in="SourceAlpha" type="matrix" values="0 0 0 0 0 0 0 0 0 0 0 0 0 0 0 0 0 0 127 0" result="hardAlpha"/>
<feOffset dx="-1" dy="-1"/>
<feGaussianBlur stdDeviation="0.5"/>
<feComposite in2="hardAlpha" operator="arithmetic" k2="-1" k3="1"/>
<feColorMatrix type="matrix" values="0 0 0 0 1 0 0 0 0 1 0 0 0 0 1 0 0 0 0.25 0"/>
<feBlend mode="normal" in2="effect1_innerShadow" result="effect2_innerShadow"/>
</filter>
<filter id="filter6_ii" x="52.4775" y="16.7839" width="79.8747" height="46.9571" filterUnits="userSpaceOnUse" color-interpolation-filters="sRGB">
<feFlood flood-opacity="0" result="BackgroundImageFix"/>
<feBlend mode="normal" in="SourceGraphic" in2="BackgroundImageFix" result="shape"/>
<feColorMatrix in="SourceAlpha" type="matrix" values="0 0 0 0 0 0 0 0 0 0 0 0 0 0 0 0 0 0 127 0" result="hardAlpha"/>
<feOffset dx="1" dy="1"/>
<feGaussianBlur stdDeviation="0.5"/>
<feComposite in2="hardAlpha" operator="arithmetic" k2="-1" k3="1"/>
<feColorMatrix type="matrix" values="0 0 0 0 0 0 0 0 0 0 0 0 0 0 0 0 0 0 0.25 0"/>
<feBlend mode="normal" in2="shape" result="effect1_innerShadow"/>
<feColorMatrix in="SourceAlpha" type="matrix" values="0 0 0 0 0 0 0 0 0 0 0 0 0 0 0 0 0 0 127 0" result="hardAlpha"/>
<feOffset dx="-1" dy="-1"/>
<feGaussianBlur stdDeviation="0.5"/>
<feComposite in2="hardAlpha" operator="arithmetic" k2="-1" k3="1"/>
<feColorMatrix type="matrix" values="0 0 0 0 1 0 0 0 0 1 0 0 0 0 1 0 0 0 0.25 0"/>
<feBlend mode="normal" in2="effect1_innerShadow" result="effect2_innerShadow"/>
</filter>
<filter id="filter7_ii" x="10.8559" y="16.7839" width="79.8747" height="46.9571" filterUnits="userSpaceOnUse" color-interpolation-filters="sRGB">
<feFlood flood-opacity="0" result="BackgroundImageFix"/>
<feBlend mode="normal" in="SourceGraphic" in2="BackgroundImageFix" result="shape"/>
<feColorMatrix in="SourceAlpha" type="matrix" values="0 0 0 0 0 0 0 0 0 0 0 0 0 0 0 0 0 0 127 0" result="hardAlpha"/>
<feOffset dx="1" dy="1"/>
<feGaussianBlur stdDeviation="0.5"/>
<feComposite in2="hardAlpha" operator="arithmetic" k2="-1" k3="1"/>
<feColorMatrix type="matrix" values="0 0 0 0 0 0 0 0 0 0 0 0 0 0 0 0 0 0 0.25 0"/>
<feBlend mode="normal" in2="shape" result="effect1_innerShadow"/>
<feColorMatrix in="SourceAlpha" type="matrix" values="0 0 0 0 0 0 0 0 0 0 0 0 0 0 0 0 0 0 127 0" result="hardAlpha"/>
<feOffset dx="-1" dy="-1"/>
<feGaussianBlur stdDeviation="0.5"/>
<feComposite in2="hardAlpha" operator="arithmetic" k2="-1" k3="1"/>
<feColorMatrix type="matrix" values="0 0 0 0 1 0 0 0 0 1 0 0 0 0 1 0 0 0 0.25 0"/>
<feBlend mode="normal" in2="effect1_innerShadow" result="effect2_innerShadow"/>
</filter>
<filter id="filter8_d" x="1.75137" y="1.47571" width="54.9871" height="47.9443" filterUnits="userSpaceOnUse" color-interpolation-filters="sRGB">
<feFlood flood-opacity="0" result="BackgroundImageFix"/>
<feColorMatrix in="SourceAlpha" type="matrix" values="0 0 0 0 0 0 0 0 0 0 0 0 0 0 0 0 0 0 127 0"/>
<feOffset dy="1"/>
<feGaussianBlur stdDeviation="2"/>
<feColorMatrix type="matrix" values="0 0 0 0 0 0 0 0 0 0 0 0 0 0 0 0 0 0 0.25 0"/>
<feBlend mode="normal" in2="BackgroundImageFix" result="effect1_dropShadow"/>
<feBlend mode="normal" in="SourceGraphic" in2="effect1_dropShadow" result="shape"/>
</filter>
<filter id="filter9_d" x="11.4543" y="4.19138" width="62.1267" height="46.8694" filterUnits="userSpaceOnUse" color-interpolation-filters="sRGB">
<feFlood flood-opacity="0" result="BackgroundImageFix"/>
<feColorMatrix in="SourceAlpha" type="matrix" values="0 0 0 0 0 0 0 0 0 0 0 0 0 0 0 0 0 0 127 0"/>
<feOffset dy="1"/>
<feGaussianBlur stdDeviation="2"/>
<feColorMatrix type="matrix" values="0 0 0 0 0 0 0 0 0 0 0 0 0 0 0 0 0 0 0.25 0"/>
<feBlend mode="normal" in2="BackgroundImageFix" result="effect1_dropShadow"/>
<feBlend mode="normal" in="SourceGraphic" in2="effect1_dropShadow" result="shape"/>
</filter>
<filter id="filter10_d" x="53.4879" y="13.6875" width="67.0149" height="38.5637" filterUnits="userSpaceOnUse" color-interpolation-filters="sRGB">
<feFlood flood-opacity="0" result="BackgroundImageFix"/>
<feColorMatrix in="SourceAlpha" type="matrix" values="0 0 0 0 0 0 0 0 0 0 0 0 0 0 0 0 0 0 127 0"/>
<feOffset dy="1"/>
<feGaussianBlur stdDeviation="2"/>
<feColorMatrix type="matrix" values="0 0 0 0 0 0 0 0 0 0 0 0 0 0 0 0 0 0 0.25 0"/>
<feBlend mode="normal" in2="BackgroundImageFix" result="effect1_dropShadow"/>
<feBlend mode="normal" in="SourceGraphic" in2="effect1_dropShadow" result="shape"/>
</filter>
<filter id="filter11_d" x="101.031" y="7.17578" width="62.1267" height="46.8694" filterUnits="userSpaceOnUse" color-interpolation-filters="sRGB">
<feFlood flood-opacity="0" result="BackgroundImageFix"/>
<feColorMatrix in="SourceAlpha" type="matrix" values="0 0 0 0 0 0 0 0 0 0 0 0 0 0 0 0 0 0 127 0"/>
<feOffset dy="1"/>
<feGaussianBlur stdDeviation="2"/>
<feColorMatrix type="matrix" values="0 0 0 0 0 0 0 0 0 0 0 0 0 0 0 0 0 0 0.25 0"/>
<feBlend mode="normal" in2="BackgroundImageFix" result="effect1_dropShadow"/>
<feBlend mode="normal" in="SourceGraphic" in2="effect1_dropShadow" result="shape"/>
</filter>
<filter id="filter12_d" x="140.244" y="11.0039" width="64.4828" height="39.38" filterUnits="userSpaceOnUse" color-interpolation-filters="sRGB">
<feFlood flood-opacity="0" result="BackgroundImageFix"/>
<feColorMatrix in="SourceAlpha" type="matrix" values="0 0 0 0 0 0 0 0 0 0 0 0 0 0 0 0 0 0 127 0"/>
<feOffset dy="1"/>
<feGaussianBlur stdDeviation="2"/>
<feColorMatrix type="matrix" values="0 0 0 0 0 0 0 0 0 0 0 0 0 0 0 0 0 0 0.25 0"/>
<feBlend mode="normal" in2="BackgroundImageFix" result="effect1_dropShadow"/>
<feBlend mode="normal" in="SourceGraphic" in2="effect1_dropShadow" result="shape"/>
</filter>
<filter id="filter13_f" x="2" y="22" width="198" height="55" filterUnits="userSpaceOnUse" color-interpolation-filters="sRGB">
<feFlood flood-opacity="0" result="BackgroundImageFix"/>
<feBlend mode="normal" in="SourceGraphic" in2="BackgroundImageFix" result="shape"/>
<feGaussianBlur stdDeviation="5" result="effect1_foregroundBlur"/>
</filter>
<linearGradient id="paint0_linear" x1="16.1655" y1="0" x2="16.1655" y2="32.3309" gradientUnits="userSpaceOnUse">
<stop stop-color="#750000"/>
<stop offset="1" stop-color="#FF0000" stop-opacity="0"/>
</linearGradient>
<linearGradient id="paint1_linear" x1="16.1655" y1="0" x2="16.1655" y2="32.3309" gradientUnits="userSpaceOnUse">
<stop stop-color="#750000"/>
<stop offset="1" stop-color="#FF0000" stop-opacity="0"/>
</linearGradient>
<linearGradient id="paint2_linear" x1="16.1655" y1="0" x2="16.1655" y2="32.3309" gradientUnits="userSpaceOnUse">
<stop stop-color="#750000"/>
<stop offset="1" stop-color="#FF0000" stop-opacity="0"/>
</linearGradient>
<linearGradient id="paint3_linear" x1="16.1655" y1="0" x2="16.1655" y2="32.3309" gradientUnits="userSpaceOnUse">
<stop stop-color="#750000"/>
<stop offset="1" stop-color="#FF0000" stop-opacity="0"/>
</linearGradient>
<linearGradient id="paint4_linear" x1="16.1655" y1="0" x2="16.1655" y2="32.3309" gradientUnits="userSpaceOnUse">
<stop stop-color="#750000"/>
<stop offset="1" stop-color="#FF0000" stop-opacity="0"/>
</linearGradient>
<linearGradient id="paint5_linear" x1="14.7773" y1="0" x2="14.7773" y2="29.5545" gradientUnits="userSpaceOnUse">
<stop stop-color="#6A003B"/>
<stop offset="1" stop-color="#FF008D" stop-opacity="0"/>
</linearGradient>
<linearGradient id="paint6_linear" x1="14.7773" y1="0" x2="14.7773" y2="29.5545" gradientUnits="userSpaceOnUse">
<stop stop-color="#6A003B"/>
<stop offset="1" stop-color="#FF008D" stop-opacity="0"/>
</linearGradient>
<linearGradient id="paint7_linear" x1="14.7773" y1="0" x2="14.7773" y2="29.5545" gradientUnits="userSpaceOnUse">
<stop stop-color="#6A003B"/>
<stop offset="1" stop-color="#FF008D" stop-opacity="0"/>
</linearGradient>
<linearGradient id="paint8_linear" x1="14.7773" y1="0" x2="14.7773" y2="29.5545" gradientUnits="userSpaceOnUse">
<stop stop-color="#6A003B"/>
<stop offset="1" stop-color="#FF008D" stop-opacity="0"/>
</linearGradient>
<linearGradient id="paint9_linear" x1="14.7773" y1="0" x2="14.7773" y2="29.5545" gradientUnits="userSpaceOnUse">
<stop stop-color="#6A003B"/>
<stop offset="1" stop-color="#FF008D" stop-opacity="0"/>
</linearGradient>
</defs>
</svg>
