<svg width="195" height="60" viewBox="0 0 195 60" fill="none" xmlns="http://www.w3.org/2000/svg">
<g filter="url(#filter0_ii)">
<path d="M158.225 35.863C158.588 34.415 162.153 29.803 166.145 25.614C170.138 21.425 175.347 17.998 176.226 18C177.043 18.001 181.862 21.5974 186.226 25.614C190.694 29.725 193.483 34.2763 194.069 35.863C195.226 39 193.226 48.999 193.226 48.999L190.726 59.841H164.389C164.57 59.654 162.193 54.776 160.226 48.999C157.797 41.867 157.776 37.651 158.225 35.863Z" fill="url(#paint0_linear)"/>
</g>
<g filter="url(#filter1_ii)">
<path d="M85.2777 30.2001C85.7261 28.4006 90.1298 22.6688 95.061 17.4627C99.9934 12.2566 106.429 7.99751 107.514 8C108.523 8.00123 114.476 12.4709 119.867 17.4627C125.385 22.5719 128.831 28.2281 129.555 30.2001C130.984 34.0988 128.514 46.5256 128.514 46.5256L125.426 60H92.8919C93.1155 59.7676 90.1799 53.7052 87.7501 46.5256C84.7496 37.6619 84.7231 32.4223 85.2777 30.2001Z" fill="url(#paint1_linear)"/>
</g>
<g filter="url(#filter2_ii)">
<path d="M0.320881 25.6155C0.839035 23.5391 5.92778 16.9255 11.626 10.9185C17.3257 4.91145 24.7619 -0.002868 26.0166 0C27.1827 0.00141733 34.0608 5.15869 40.2909 10.9185C46.6674 16.8137 50.6497 23.3402 51.4854 25.6155C53.1376 30.114 50.2828 44.4526 50.2828 44.4526L46.7142 60H9.11952C9.37788 59.7318 5.98563 52.7368 3.17789 44.4526C-0.289312 34.2253 -0.320031 28.1795 0.320881 25.6155Z" fill="url(#paint2_linear)"/>
</g>
<defs>
<filter id="filter0_ii" x="155" y="17" width="41.4293" height="45.841" filterUnits="userSpaceOnUse" color-interpolation-filters="sRGB">
<feFlood flood-opacity="0" result="BackgroundImageFix"/>
<feBlend mode="normal" in="SourceGraphic" in2="BackgroundImageFix" result="shape"/>
<feColorMatrix in="SourceAlpha" type="matrix" values="0 0 0 0 0 0 0 0 0 0 0 0 0 0 0 0 0 0 127 0" result="hardAlpha"/>
<feOffset dx="-3" dy="-1"/>
<feGaussianBlur stdDeviation="2"/>
<feComposite in2="hardAlpha" operator="arithmetic" k2="-1" k3="1"/>
<feColorMatrix type="matrix" values="0 0 0 0 0 0 0 0 0 0 0 0 0 0 0 0 0 0 0.25 0"/>
<feBlend mode="normal" in2="shape" result="effect1_innerShadow"/>
<feColorMatrix in="SourceAlpha" type="matrix" values="0 0 0 0 0 0 0 0 0 0 0 0 0 0 0 0 0 0 127 0" result="hardAlpha"/>
<feOffset dx="2" dy="3"/>
<feGaussianBlur stdDeviation="2"/>
<feComposite in2="hardAlpha" operator="arithmetic" k2="-1" k3="1"/>
<feColorMatrix type="matrix" values="0 0 0 0 1 0 0 0 0 1 0 0 0 0 1 0 0 0 0.25 0"/>
<feBlend mode="normal" in2="effect1_innerShadow" result="effect2_innerShadow"/>
</filter>
<filter id="filter1_ii" x="82" y="7" width="50" height="56" filterUnits="userSpaceOnUse" color-interpolation-filters="sRGB">
<feFlood flood-opacity="0" result="BackgroundImageFix"/>
<feBlend mode="normal" in="SourceGraphic" in2="BackgroundImageFix" result="shape"/>
<feColorMatrix in="SourceAlpha" type="matrix" values="0 0 0 0 0 0 0 0 0 0 0 0 0 0 0 0 0 0 127 0" result="hardAlpha"/>
<feOffset dx="-3" dy="-1"/>
<feGaussianBlur stdDeviation="2"/>
<feComposite in2="hardAlpha" operator="arithmetic" k2="-1" k3="1"/>
<feColorMatrix type="matrix" values="0 0 0 0 0 0 0 0 0 0 0 0 0 0 0 0 0 0 0.25 0"/>
<feBlend mode="normal" in2="shape" result="effect1_innerShadow"/>
<feColorMatrix in="SourceAlpha" type="matrix" values="0 0 0 0 0 0 0 0 0 0 0 0 0 0 0 0 0 0 127 0" result="hardAlpha"/>
<feOffset dx="2" dy="3"/>
<feGaussianBlur stdDeviation="2"/>
<feComposite in2="hardAlpha" operator="arithmetic" k2="-1" k3="1"/>
<feColorMatrix type="matrix" values="0 0 0 0 1 0 0 0 0 1 0 0 0 0 1 0 0 0 0.25 0"/>
<feBlend mode="normal" in2="effect1_innerShadow" result="effect2_innerShadow"/>
</filter>
<filter id="filter2_ii" x="-3" y="-1" width="57" height="64" filterUnits="userSpaceOnUse" color-interpolation-filters="sRGB">
<feFlood flood-opacity="0" result="BackgroundImageFix"/>
<feBlend mode="normal" in="SourceGraphic" in2="BackgroundImageFix" result="shape"/>
<feColorMatrix in="SourceAlpha" type="matrix" values="0 0 0 0 0 0 0 0 0 0 0 0 0 0 0 0 0 0 127 0" result="hardAlpha"/>
<feOffset dx="-3" dy="-1"/>
<feGaussianBlur stdDeviation="2"/>
<feComposite in2="hardAlpha" operator="arithmetic" k2="-1" k3="1"/>
<feColorMatrix type="matrix" values="0 0 0 0 0 0 0 0 0 0 0 0 0 0 0 0 0 0 0.25 0"/>
<feBlend mode="normal" in2="shape" result="effect1_innerShadow"/>
<feColorMatrix in="SourceAlpha" type="matrix" values="0 0 0 0 0 0 0 0 0 0 0 0 0 0 0 0 0 0 127 0" result="hardAlpha"/>
<feOffset dx="2" dy="3"/>
<feGaussianBlur stdDeviation="2"/>
<feComposite in2="hardAlpha" operator="arithmetic" k2="-1" k3="1"/>
<feColorMatrix type="matrix" values="0 0 0 0 1 0 0 0 0 1 0 0 0 0 1 0 0 0 0.25 0"/>
<feBlend mode="normal" in2="effect1_innerShadow" result="effect2_innerShadow"/>
</filter>
<linearGradient id="paint0_linear" x1="178.261" y1="24.9875" x2="164.603" y2="54.4596" gradientUnits="userSpaceOnUse">
<stop stop-color="#E8DD9E"/>
<stop offset="1" stop-color="#AC8A58"/>
</linearGradient>
<linearGradient id="paint1_linear" x1="110.028" y1="16.6841" x2="92.9866" y2="53.233" gradientUnits="userSpaceOnUse">
<stop stop-color="#E8DD9E"/>
<stop offset="1" stop-color="#AC8A58"/>
</linearGradient>
<linearGradient id="paint2_linear" x1="28.9212" y1="10.0201" x2="9.27683" y2="52.2142" gradientUnits="userSpaceOnUse">
<stop stop-color="#E8DD9E"/>
<stop offset="1" stop-color="#AC8A58"/>
</linearGradient>
</defs>
</svg>
