<svg class="topHair"  viewBox="0 0 237 101" fill="none" xmlns="http://www.w3.org/2000/svg">
			<style>
				.maskT{
				  animation: hairMT 1.5s .3s linear forwards;
				}
				@keyframes hairMT {
				  0%{
					d: path("M 230.511 97 C 230.511 96.333 230.027 96.25 230.995 96 C 232.448 96.333 233.247 96.667 232.932 97.083 C 232.648 97.459 232.488 97.845 230.511 98 C 229.361 97.694 230.511 97.667 230.511 97 Z");
				  }
				  20%{
					d: path("M 217.5 71 C 212.5 61.5 216 50 208.5 35.5 C 214 40.5 232.5 63.5 234 72 C 235.5 80.5 232.488 97.845 230.511 98 C 229.362 97.694 222.5 80.5 217.5 71 Z");
				  }
				  40%{
					d: path("M 177.5 40.5 C 159 33.176 132 23.5 115 27.5 C 128 15 166.5 -4.039 186 4 C 243 27.5 235.989 97.501 232.5 100.501 C 227.489 87.001 196 47.824 177.5 40.5 Z");
				  }
				  60%{
					d: path("M 172.5 44 C 137.5 36.5 64 60.5 42 44 C 78.5 49.63 121.5 0 167.5 0 C 255.141 0 235.989 97.501 232.5 100.501 C 227.489 87.001 207.5 51.5 172.5 44 Z");
				  }
				  80%{
					d: path("M 154.5 47.5 C 116 65.5 35 62.5 0 39 C 54 44 121.5 0 167.5 0 C 255.141 0 235.989 97.501 232.5 100.501 C 227.489 87.001 193 29.5 154.5 47.5 Z");
				  }
				  100%{
					d: path("M 154.5 47.5 C 116 65.5 35 62.5 0 39 C 54 44 121.5 0 167.5 0 C 255.141 0 235.989 97.501 232.5 100.501 C 227.489 87.001 193 29.5 154.5 47.5 Z");
				  }
				}
			</style>
<mask id="mask1" style="mask-type:alpha" maskUnits="userSpaceOnUse" x="0" y="-1" width="237" height="102">
          <path class="maskT" d="M 230.511 97 C 230.511 96.333 230.027 96.25 230.995 96 C 232.448 96.333 233.247 96.667 232.932 97.083 C 232.648 97.459 232.488 97.845 230.511 98 C 229.361 97.694 230.511 97.667 230.511 97 Z" fill="#C4C4C4"/>
          </mask>
          <g mask="url(#mask1)">
          <path d="M165.5 7.49962C216 10.9996 242.333 63.9976 231 94.9976C226.795 66.6643 185 23.6867 144 40.4975C103 57.3084 71 62.5 1 40.4975C108.044 50.5 115 3.99965 165.5 7.49962Z" fill="#B285CA"/>
          <path d="M169.5 21.5002C220.7 23.1002 231.833 70.5002 231 94.0002C240.5 43.0004 207.5 9.00011 165.5 2.50011C123.5 -3.99989 104 29.5001 60 36.0001C24.8 41.2001 6.66667 40.8334 2 40.0001C3.5 40.6668 17.2 42.6002 60 45.0002C113.5 48.0002 105.5 19.5002 169.5 21.5002Z" fill="#D9AFED"/>
          <path d="M180 39.5C163.6 18.3 131.833 24.6666 118.5 29C125.167 26.1666 142.1 20.7 156.5 21.5C170.9 22.3 178.5 32.8333 180 39.5Z" fill="#D9AFED"/>
          <path d="M208.5 34.5001C216.5 47.5 219.5 48.5 222.691 72.1415C222.691 72.1415 224.698 57.6158 221.922 49.8845C219.146 42.1531 217.5 39.5001 208.5 34.5001Z" fill="#D9AFED"/>
          <path d="M181.971 37.3695C176.427 19.9207 156.034 18.6051 147.137 19.1905C151.721 18.4412 163.014 17.7229 171.507 20.8436C180.001 23.9644 182.426 32.5359 181.971 37.3695Z" fill="#B285CA"/>
          <path d="M199.646 48.3961C204.12 30.6429 187.476 18.7874 179.603 14.6005C183.895 16.3773 193.873 21.7121 199.451 28.8373C205.029 35.9625 202.578 44.5265 199.646 48.3961Z" fill="#B285CA"/>
          <path d="M49.0455 44.6896C61.3255 49.8859 79.6907 41.7551 87.2091 37.7051C83.5261 39.9858 75.2464 47.2282 66.5001 49.4999C57.7538 51.7716 50.709 46.9786 49.0455 44.6896Z" fill="#B285CA"/>
          </g>
</svg>
