<svg xmlns="http://www.w3.org/2000/svg" xmlns:xlink="http://www.w3.org/1999/xlink" viewBox="0 0 820.28 732"><defs><style>.cls-1{fill:#fff;}.cls-2{fill:none;stroke:#fff;stroke-linecap:round;stroke-linejoin:round;stroke-width:3px;}.cls-3{fill:url(#Gradiente_sem_nome_3);}</style><linearGradient id="Gradiente_sem_nome_3" x1="551.04" y1="348.82" x2="629.77" y2="348.82" gradientUnits="userSpaceOnUse"><stop offset="0" stop-color="#1f2ad5"/><stop offset="1" stop-color="#c838e7"/></linearGradient></defs><g id="Camada_2" data-name="Camada 2"><g id="Layer_2" data-name="Layer 2"><path class="cls-1" d="M191.26,697.66l9.18-11.44c-3.67-3.53-4.43-3.53-10.28-5.77l-8,10.46c-.56.76-3.22,3.9-3.5,4.75-6.92-5.21-12.54-15.47-13.95-25.79-6.69-2.77-10.17-4.25-16.4-9.35-29.13-23.89-17.3-58.77-33.63-160.63C100.58,412.18,83.6,396,72.77,388.69,43,368.59.81,375.58,0,380.45c-.7,4.26,30.69,3.79,54.23,24.71,21.35,19,25.3,45.82,29.52,127,6,115,3.19,133.54,21.28,157.2,23.47,30.7,68.5,52,90,38.5,6.62-4.17,10.66-8.92,12.21-17.06-13.46-1.21-18.46-4.61-20.47-7.13C187.59,703.12,190.64,698.5,191.26,697.66Z"/><path class="cls-2" d="M208.89,241.53c1.46,2.52,96.57-58.86,97.91-56.53,1.08,1.87-86.28,52.32-85,54.63s82.8-51.37,84.34-48.7c1.3,2.26-74.93,46.9-73.79,48.88S307,194.41,308,196.15c1.12,1.93-69.32,44-68.35,45.71,1.11,1.91,71.5-43.47,72.44-41.83s-63.05,40.11-62.06,41.83c1.1,1.9,68.27-41.33,69.1-39.89.92,1.59-64.4,41-63.49,42.56s57.74-35.52,58.69-33.88c.73,1.27-49.85,32.73-49.22,33.82.86,1.49,50.16-30.92,51-29.45.75,1.3-42.94,29.54-42.25,30.74S317.46,219.38,318,220.3c.43.73-27.51,20.48-27.07,21.24.54.92,27.46-17.16,28-16.18.32.56-22.73,18.67-22.4,19.24.42.72,27.65-17,28.08-16.21.32.54-18.38,15.4-18.13,15.82s15.37-9.57,15.67-9.05c.14.23-7.14,9.58-7,9.87s5.79-3.55,5.88-3.39"/><path class="cls-2" d="M114.63,171.13c.1.16,6.5-3.95,6.59-3.8.32.55-19.85,16-19.5,16.59s22.24-13.53,22.54-13c.51.88-28.57,21.52-28.06,22.4.6,1,42.76-26.2,43.41-25.07.77,1.32-51.44,33.76-50.59,35.23.75,1.29,54.52-33.52,55.41-32S82,210.4,83,212.15c1.19,2.07,71.42-43.55,72.43-41.81,1.17,2-86.16,52.23-84.94,54.35,1.51,2.62,87.88-53.89,89.24-51.52s-90,54.4-88.78,56.49c1.52,2.63,99.72-60.59,101-58.33,1.1,1.91-91.1,56.17-90,58,1.41,2.46,96.48-58.54,97.7-56.41,1.36,2.33-103.78,61.66-102.21,64.37,1.72,3,111.76-67.68,113.13-65.31S84.12,235.6,85.69,238.31c1.81,3.13,110.39-66.76,111.7-64.49,1.49,2.59-114,67-112.16,70.17,1.42,2.47,118.51-72.33,120.2-69.4S89.94,243.51,91.62,246.41C93.11,249,213.5,172.63,215,175.19c1.73,3-117.58,69.65-116.07,72.26,1.87,3.24,122.08-74.06,123.62-71.38,1.7,2.94-124,72.4-122,75.88,2.12,3.68,132.74-81.24,134.74-77.79,2.26,3.92-133.94,78.84-131.9,82.37,3.07,5.32,186.81-113.47,189.24-109.26,2.59,4.48-189.6,108.53-186.51,113.89,2.19,3.79,188.33-114,190.6-110,3.14,5.44-188.5,109.68-186.16,113.74,2.87,5,182.54-111.9,185.36-107s-180.37,105.31-178.25,109c3.11,5.39,185.09-113.51,188-108.53C308.1,162.57,118.33,266,121,270.64c2.4,4.17,179.54-108.51,181.64-104.87,2.85,4.93-178.38,103-175.71,107.63,2.21,3.82,173-104.83,175.13-101.11,2.44,4.24-175.56,102-173.36,105.76,2.88,5,170.92-104.42,173.41-100.12,2.36,4.1-169.28,97.84-166.88,102S302,177.67,304.58,182.15c2.47,4.28-169.29,98-166.73,102.43,1,1.79,70.45-43.27,71.58-41.32s-67.84,42.58-67,44c1.07,1.87,74.72-45.4,75.7-43.7s-69.17,43.56-68.19,45.27c1.2,2.07,66.07-41,67.29-38.85.81,1.4-65.09,41.59-64.25,43s68-41.5,68.94-39.81c1.19,2.07-71.63,44.76-70.54,46.66.91,1.57,75.75-46.13,76.79-44.33s-67,42.76-66.07,44.32c1.12,1.94,72.67-44.21,73.64-42.52s-71.2,44.53-70,46.55,67.55-41.91,68.81-39.73c.91,1.59-72.68,44.57-71.42,46.75s79.26-48.38,80.39-46.42c1,1.69-71.13,44.56-70,46.45,1.3,2.25,72.87-44.65,74-42.71,1,1.76-70.91,44.22-69.89,46s73.17-45,74.35-42.92-77.82,48.09-76.74,50c1.26,2.17,76.42-47.06,77.69-44.86S179,321.87,180,323.72c1.18,2,76.51-46.34,77.45-44.71,1,1.82-71.56,45-70.68,46.48,1.08,1.88,72.33-44.38,73.47-42.42s-72.58,44.31-71.33,46.47c1,1.81,78.2-47.34,79.15-45.7s-76.27,47.65-75.35,49.23S269,286.92,269.9,288.52c1.1,1.91-74,46.58-73,48.16,1.24,2.14,80.33-49.27,81.58-47.1s-81.72,49.92-80.57,51.91S282.54,290,283.65,292c1.2,2.09-79.26,49.31-78.26,51.05,1.28,2.21,75.25-46.09,76.4-44.1,1,1.8-77.81,48.12-76.89,49.72,1,1.78,81.37-49.38,82.41-47.57"/><path class="cls-2" d="M290.28,134.48c1.13,2,68.27-41.89,69.34-40S296,134.91,297.05,136.82c.89,1.54,65.78-40.57,66.9-38.63s-66.38,42.59-65.58,44c1.09,1.88,71.37-43.5,72.36-41.78.85,1.47-64,40.85-63.18,42.27,1.13,2,63.46-38.52,64.28-37.11S312.08,143.29,313.08,145,375,106.94,376,108.68c.89,1.53-66.11,41.82-65.15,43.5,1.15,2,75.34-45.75,76.32-44.06.87,1.51-71.62,45.13-70.58,46.94,1,1.66,73-44.62,74.09-42.78.87,1.5-64.27,40.82-63.36,42.4,1.14,2,62.52-38.76,63.67-36.76.8,1.38-67.18,42.62-66.13,44.44s75.16-45.72,76.17-44S332.85,161.46,334,163.44s71-42.95,71.85-41.49C407,124,335.92,165.36,337,167.18S403.1,127,404,128.5c1,1.77-62,40.05-61.2,41.49,1.05,1.81,65.36-40.09,66.38-38.33s-63,40.25-62.09,41.79c1,1.69,68.83-42,69.8-40.3.86,1.48-68.2,42.58-67.07,44.54,1,1.75,68.27-41.95,69.37-40.05.78,1.37-65.08,41.45-64.07,43.21.91,1.56,66.75-40.43,67.57-39,.92,1.61-68.38,42.38-67.18,44.46,1,1.68,69.41-42.45,70.44-40.67.8,1.38-66.22,41.73-65.24,43.43.83,1.45,69.63-42.11,70.45-40.68,1.12,1.93-64.45,40.27-63.32,42.23s70.93-43.24,71.92-41.52c1.18,2-71.84,45-70.73,46.88.84,1.45,59.11-35.69,59.79-34.52s-48,32.28-47.29,33.49c.59,1,39.78-24.37,40.38-23.32s-45.13,30.22-44.35,31.57c.5.86,37-22.23,37.34-21.56.49.84-29.69,22.44-29.24,23.21.23.39,20.57-12.41,20.8-12S390.76,207.51,391,208c0,.06,2.59-1.6,2.64-1.52"/><path class="cls-2" d="M243,3.29s3.07-1.84,3.1-1.79c.17.29-10.32,11.6-10.16,11.87s10.7-6.61,10.89-6.28c.35.6-20.24,17-19.94,17.54.46.79,23-14.1,23.38-13.5.58,1-31.51,22.6-31,23.47s32.89-20.28,33.45-19.32S212.1,43,212.82,44.2s49.48-30.44,50.29-29-57.71,36.62-56.85,38.1c1.05,1.82,60.34-36.75,61.17-35.32,1,1.74-72,45-70.84,46.92.88,1.52,68.35-41.39,69.18-39.94S203,64.35,204,66.12,271.31,24.6,272.47,26.6s-74,46.05-72.85,48.09c1.27,2.2,75.75-46.65,77-44.47,1.13,2-71.83,45.17-70.93,46.73,1.23,2.13,76.68-46.64,77.71-44.86s-75.22,46.57-74.2,48.35,74.27-46.06,75.65-43.67c.91,1.56-74.57,47.21-73.68,48.75,1.07,1.86,78.65-47.72,79.65-46C292,41.46,207.5,90.26,208.74,92.4s83.46-51.44,84.87-49-85.69,52.38-84.27,54.83c1.21,2.1,87.84-54.23,89.37-51.6,1.1,1.91-86.21,52.94-84.88,55.24,1.47,2.55,90.4-55.79,92-53.09,1.16,2-88.84,55-87.73,57,1.59,2.74,86.92-52.88,88.09-50.86s-95.2,56.57-93.62,59.31C214,116.69,313,52.89,314.41,55.37c1.27,2.19-99.23,58.68-97.54,61.6S318.93,54.89,320.3,57.26s-100.66,60.69-99,63.49C223,123.8,322.86,59,324.2,61.31c1.78,3.08-105.81,64.14-104.45,66.5,1.65,2.87,104-64.16,105.79-61.08,1.3,2.25-103,62.15-101.45,64.81C225.4,133.81,332.66,65.84,334,68.1c1.87,3.25-114.37,68.3-112.81,71S336.34,69,337.9,71.71s-115.29,67.66-113.49,70.76c1.6,2.79,109-66.45,110.53-63.81,1.74,3-110.12,66.42-108.78,68.73,2,3.43,113.67-69.75,115.45-66.66,1.7,2.94-119,71-117.45,73.67,1.69,2.92,119.78-73.69,121.74-70.29,1.55,2.68-117.75,69.62-116.09,72.51,1.78,3.06,123.41-76,125.46-72.43,1.74,3-128.92,74.94-126.82,78.57,1.52,2.64,123.71-75.09,125.3-72.34S232.52,161.13,234.5,164.56c1.71,3,121.26-74.92,123.39-71.24S229.13,168.93,231,172.23c.75,1.3,65.23-39.39,66-38.09"/><path class="cls-2" d="M673.56,501.79c1.78,3.09,120.24-73.85,122.16-70.53,1.75,3-106.83,64.17-105.32,66.79,1.72,3,107.12-65.41,108.67-62.73s-95.76,58.28-94.57,60.36c1.5,2.59,91.52-56.23,93-53.69,1,1.8-78.47,47.56-77.15,49.86,1.21,2.1,82.93-50.43,84-48.51.84,1.45-69.23,43.23-68,45.29.78,1.36,62.68-38.21,63.56-36.69.66,1.15-42.81,29.05-42.1,30.28s46.18-28.18,46.83-27c.45.77-35.11,25-34.61,25.92s40.32-24.41,40.81-23.56c.4.69-21.26,17.2-21,17.72s19-11.77,19.34-11.16c.18.32-9.09,10.52-8.9,10.84s18.28-11,18.47-10.67"/><path class="cls-2" d="M600.88,510.36c2.7,4.68,172.25-106.19,175.17-101.13,2.1,3.64-168.92,97.49-166.42,101.82,2.1,3.63,171.91-106.13,174.89-101S599.83,516.59,602.34,520.94c3,5.2,174.81-106.64,177.28-102.35,2,3.52-173.8,101.27-171.5,105.26s177.46-109.1,180.34-104.12c3.14,5.45-183.15,103.68-180,109.14s178.59-109,181.13-104.58S609.85,526.82,612.72,531.79c2.15,3.72,171.82-106.4,174.94-101,2.47,4.28-180.85,104.11-178.22,108.65.75,1.32,64.16-39.12,65.06-37.56.77,1.34-61.44,38.67-60.5,40.29s54.84-33.47,55.62-32.11-60.11,37.95-59.16,39.6,61.11-37,61.84-35.7c1,1.78-62.53,40.18-61.7,41.62s59.61-36.21,60.39-34.86-57.12,36.49-56.13,38.21c.88,1.52,61.54-37.59,62.44-36,1,1.77-61.55,39.64-60.73,41.06,1,1.67,57.85-35.44,58.74-33.91.74,1.29-58.5,38.08-57.76,39.37s62.41-38,63.25-36.51c1,1.79-60.56,38.77-59.84,40,.88,1.52,57.75-35.14,58.53-33.79s-65.79,41.54-64.8,43.27c.9,1.55,71.45-43.85,72.58-41.91s-73.87,45-72.58,47.21c.9,1.56,67-41.28,68.09-39.31,1,1.78-61.72,39.47-60.81,41s65.51-39.68,66.31-38.29c1.19,2.06-71.56,44.09-70.43,46.05s70.64-42.66,71.45-41.25c1,1.63-69.68,43.29-68.63,45.11.81,1.4,67.17-41.07,68.16-39.35s-65.71,40.92-64.59,42.86c.81,1.41,61-37.17,61.86-35.71s-60.16,38.1-59.28,39.62c1.16,2,64.49-39.44,65.45-37.79,1.22,2.12-72.65,45-71.52,47,1,1.7,74.24-44.85,75.11-43.36,1,1.8-69.91,43.16-68.74,45.19.87,1.52,68.55-41.9,69.55-40.15,1.15,2-71.41,44.54-70.5,46.12,1.18,2,71.39-43.49,72.37-41.79s-60.92,39.24-59.94,40.94,60.08-36.49,60.86-35.14c.94,1.63-54,35.33-53.1,36.91.75,1.3,55.62-33.89,56.39-32.55s-50.88,33-50,34.61,46.08-28.07,46.72-27-41.34,28.75-40.79,29.7,45.7-28.09,46.44-26.82-44.69,29.4-43.92,30.75c.67,1.16,46.53-28.28,47.14-27.22S666.94,636,667.63,637.16c.52.89,40.62-24.87,41.23-23.81.49.85-32.62,23.52-32.06,24.48.45.79,33.82-20.78,34.36-19.84s-32.39,23.45-32,24.18,32.6-19.9,33.07-19.09c.37.65-25.45,19.73-25.11,20.32s19.59-12.2,20-11.54c.22.38-15.78,13.71-15.52,14.16s19-11.55,19.28-11.13-13.63,13.46-13.37,13.9S710.84,640.71,711,641s-8,10.12-7.78,10.42,13.07-7.85,13.2-7.62-4.25,7.59-4.13,7.8,4.89-2.94,4.94-2.86"/><path class="cls-2" d="M639.46,302.71c0,.05,3.95-2.33,4-2.29.23.4-13.23,12.56-13,13s10.67-6.58,10.85-6.26c.28.48-15.57,14-15.3,14.43s25.73-15.55,26-15c.59,1-34.61,24.68-34,25.67s36.92-22.4,37.39-21.58c.8,1.38-45.48,30.51-44.91,31.49.8,1.4,44.42-27.34,45.15-26.06s-51.82,33.84-50.94,35.35c.71,1.24,60.94-37.45,61.92-35.75,1.17,2-74.49,45.86-73.31,47.9s69.64-43.06,70.88-40.92c1.06,1.83-77.16,47.71-75.83,50,1.07,1.85,79.81-48.44,80.83-46.67,1.19,2.05-92.48,55.2-91,57.75S676,324.2,677.31,326.51c1.85,3.2-108.62,64.46-107,67.23,1.32,2.29,109.18-66.34,110.61-63.86,2,3.4-122.49,72.15-120.57,75.47,2,3.56,122.86-74.44,124.39-71.81s-134.32,78.22-132,82.26c1.67,2.9,131.51-81.05,133.73-77.21,1.93,3.34-132.51,78-130.75,81.05,1.62,2.81,132.15-81.13,134.25-77.5s-134.75,80-133.18,82.73c1.79,3.1,135.47-82.58,137.36-79.31,2,3.47-146.6,85.49-144.43,89.26,2.5,4.33,147.53-90.89,150-86.61,2.17,3.77-148.33,87.34-146.5,90.52,2.54,4.4,148.1-90.77,150.38-86.82,2.67,4.62-156.31,89.79-153.76,94.2S694.94,357.1,697.2,361c1.91,3.3-156.84,91.18-154.45,95.32s149.07-91.83,151.57-87.5-156.7,90.59-154.26,94.82c2,3.41,144.45-88.45,146.64-84.66,1.94,3.35-150.63,87.12-148.28,91.18C540.27,473.39,677,385.53,679,389c1.69,2.92-140.15,82.56-138.4,85.6,1.56,2.69,128-77.78,129.66-74.86,1.56,2.69-131,76.32-129,79.74,1.81,3.14,122-73.92,123.51-71.31,1.85,3.21-133.42,77.5-131.19,81.35,1.52,2.63,117.54-72.4,119.51-69,1.46,2.54-119.17,70.23-117.31,73.46s111.85-67.91,113.29-65.4c1.37,2.36-114.8,68.75-113.39,71.19,2.15,3.72,116.68-71.76,118.58-68.47,1.79,3.11-123.14,72.47-121.37,75.53,2.07,3.59,140-85.88,142.16-82.08,2.57,4.46-148.74,87.2-146.94,90.31,2.58,4.47,162-97.86,163.88-94.61,2.51,4.34-170.08,98.34-167.68,102.51,2.15,3.71,181.29-109.59,183.42-105.9C711,422.73,518,525.37,521,530.63c2.88,5,204.25-125,207.3-119.68,2.88,5-208.55,120-205.74,124.89,3.26,5.65,221.1-135.74,224.61-129.68,3.77,6.54-229.17,131-226.29,136,3.2,5.55,233.27-142.26,236.55-136.58s-240.6,137.09-237.17,143C523.9,555,769.49,397.27,772.72,402.86c3.84,6.66-263.7,148.64-259.8,155.38,3.77,6.54,257.13-157.21,260.93-150.65,3.49,6.05-262.07,149.7-258.64,155.63,1,1.79,90.62-54.88,91.73-53,1.58,2.74-99.31,59.72-98,62,1.46,2.52,93-56.4,94.15-54.36,1.34,2.33-93.46,56.6-92.16,58.85,1.09,1.89,88.57-54.35,90-51.94S510,580.41,511.25,582.51s82.21-50.11,83.36-48.13S505,588.61,506.36,591.06c1.24,2.14,85.24-52.15,86.51-49.95,1.37,2.38-81.25,50.67-80.16,52.55,1.2,2.09,76.7-47.57,78.12-45.1,1.31,2.26-75.06,46.78-73.9,48.8s76.89-47,78-45.05-66.75,41.11-65.58,43.14c1,1.8,60.74-37.42,61.76-35.66.84,1.47-58.22,37.14-57.4,38.56.94,1.63,52.8-32.2,53.54-30.92s-49.1,32.6-48.5,33.64c.77,1.33,49.58-30.28,50.3-29,.82,1.42-46.05,30.33-45.41,31.44.51.88,43.66-26.76,44.34-25.6.52.91-38.06,26.81-37.55,27.7s34.48-20.86,34.89-20.15c.28.5-21.46,17.22-21.12,17.81S580.71,593,581,593.53c.19.33-10.13,10.73-9.91,11.11s5.27-3.55,5.49-3.17-5.81,9.11-5.67,9.36c0,.07,6.34-3.79,6.39-3.69"/><path class="cls-2" d="M697.2,106.6c0,.05,1.76-1.07,1.78-1,.16.28-7.09,9.31-7,9.53s10.36-6.38,10.53-6.09S683.72,124.7,684,125.14c.4.7,19.37-11.91,19.68-11.36.49.84-26.14,19.53-25.76,20.2.57,1,29.18-17.95,29.65-17.12s-39.11,27.05-38.56,28S711.43,119,712,120c.83,1.43-53.88,35.64-53.19,36.84s62-37.49,62.75-36.23c1,1.79-71.89,45.24-70.94,46.88s72.4-44.26,73.47-42.41-76.16,46.85-74.91,49c1.16,2,74.92-46.28,76.23-44,1,1.78-85.53,51.62-84.05,54.18,1.15,2,93.1-57.41,94.69-54.66s-110.9,66-109.3,68.82c1.29,2.22,107.9-66.09,109.54-63.24"/><path class="cls-2" d="M622.83,61.09s5.88-3.46,5.91-3.41c.2.36-15.3,13.56-15.07,13.95S630,61.76,630.18,62.1c.42.72-22.32,17.45-22,18s28-17.1,28.41-16.4c.55,1-32.46,23.7-31.9,24.66s37.44-22.95,38-21.95-47.79,32.09-47.09,33.29,48.49-29.57,49.18-28.39c.89,1.55-60.69,38.76-59.91,40.13s61.6-37.93,62.62-36.16c1.15,2-71.44,44.65-70.42,46.4,1.2,2.08,75.19-46.26,76.43-44.12,1.14,2-79,48.77-78,50.51,1.4,2.43,75.76-46.61,77-44.46,1.4,2.43-84.43,51.86-83.43,53.59,1.19,2.06,87-53,88.19-50.92,1.52,2.63-104.8,62.63-103.11,65.56,1.28,2.22,104.25-64.18,106-61.18"/><path class="cls-2" d="M558.9,3.86s1.76-1.07,1.78-1c.19.31-10.17,11.61-10,11.92s16-9.67,16.22-9.36c.35.61-19.46,15.74-19.14,16.29S569.6,8.2,570,8.87c.47.82-30.7,22.78-30.28,23.5S577,9.76,577.46,10.58C578.27,12,531.29,40.94,532,42.14c.58,1,43.55-26.83,44.28-25.57.83,1.44-57.89,37.75-57.12,39.08s61.55-37.79,62.53-36.1c.84,1.47-71,44.07-69.95,45.94s69.79-42.56,70.77-40.86c1.15,2-73.49,45.15-72.4,47s76.67-47,77.84-44.94c1.44,2.5-94.17,58.06-93,60,1.27,2.19,100-61.09,101.45-58.57C598,31.1,487.8,93.59,489.11,95.86S599.56,27.86,601.39,31c1.6,2.77-115,69.07-113.62,71.4,1.47,2.54,114.07-70.23,116-67,1.79,3.11-129.37,76-127.61,79,2,3.53,124.55-76.64,126.6-73.09,1.84,3.19-138,81.51-136.33,84.47C468,128.59,596.06,46.7,597.93,49.94c1.62,2.8-135.48,79.76-133.82,82.63,1.52,2.63,121.4-75.11,123.57-71.34,1.68,2.9-137.37,81.25-135.64,84.25,2,3.49,126.59-77.33,128.43-74.15,1.62,2.82-127.41,75.3-125.8,78.09,2,3.48,118.87-72.91,120.72-69.71,1.6,2.76-120.68,71.07-118.88,74.19,1.61,2.79,105.42-64.16,106.85-61.7,1.22,2.13-101.45,60.77-100.15,63,1.45,2.5,92.67-56.91,94.14-54.35s-90.05,55-89,56.86c1.2,2.08,83.06-50.29,84.07-48.54,1.1,1.92-86.25,53-85,55.12s77.05-46.76,78-45c.87,1.51-69.53,42.8-68.37,44.81,1,1.78,59.73-36.7,60.69-35s-56.51,36.89-55.61,38.45,49.73-30.45,50.48-29.15-51.39,33.22-50.62,34.56c.67,1.15,58.44-35.81,59.33-34.26.71,1.22-52.92,34.74-52.26,35.88.79,1.37,55.46-34.19,56.4-32.56.77,1.32-54.15,35.31-53.38,36.64s58.17-35.66,59.07-34.1-55.57,36.22-54.72,37.69,59.49-36.41,60.38-34.86-54.94,35.41-54.16,36.77c2.21,3.82,159.23-98.19,161.94-93.49,2,3.44-157.57,92.48-155.61,95.87,2.48,4.3,157.2-96.12,159.52-92.1,2.72,4.7-165.66,95.47-163.16,99.79,2,3.48,160.1-96.82,162-93.53s-154.53,90.18-152.22,94.19c2.47,4.27,138.93-85.58,141.25-81.56,2.23,3.86-137.23,80.14-135.06,83.89S652.24,118,653.82,120.69c1.92,3.34-133.33,78.39-131.54,81.5s117.47-71.88,119.23-68.83-112.93,66.83-111,70.11c1.28,2.21,104.38-63.65,105.84-61.11C638.13,145.5,531.15,205,532.92,208c1.47,2.54,91.79-56.43,93.27-53.85,1.24,2.15-90.24,54.66-88.82,57.1,1.16,2,83.33-50.58,84.4-48.72,1.44,2.5-83.45,50.5-82.2,52.66,1.16,2,72.4-44.31,73.49-42.43s-68.2,43.49-67.24,45.14,55.65-34.45,56.66-32.71c.84,1.46-55.92,36.11-54.92,37.84.8,1.38,59.79-36.45,60.62-35s-58.34,37.55-57.52,39,56.72-34.61,57.53-33.21-49,32.63-48.21,33.95c1,1.66,54.5-33.21,55.26-31.9,1,1.69-56.35,35.74-55.34,37.48.76,1.32,56.5-34.25,57.2-33S568.84,231.8,569.53,233c.91,1.57,55.81-33.82,56.5-32.62,1,1.67-60.15,38.38-59.38,39.71,2.21,3.83,170-104.76,172.86-99.8,2.55,4.42-163.44,94.65-161,98.86,2.21,3.83,162.14-98.89,164.42-94.93s-166.79,96-164,100.86c2.24,3.9,150.68-91.44,152.61-88.1,2.18,3.77-150.32,87-147.9,91.23,1.86,3.23,135.94-83.51,138.12-79.74,2,3.47-133.94,78.11-131.77,81.88,1.61,2.77,126.09-76.48,127.68-73.72,1.78,3.08-126.32,73.59-124.17,77.32,1.82,3.15,117.77-71.57,119.32-68.89S595.41,254.88,596.9,257.46c1.73,3,103-62.48,104.3-60.21s-100.13,60.11-98.8,62.42,93.14-56.93,94.51-54.57c1.21,2.1-96.58,57.86-95,60.54,1.27,2.2,84.54-51.5,85.71-49.49S605.45,267,606.48,268.79c1.14,2,72.6-44.07,73.54-42.45.83,1.44-64.63,40.71-63.78,42.17s55.14-34,56.07-32.37-55.86,36-55.16,37.2,50.8-30.91,51.48-29.72S623.41,274.71,624,275.68c.44.76,34-21,34.61-20,.44.77-29.61,21.85-29.11,22.7.33.58,19.82-12.12,20.11-11.61s-21.41,17.28-21,18c.19.34,17.25-10.39,17.44-10.07"/><path class="cls-1" d="M466.69,593.12l-176-20.5-98,126.76a8.5,8.5,0,0,1-2.2,2.08,45.15,45.15,0,0,0,38.82,1.15L483.25,595.05s.06,0,.09,0Z"/><path class="cls-1" d="M198.86,385.33l.32-.2-.33-.24L167.57,655.37a45.12,45.12,0,0,0,11.3,35.72,8.66,8.66,0,0,1,1.26-2.43L276,563.29Z"/><polygon class="cls-1" points="203.71 376.95 203.71 378.77 284.08 565.86 477.7 587.63 494.65 589.54 508.62 535.47 541.16 409.48 534.68 404.67 203.71 376.95"/><polygon class="cls-1" points="629.85 296.02 356.85 274.02 198.85 371.02 551.85 401.02 629.85 296.02"/><polygon class="cls-1" points="622.13 290.57 443.88 158.27 365.8 263.46 376.29 271.24 622.13 290.57"/><polygon class="cls-3" points="551.85 401.02 551.03 400.95 551.69 401.43 629.76 296.24 629.71 296.2 551.85 401.02"/><path class="cls-1" d="M191.26,697.66l9.18-11.44c-3.67-3.53-4.43-3.53-10.28-5.77l-8,10.46c-.56.76-3.22,3.9-3.5,4.75-6.92-5.21-12.54-15.47-13.95-25.79-6.69-2.77-10.17-4.25-16.4-9.35-29.13-23.89-17.3-58.77-33.63-160.63C100.58,412.18,83.6,396,72.77,388.69,43,368.59.81,375.58,0,380.45c-.7,4.26,30.69,3.79,54.23,24.71,21.35,19,25.3,45.82,29.52,127,6,115,3.19,133.54,21.28,157.2,23.47,30.7,68.5,52,90,38.5,6.62-4.17,10.66-8.92,12.21-17.06-13.46-1.21-18.46-4.61-20.47-7.13C187.59,703.12,190.64,698.5,191.26,697.66Z"/><path class="cls-2" d="M208.89,241.53c1.46,2.52,96.57-58.86,97.91-56.53,1.08,1.87-86.28,52.32-85,54.63s82.8-51.37,84.34-48.7c1.3,2.26-74.93,46.9-73.79,48.88S307,194.41,308,196.15c1.12,1.93-69.32,44-68.35,45.71,1.11,1.91,71.5-43.47,72.44-41.83s-63.05,40.11-62.06,41.83c1.1,1.9,68.27-41.33,69.1-39.89.92,1.59-64.4,41-63.49,42.56s57.74-35.52,58.69-33.88c.73,1.27-49.85,32.73-49.22,33.82.86,1.49,50.16-30.92,51-29.45.75,1.3-42.94,29.54-42.25,30.74S317.46,219.38,318,220.3c.43.73-27.51,20.48-27.07,21.24.54.92,27.46-17.16,28-16.18.32.56-22.73,18.67-22.4,19.24.42.72,27.65-17,28.08-16.21.32.54-18.38,15.4-18.13,15.82s15.37-9.57,15.67-9.05c.14.23-7.14,9.58-7,9.87s5.79-3.55,5.88-3.39"/><path class="cls-2" d="M114.63,171.13c.1.16,6.5-3.95,6.59-3.8.32.55-19.85,16-19.5,16.59s22.24-13.53,22.54-13c.51.88-28.57,21.52-28.06,22.4.6,1,42.76-26.2,43.41-25.07.77,1.32-51.44,33.76-50.59,35.23.75,1.29,54.52-33.52,55.41-32S82,210.4,83,212.15c1.19,2.07,71.42-43.55,72.43-41.81,1.17,2-86.16,52.23-84.94,54.35,1.51,2.62,87.88-53.89,89.24-51.52s-90,54.4-88.78,56.49c1.52,2.63,99.72-60.59,101-58.33,1.1,1.91-91.1,56.17-90,58,1.41,2.46,96.48-58.54,97.7-56.41,1.36,2.33-103.78,61.66-102.21,64.37,1.72,3,111.76-67.68,113.13-65.31S84.12,235.6,85.69,238.31c1.81,3.13,110.39-66.76,111.7-64.49,1.49,2.59-114,67-112.16,70.17,1.42,2.47,118.51-72.33,120.2-69.4S89.94,243.51,91.62,246.41C93.11,249,213.5,172.63,215,175.19c1.73,3-117.58,69.65-116.07,72.26,1.87,3.24,122.08-74.06,123.62-71.38,1.7,2.94-124,72.4-122,75.88,2.12,3.68,132.74-81.24,134.74-77.79,2.26,3.92-133.94,78.84-131.9,82.37,3.07,5.32,186.81-113.47,189.24-109.26,2.59,4.48-189.6,108.53-186.51,113.89,2.19,3.79,188.33-114,190.6-110,3.14,5.44-188.5,109.68-186.16,113.74,2.87,5,182.54-111.9,185.36-107s-180.37,105.31-178.25,109c3.11,5.39,185.09-113.51,188-108.53C308.1,162.57,118.33,266,121,270.64c2.4,4.17,179.54-108.51,181.64-104.87,2.85,4.93-178.38,103-175.71,107.63,2.21,3.82,173-104.83,175.13-101.11,2.44,4.24-175.56,102-173.36,105.76,2.88,5,170.92-104.42,173.41-100.12,2.36,4.1-169.28,97.84-166.88,102S302,177.67,304.58,182.15c2.47,4.28-169.29,98-166.73,102.43,1,1.79,70.45-43.27,71.58-41.32s-67.84,42.58-67,44c1.07,1.87,74.72-45.4,75.7-43.7s-69.17,43.56-68.19,45.27c1.2,2.07,66.07-41,67.29-38.85.81,1.4-65.09,41.59-64.25,43s68-41.5,68.94-39.81c1.19,2.07-71.63,44.76-70.54,46.66.91,1.57,75.75-46.13,76.79-44.33s-67,42.76-66.07,44.32c1.12,1.94,72.67-44.21,73.64-42.52s-71.2,44.53-70,46.55,67.55-41.91,68.81-39.73c.91,1.59-72.68,44.57-71.42,46.75s79.26-48.38,80.39-46.42c1,1.69-71.13,44.56-70,46.45,1.3,2.25,72.87-44.65,74-42.71,1,1.76-70.91,44.22-69.89,46s73.17-45,74.35-42.92-77.82,48.09-76.74,50c1.26,2.17,76.42-47.06,77.69-44.86S179,321.87,180,323.72c1.18,2,76.51-46.34,77.45-44.71,1,1.82-71.56,45-70.68,46.48,1.08,1.88,72.33-44.38,73.47-42.42s-72.58,44.31-71.33,46.47c1,1.81,78.2-47.34,79.15-45.7s-76.27,47.65-75.35,49.23S269,286.92,269.9,288.52c1.1,1.91-74,46.58-73,48.16,1.24,2.14,80.33-49.27,81.58-47.1s-81.72,49.92-80.57,51.91S282.54,290,283.65,292c1.2,2.09-79.26,49.31-78.26,51.05,1.28,2.21,75.25-46.09,76.4-44.1,1,1.8-77.81,48.12-76.89,49.72,1,1.78,81.37-49.38,82.41-47.57"/><path class="cls-2" d="M290.28,134.48c1.13,2,68.27-41.89,69.34-40S296,134.91,297.05,136.82c.89,1.54,65.78-40.57,66.9-38.63s-66.38,42.59-65.58,44c1.09,1.88,71.37-43.5,72.36-41.78.85,1.47-64,40.85-63.18,42.27,1.13,2,63.46-38.52,64.28-37.11S312.08,143.29,313.08,145,375,106.94,376,108.68c.89,1.53-66.11,41.82-65.15,43.5,1.15,2,75.34-45.75,76.32-44.06.87,1.51-71.62,45.13-70.58,46.94,1,1.66,73-44.62,74.09-42.78.87,1.5-64.27,40.82-63.36,42.4,1.14,2,62.52-38.76,63.67-36.76.8,1.38-67.18,42.62-66.13,44.44s75.16-45.72,76.17-44S332.85,161.46,334,163.44s71-42.95,71.85-41.49C407,124,335.92,165.36,337,167.18S403.1,127,404,128.5c1,1.77-62,40.05-61.2,41.49,1.05,1.81,65.36-40.09,66.38-38.33s-63,40.25-62.09,41.79c1,1.69,68.83-42,69.8-40.3.86,1.48-68.2,42.58-67.07,44.54,1,1.75,68.27-41.95,69.37-40.05.78,1.37-65.08,41.45-64.07,43.21.91,1.56,66.75-40.43,67.57-39,.92,1.61-68.38,42.38-67.18,44.46,1,1.68,69.41-42.45,70.44-40.67.8,1.38-66.22,41.73-65.24,43.43.83,1.45,69.63-42.11,70.45-40.68,1.12,1.93-64.45,40.27-63.32,42.23s70.93-43.24,71.92-41.52c1.18,2-71.84,45-70.73,46.88.84,1.45,59.11-35.69,59.79-34.52s-48,32.28-47.29,33.49c.59,1,39.78-24.37,40.38-23.32s-45.13,30.22-44.35,31.57c.5.86,37-22.23,37.34-21.56.49.84-29.69,22.44-29.24,23.21.23.39,20.57-12.41,20.8-12S390.76,207.51,391,208c0,.06,2.59-1.6,2.64-1.52"/><path class="cls-2" d="M243,3.29s3.07-1.84,3.1-1.79c.17.29-10.32,11.6-10.16,11.87s10.7-6.61,10.89-6.28c.35.6-20.24,17-19.94,17.54.46.79,23-14.1,23.38-13.5.58,1-31.51,22.6-31,23.47s32.89-20.28,33.45-19.32S212.1,43,212.82,44.2s49.48-30.44,50.29-29-57.71,36.62-56.85,38.1c1.05,1.82,60.34-36.75,61.17-35.32,1,1.74-72,45-70.84,46.92.88,1.52,68.35-41.39,69.18-39.94S203,64.35,204,66.12,271.31,24.6,272.47,26.6s-74,46.05-72.85,48.09c1.27,2.2,75.75-46.65,77-44.47,1.13,2-71.83,45.17-70.93,46.73,1.23,2.13,76.68-46.64,77.71-44.86s-75.22,46.57-74.2,48.35,74.27-46.06,75.65-43.67c.91,1.56-74.57,47.21-73.68,48.75,1.07,1.86,78.65-47.72,79.65-46C292,41.46,207.5,90.26,208.74,92.4s83.46-51.44,84.87-49-85.69,52.38-84.27,54.83c1.21,2.1,87.84-54.23,89.37-51.6,1.1,1.91-86.21,52.94-84.88,55.24,1.47,2.55,90.4-55.79,92-53.09,1.16,2-88.84,55-87.73,57,1.59,2.74,86.92-52.88,88.09-50.86s-95.2,56.57-93.62,59.31C214,116.69,313,52.89,314.41,55.37c1.27,2.19-99.23,58.68-97.54,61.6S318.93,54.89,320.3,57.26s-100.66,60.69-99,63.49C223,123.8,322.86,59,324.2,61.31c1.78,3.08-105.81,64.14-104.45,66.5,1.65,2.87,104-64.16,105.79-61.08,1.3,2.25-103,62.15-101.45,64.81C225.4,133.81,332.66,65.84,334,68.1c1.87,3.25-114.37,68.3-112.81,71S336.34,69,337.9,71.71s-115.29,67.66-113.49,70.76c1.6,2.79,109-66.45,110.53-63.81,1.74,3-110.12,66.42-108.78,68.73,2,3.43,113.67-69.75,115.45-66.66,1.7,2.94-119,71-117.45,73.67,1.69,2.92,119.78-73.69,121.74-70.29,1.55,2.68-117.75,69.62-116.09,72.51,1.78,3.06,123.41-76,125.46-72.43,1.74,3-128.92,74.94-126.82,78.57,1.52,2.64,123.71-75.09,125.3-72.34S232.52,161.13,234.5,164.56c1.71,3,121.26-74.92,123.39-71.24S229.13,168.93,231,172.23c.75,1.3,65.23-39.39,66-38.09"/><path class="cls-2" d="M673.56,501.79c1.78,3.09,120.24-73.85,122.16-70.53,1.75,3-106.83,64.17-105.32,66.79,1.72,3,107.12-65.41,108.67-62.73s-95.76,58.28-94.57,60.36c1.5,2.59,91.52-56.23,93-53.69,1,1.8-78.47,47.56-77.15,49.86,1.21,2.1,82.93-50.43,84-48.51.84,1.45-69.23,43.23-68,45.29.78,1.36,62.68-38.21,63.56-36.69.66,1.15-42.81,29.05-42.1,30.28s46.18-28.18,46.83-27c.45.77-35.11,25-34.61,25.92s40.32-24.41,40.81-23.56c.4.69-21.26,17.2-21,17.72s19-11.77,19.34-11.16c.18.32-9.09,10.52-8.9,10.84s18.28-11,18.47-10.67"/><path class="cls-2" d="M600.88,510.36c2.7,4.68,172.25-106.19,175.17-101.13,2.1,3.64-168.92,97.49-166.42,101.82,2.1,3.63,171.91-106.13,174.89-101S599.83,516.59,602.34,520.94c3,5.2,174.81-106.64,177.28-102.35,2,3.52-173.8,101.27-171.5,105.26s177.46-109.1,180.34-104.12c3.14,5.45-183.15,103.68-180,109.14s178.59-109,181.13-104.58S609.85,526.82,612.72,531.79c2.15,3.72,171.82-106.4,174.94-101,2.47,4.28-180.85,104.11-178.22,108.65.75,1.32,64.16-39.12,65.06-37.56.77,1.34-61.44,38.67-60.5,40.29s54.84-33.47,55.62-32.11-60.11,37.95-59.16,39.6,61.11-37,61.84-35.7c1,1.78-62.53,40.18-61.7,41.62s59.61-36.21,60.39-34.86-57.12,36.49-56.13,38.21c.88,1.52,61.54-37.59,62.44-36,1,1.77-61.55,39.64-60.73,41.06,1,1.67,57.85-35.44,58.74-33.91.74,1.29-58.5,38.08-57.76,39.37s62.41-38,63.25-36.51c1,1.79-60.56,38.77-59.84,40,.88,1.52,57.75-35.14,58.53-33.79s-65.79,41.54-64.8,43.27c.9,1.55,71.45-43.85,72.58-41.91s-73.87,45-72.58,47.21c.9,1.56,67-41.28,68.09-39.31,1,1.78-61.72,39.47-60.81,41s65.51-39.68,66.31-38.29c1.19,2.06-71.56,44.09-70.43,46.05s70.64-42.66,71.45-41.25c1,1.63-69.68,43.29-68.63,45.11.81,1.4,67.17-41.07,68.16-39.35s-65.71,40.92-64.59,42.86c.81,1.41,61-37.17,61.86-35.71s-60.16,38.1-59.28,39.62c1.16,2,64.49-39.44,65.45-37.79,1.22,2.12-72.65,45-71.52,47,1,1.7,74.24-44.85,75.11-43.36,1,1.8-69.91,43.16-68.74,45.19.87,1.52,68.55-41.9,69.55-40.15,1.15,2-71.41,44.54-70.5,46.12,1.18,2,71.39-43.49,72.37-41.79s-60.92,39.24-59.94,40.94,60.08-36.49,60.86-35.14c.94,1.63-54,35.33-53.1,36.91.75,1.3,55.62-33.89,56.39-32.55s-50.88,33-50,34.61,46.08-28.07,46.72-27-41.34,28.75-40.79,29.7,45.7-28.09,46.44-26.82-44.69,29.4-43.92,30.75c.67,1.16,46.53-28.28,47.14-27.22S666.94,636,667.63,637.16c.52.89,40.62-24.87,41.23-23.81.49.85-32.62,23.52-32.06,24.48.45.79,33.82-20.78,34.36-19.84s-32.39,23.45-32,24.18,32.6-19.9,33.07-19.09c.37.65-25.45,19.73-25.11,20.32s19.59-12.2,20-11.54c.22.38-15.78,13.71-15.52,14.16s19-11.55,19.28-11.13-13.63,13.46-13.37,13.9S710.84,640.71,711,641s-8,10.12-7.78,10.42,13.07-7.85,13.2-7.62-4.25,7.59-4.13,7.8,4.89-2.94,4.94-2.86"/><path class="cls-2" d="M639.46,302.71c0,.05,3.95-2.33,4-2.29.23.4-13.23,12.56-13,13s10.67-6.58,10.85-6.26c.28.48-15.57,14-15.3,14.43s25.73-15.55,26-15c.59,1-34.61,24.68-34,25.67s36.92-22.4,37.39-21.58c.8,1.38-45.48,30.51-44.91,31.49.8,1.4,44.42-27.34,45.15-26.06s-51.82,33.84-50.94,35.35c.71,1.24,60.94-37.45,61.92-35.75,1.17,2-74.49,45.86-73.31,47.9s69.64-43.06,70.88-40.92c1.06,1.83-77.16,47.71-75.83,50,1.07,1.85,79.81-48.44,80.83-46.67,1.19,2.05-92.48,55.2-91,57.75S676,324.2,677.31,326.51c1.85,3.2-108.62,64.46-107,67.23,1.32,2.29,109.18-66.34,110.61-63.86,2,3.4-122.49,72.15-120.57,75.47,2,3.56,122.86-74.44,124.39-71.81s-134.32,78.22-132,82.26c1.67,2.9,131.51-81.05,133.73-77.21,1.93,3.34-132.51,78-130.75,81.05,1.62,2.81,132.15-81.13,134.25-77.5s-134.75,80-133.18,82.73c1.79,3.1,135.47-82.58,137.36-79.31,2,3.47-146.6,85.49-144.43,89.26,2.5,4.33,147.53-90.89,150-86.61,2.17,3.77-148.33,87.34-146.5,90.52,2.54,4.4,148.1-90.77,150.38-86.82,2.67,4.62-156.31,89.79-153.76,94.2S694.94,357.1,697.2,361c1.91,3.3-156.84,91.18-154.45,95.32s149.07-91.83,151.57-87.5-156.7,90.59-154.26,94.82c2,3.41,144.45-88.45,146.64-84.66,1.94,3.35-150.63,87.12-148.28,91.18C540.27,473.39,677,385.53,679,389c1.69,2.92-140.15,82.56-138.4,85.6,1.56,2.69,128-77.78,129.66-74.86,1.56,2.69-131,76.32-129,79.74,1.81,3.14,122-73.92,123.51-71.31,1.85,3.21-133.42,77.5-131.19,81.35,1.52,2.63,117.54-72.4,119.51-69,1.46,2.54-119.17,70.23-117.31,73.46s111.85-67.91,113.29-65.4c1.37,2.36-114.8,68.75-113.39,71.19,2.15,3.72,116.68-71.76,118.58-68.47,1.79,3.11-123.14,72.47-121.37,75.53,2.07,3.59,140-85.88,142.16-82.08,2.57,4.46-148.74,87.2-146.94,90.31,2.58,4.47,162-97.86,163.88-94.61,2.51,4.34-170.08,98.34-167.68,102.51,2.15,3.71,181.29-109.59,183.42-105.9C711,422.73,518,525.37,521,530.63c2.88,5,204.25-125,207.3-119.68,2.88,5-208.55,120-205.74,124.89,3.26,5.65,221.1-135.74,224.61-129.68,3.77,6.54-229.17,131-226.29,136,3.2,5.55,233.27-142.26,236.55-136.58s-240.6,137.09-237.17,143C523.9,555,769.49,397.27,772.72,402.86c3.84,6.66-263.7,148.64-259.8,155.38,3.77,6.54,257.13-157.21,260.93-150.65,3.49,6.05-262.07,149.7-258.64,155.63,1,1.79,90.62-54.88,91.73-53,1.58,2.74-99.31,59.72-98,62,1.46,2.52,93-56.4,94.15-54.36,1.34,2.33-93.46,56.6-92.16,58.85,1.09,1.89,88.57-54.35,90-51.94S510,580.41,511.25,582.51s82.21-50.11,83.36-48.13S505,588.61,506.36,591.06c1.24,2.14,85.24-52.15,86.51-49.95,1.37,2.38-81.25,50.67-80.16,52.55,1.2,2.09,76.7-47.57,78.12-45.1,1.31,2.26-75.06,46.78-73.9,48.8s76.89-47,78-45.05-66.75,41.11-65.58,43.14c1,1.8,60.74-37.42,61.76-35.66.84,1.47-58.22,37.14-57.4,38.56.94,1.63,52.8-32.2,53.54-30.92s-49.1,32.6-48.5,33.64c.77,1.33,49.58-30.28,50.3-29,.82,1.42-46.05,30.33-45.41,31.44.51.88,43.66-26.76,44.34-25.6.52.91-38.06,26.81-37.55,27.7s34.48-20.86,34.89-20.15c.28.5-21.46,17.22-21.12,17.81S580.71,593,581,593.53c.19.33-10.13,10.73-9.91,11.11s5.27-3.55,5.49-3.17-5.81,9.11-5.67,9.36c0,.07,6.34-3.79,6.39-3.69"/><path class="cls-2" d="M697.2,106.6c0,.05,1.76-1.07,1.78-1,.16.28-7.09,9.31-7,9.53s10.36-6.38,10.53-6.09S683.72,124.7,684,125.14c.4.7,19.37-11.91,19.68-11.36.49.84-26.14,19.53-25.76,20.2.57,1,29.18-17.95,29.65-17.12s-39.11,27.05-38.56,28S711.43,119,712,120c.83,1.43-53.88,35.64-53.19,36.84s62-37.49,62.75-36.23c1,1.79-71.89,45.24-70.94,46.88s72.4-44.26,73.47-42.41-76.16,46.85-74.91,49c1.16,2,74.92-46.28,76.23-44,1,1.78-85.53,51.62-84.05,54.18,1.15,2,93.1-57.41,94.69-54.66s-110.9,66-109.3,68.82c1.29,2.22,107.9-66.09,109.54-63.24"/><path class="cls-2" d="M622.83,61.09s5.88-3.46,5.91-3.41c.2.36-15.3,13.56-15.07,13.95S630,61.76,630.18,62.1c.42.72-22.32,17.45-22,18s28-17.1,28.41-16.4c.55,1-32.46,23.7-31.9,24.66s37.44-22.95,38-21.95-47.79,32.09-47.09,33.29,48.49-29.57,49.18-28.39c.89,1.55-60.69,38.76-59.91,40.13s61.6-37.93,62.62-36.16c1.15,2-71.44,44.65-70.42,46.4,1.2,2.08,75.19-46.26,76.43-44.12,1.14,2-79,48.77-78,50.51,1.4,2.43,75.76-46.61,77-44.46,1.4,2.43-84.43,51.86-83.43,53.59,1.19,2.06,87-53,88.19-50.92,1.52,2.63-104.8,62.63-103.11,65.56,1.28,2.22,104.25-64.18,106-61.18"/><path class="cls-2" d="M558.9,3.86s1.76-1.07,1.78-1c.19.31-10.17,11.61-10,11.92s16-9.67,16.22-9.36c.35.61-19.46,15.74-19.14,16.29S569.6,8.2,570,8.87c.47.82-30.7,22.78-30.28,23.5S577,9.76,577.46,10.58C578.27,12,531.29,40.94,532,42.14c.58,1,43.55-26.83,44.28-25.57.83,1.44-57.89,37.75-57.12,39.08s61.55-37.79,62.53-36.1c.84,1.47-71,44.07-69.95,45.94s69.79-42.56,70.77-40.86c1.15,2-73.49,45.15-72.4,47s76.67-47,77.84-44.94c1.44,2.5-94.17,58.06-93,60,1.27,2.19,100-61.09,101.45-58.57C598,31.1,487.8,93.59,489.11,95.86S599.56,27.86,601.39,31c1.6,2.77-115,69.07-113.62,71.4,1.47,2.54,114.07-70.23,116-67,1.79,3.11-129.37,76-127.61,79,2,3.53,124.55-76.64,126.6-73.09,1.84,3.19-138,81.51-136.33,84.47C468,128.59,596.06,46.7,597.93,49.94c1.62,2.8-135.48,79.76-133.82,82.63,1.52,2.63,121.4-75.11,123.57-71.34,1.68,2.9-137.37,81.25-135.64,84.25,2,3.49,126.59-77.33,128.43-74.15,1.62,2.82-127.41,75.3-125.8,78.09,2,3.48,118.87-72.91,120.72-69.71,1.6,2.76-120.68,71.07-118.88,74.19,1.61,2.79,105.42-64.16,106.85-61.7,1.22,2.13-101.45,60.77-100.15,63,1.45,2.5,92.67-56.91,94.14-54.35s-90.05,55-89,56.86c1.2,2.08,83.06-50.29,84.07-48.54,1.1,1.92-86.25,53-85,55.12s77.05-46.76,78-45c.87,1.51-69.53,42.8-68.37,44.81,1,1.78,59.73-36.7,60.69-35s-56.51,36.89-55.61,38.45,49.73-30.45,50.48-29.15-51.39,33.22-50.62,34.56c.67,1.15,58.44-35.81,59.33-34.26.71,1.22-52.92,34.74-52.26,35.88.79,1.37,55.46-34.19,56.4-32.56.77,1.32-54.15,35.31-53.38,36.64s58.17-35.66,59.07-34.1-55.57,36.22-54.72,37.69,59.49-36.41,60.38-34.86-54.94,35.41-54.16,36.77c2.21,3.82,159.23-98.19,161.94-93.49,2,3.44-157.57,92.48-155.61,95.87,2.48,4.3,157.2-96.12,159.52-92.1,2.72,4.7-165.66,95.47-163.16,99.79,2,3.48,160.1-96.82,162-93.53s-154.53,90.18-152.22,94.19c2.47,4.27,138.93-85.58,141.25-81.56,2.23,3.86-137.23,80.14-135.06,83.89S652.24,118,653.82,120.69c1.92,3.34-133.33,78.39-131.54,81.5s117.47-71.88,119.23-68.83-112.93,66.83-111,70.11c1.28,2.21,104.38-63.65,105.84-61.11C638.13,145.5,531.15,205,532.92,208c1.47,2.54,91.79-56.43,93.27-53.85,1.24,2.15-90.24,54.66-88.82,57.1,1.16,2,83.33-50.58,84.4-48.72,1.44,2.5-83.45,50.5-82.2,52.66,1.16,2,72.4-44.31,73.49-42.43s-68.2,43.49-67.24,45.14,55.65-34.45,56.66-32.71c.84,1.46-55.92,36.11-54.92,37.84.8,1.38,59.79-36.45,60.62-35s-58.34,37.55-57.52,39,56.72-34.61,57.53-33.21-49,32.63-48.21,33.95c1,1.66,54.5-33.21,55.26-31.9,1,1.69-56.35,35.74-55.34,37.48.76,1.32,56.5-34.25,57.2-33S568.84,231.8,569.53,233c.91,1.57,55.81-33.82,56.5-32.62,1,1.67-60.15,38.38-59.38,39.71,2.21,3.83,170-104.76,172.86-99.8,2.55,4.42-163.44,94.65-161,98.86,2.21,3.83,162.14-98.89,164.42-94.93s-166.79,96-164,100.86c2.24,3.9,150.68-91.44,152.61-88.1,2.18,3.77-150.32,87-147.9,91.23,1.86,3.23,135.94-83.51,138.12-79.74,2,3.47-133.94,78.11-131.77,81.88,1.61,2.77,126.09-76.48,127.68-73.72,1.78,3.08-126.32,73.59-124.17,77.32,1.82,3.15,117.77-71.57,119.32-68.89S595.41,254.88,596.9,257.46c1.73,3,103-62.48,104.3-60.21s-100.13,60.11-98.8,62.42,93.14-56.93,94.51-54.57c1.21,2.1-96.58,57.86-95,60.54,1.27,2.2,84.54-51.5,85.71-49.49S605.45,267,606.48,268.79c1.14,2,72.6-44.07,73.54-42.45.83,1.44-64.63,40.71-63.78,42.17s55.14-34,56.07-32.37-55.86,36-55.16,37.2,50.8-30.91,51.48-29.72S623.41,274.71,624,275.68c.44.76,34-21,34.61-20,.44.77-29.61,21.85-29.11,22.7.33.58,19.82-12.12,20.11-11.61s-21.41,17.28-21,18c.19.34,17.25-10.39,17.44-10.07"/><path class="cls-1" d="M466.69,593.12l-176-20.5-98,126.76a8.5,8.5,0,0,1-2.2,2.08,45.15,45.15,0,0,0,38.82,1.15L483.25,595.05s.06,0,.09,0Z"/><path class="cls-1" d="M198.86,385.33l.32-.2-.33-.24L167.57,655.37a45.12,45.12,0,0,0,11.3,35.72,8.66,8.66,0,0,1,1.26-2.43L276,563.29Z"/><polygon class="cls-1" points="203.71 376.95 203.71 378.77 284.08 565.86 477.7 587.63 494.65 589.54 508.62 535.47 541.16 409.48 534.68 404.67 203.71 376.95"/><polygon class="cls-1" points="629.85 296.02 356.85 274.02 198.85 371.02 551.85 401.02 629.85 296.02"/></g></g></svg>