<svg width="140" height="173" viewBox="0 0 140 173" fill="none" xmlns="http://www.w3.org/2000/svg">
<path d="M36.9684 28.2982L64.5613 106.151L88.9893 105.428L36.9684 28.2982Z" fill="url(#paint0_linear_2162:334)"/>
<path d="M36.9684 28.2982L64.5613 106.151L88.9893 105.428L36.9684 28.2982Z" fill="url(#paint1_linear_2162:334)"/>
<path d="M36.9684 28.2982L64.5613 106.151L88.9893 105.428L36.9684 28.2982Z" fill="url(#paint2_linear_2162:334)"/>
<path d="M17.6004 38.8395L59.1888 123.79L64.7151 105.461L36.9687 28.2981L27.6915 14.644L17.6004 38.8395Z" fill="url(#paint3_linear_2162:334)"/>
<path d="M17.6004 38.8395L59.1888 123.79L64.7151 105.461L36.9687 28.2981L27.6915 14.644L17.6004 38.8395Z" fill="url(#paint4_linear_2162:334)"/>
<path d="M17.6004 38.8395L59.1888 123.79L64.7151 105.461L36.9687 28.2981L27.6915 14.644L17.6004 38.8395Z" fill="url(#paint5_linear_2162:334)"/>
<path d="M88.9892 105.428L27.4229 14.2222L45.0618 19.595L116.6 105.051L88.9892 105.428Z" fill="url(#paint6_linear_2162:334)"/>
<path d="M88.9892 105.428L27.4229 14.2222L45.0618 19.595L116.6 105.051L88.9892 105.428Z" fill="url(#paint7_linear_2162:334)"/>
<path d="M116.601 105.051L87.1875 105.39L117.67 126.296L116.601 105.051Z" fill="url(#paint8_linear_2162:334)"/>
<path d="M116.601 105.051L87.1875 105.39L117.67 126.296L116.601 105.051Z" fill="url(#paint9_linear_2162:334)"/>
<path d="M87.6093 105.121L64.2935 105.73L58.4988 123.637L81.0424 146.037L87.6093 105.121Z" fill="url(#paint10_linear_2162:334)"/>
<path d="M117.67 126.296L115.209 156.897L80.8889 146.728L87.1875 105.39L117.67 126.296Z" fill="url(#paint11_linear_2162:334)"/>
<path d="M117.67 126.296L115.209 156.897L80.8889 146.728L87.1875 105.39L117.67 126.296Z" fill="url(#paint12_linear_2162:334)"/>
<defs>
<linearGradient id="paint0_linear_2162:334" x1="37.2368" y1="28.7201" x2="78.5583" y2="106.73" gradientUnits="userSpaceOnUse">
<stop stop-color="#66CAF4"/>
<stop offset="0.275675" stop-color="#64CEF4"/>
<stop offset="0.317033" stop-color="#81DBF1"/>
<stop offset="0.472363" stop-color="#80DEF2"/>
<stop offset="0.524749" stop-color="#60D4F4"/>
<stop offset="1" stop-color="#59E1F3"/>
</linearGradient>
<linearGradient id="paint1_linear_2162:334" x1="81.3222" y1="94.3057" x2="61.8405" y2="101.138" gradientUnits="userSpaceOnUse">
<stop stop-color="#84FCFF"/>
<stop offset="0.0675632" stop-color="#84FCFF" stop-opacity="0"/>
</linearGradient>
<linearGradient id="paint2_linear_2162:334" x1="53.4863" y1="72.901" x2="66.5036" y2="67.7681" gradientUnits="userSpaceOnUse">
<stop stop-color="#84FCFF"/>
<stop offset="0.0675632" stop-color="#84FCFF" stop-opacity="0"/>
</linearGradient>
<linearGradient id="paint3_linear_2162:334" x1="14.4019" y1="23.0968" x2="72.9003" y2="115.069" gradientUnits="userSpaceOnUse">
<stop stop-color="#3870CB"/>
<stop offset="0.510417" stop-color="#62E3F9"/>
<stop offset="1" stop-color="#63D9F6"/>
</linearGradient>
<linearGradient id="paint4_linear_2162:334" x1="44.8922" y1="91.9964" x2="54.5175" y2="86.9068" gradientUnits="userSpaceOnUse">
<stop stop-color="#84FCFF"/>
<stop offset="0.0675632" stop-color="#84FCFF" stop-opacity="0"/>
</linearGradient>
<linearGradient id="paint5_linear_2162:334" x1="51.9913" y1="71.4817" x2="33.2861" y2="77.7531" gradientUnits="userSpaceOnUse">
<stop stop-color="#84FCFF"/>
<stop offset="0.0675632" stop-color="#84FCFF" stop-opacity="0"/>
</linearGradient>
<linearGradient id="paint6_linear_2162:334" x1="44.4491" y1="15.8367" x2="89.6795" y2="105.582" gradientUnits="userSpaceOnUse">
<stop stop-color="#4378D8"/>
<stop offset="0.333333" stop-color="#4B98E2"/>
<stop offset="0.369792" stop-color="#64BCFC"/>
<stop offset="0.5" stop-color="#62BAFA"/>
<stop offset="0.557292" stop-color="#4FA9E7"/>
<stop offset="1" stop-color="#5BD8F5"/>
</linearGradient>
<linearGradient id="paint7_linear_2162:334" x1="83.0842" y1="102.666" x2="84.1769" y2="87.7891" gradientUnits="userSpaceOnUse">
<stop stop-color="#84FCFF"/>
<stop offset="0.0675632" stop-color="#84FCFF" stop-opacity="0"/>
</linearGradient>
<linearGradient id="paint8_linear_2162:334" x1="87.4558" y1="105.812" x2="117.058" y2="116.019" gradientUnits="userSpaceOnUse">
<stop stop-color="#47B8E9"/>
<stop offset="1" stop-color="#49A2FF"/>
</linearGradient>
<linearGradient id="paint9_linear_2162:334" x1="100.072" y1="106.083" x2="101.314" y2="121.682" gradientUnits="userSpaceOnUse">
<stop stop-color="#84FCFF"/>
<stop offset="0.0675632" stop-color="#84FCFF" stop-opacity="0"/>
</linearGradient>
<linearGradient id="paint10_linear_2162:334" x1="66.6139" y1="104.254" x2="89.6912" y2="140.536" gradientUnits="userSpaceOnUse">
<stop stop-color="#98FEFE"/>
<stop offset="1" stop-color="#6FE7F7"/>
</linearGradient>
<linearGradient id="paint11_linear_2162:334" x1="81.7033" y1="108.878" x2="113.099" y2="158.239" gradientUnits="userSpaceOnUse">
<stop stop-color="#6AE1FF"/>
<stop offset="1" stop-color="#5CAFFE"/>
</linearGradient>
<linearGradient id="paint12_linear_2162:334" x1="84.3833" y1="126.135" x2="117.169" y2="136.689" gradientUnits="userSpaceOnUse">
<stop stop-color="#84FCFF"/>
<stop offset="0.0675632" stop-color="#84FCFF" stop-opacity="0"/>
</linearGradient>
</defs>
</svg>
