<svg width="1638" height="956" viewBox="0 0 1638 956" fill="none" xmlns="http://www.w3.org/2000/svg">
<g clip-path="url(#clip0)">
<path fill-rule="evenodd" clip-rule="evenodd" d="M791.359 729.179H226.984V595.507H791.359V729.179Z" fill="#B6D4FF"/>
<path fill-rule="evenodd" clip-rule="evenodd" d="M633.025 623.794H226.137C204.959 623.794 187.285 607.623 185.408 586.527L172.683 443.514C170.555 419.595 189.4 399 213.413 399H620.301C641.48 399 659.154 415.171 661.031 436.267L673.754 579.28C675.882 603.199 657.039 623.794 633.025 623.794" fill="#B6D4FF"/>
<path fill-rule="evenodd" clip-rule="evenodd" d="M967.926 794.124H809.565C786.141 794.124 767.739 774.068 769.751 750.729L782.861 598.678C784.642 578.015 801.935 562.149 822.674 562.149H981.035C1004.46 562.149 1022.86 582.205 1020.85 605.543L1007.74 757.595C1005.96 778.258 988.666 794.124 967.926 794.124" fill="#B6D4FF"/>
<path fill-rule="evenodd" clip-rule="evenodd" d="M755.445 623.794H303.416C282.237 623.794 264.563 607.623 262.686 586.527L249.963 443.514C247.835 419.595 266.678 399 290.692 399H742.721C763.9 399 781.574 415.171 783.451 436.267L796.175 579.28C798.302 603.199 779.459 623.794 755.445 623.794" fill="#DCEEFF"/>
<path fill-rule="evenodd" clip-rule="evenodd" d="M951.206 794.124H260.967V724.122H951.206V794.124Z" fill="#CCE3FF"/>
<path fill-rule="evenodd" clip-rule="evenodd" d="M856.971 724.122H371.338C347.219 724.122 327.667 704.57 327.667 680.452C327.667 656.334 347.219 636.782 371.338 636.782H856.971C881.089 636.782 900.641 656.334 900.641 680.452C900.641 704.57 881.089 724.122 856.971 724.122" fill="#DCEEFF"/>
<path fill-rule="evenodd" clip-rule="evenodd" d="M129.796 850.84H113.232L120.232 794.124H150.796L129.796 850.84Z" fill="#B6D4FF"/>
<path fill-rule="evenodd" clip-rule="evenodd" d="M272.154 850.84H255.591L262.591 794.124H293.154L272.154 850.84Z" fill="#B6D4FF"/>
<path fill-rule="evenodd" clip-rule="evenodd" d="M948.591 850.84H965.154L958.154 794.124H927.591L948.591 850.84Z" fill="#B6D4FF"/>
<path fill-rule="evenodd" clip-rule="evenodd" d="M806.231 850.84H822.795L815.795 794.124H785.231L806.231 850.84Z" fill="#B6D4FF"/>
<path fill-rule="evenodd" clip-rule="evenodd" d="M967.926 794.124H944.197C920.772 794.124 902.37 774.068 904.382 750.729L917.491 598.678C919.273 578.015 936.566 562.149 957.306 562.149H981.035C1004.46 562.149 1022.86 582.205 1020.85 605.543L1007.74 757.595C1005.96 778.258 988.666 794.124 967.926 794.124" fill="#CCE3FF"/>
<path fill-rule="evenodd" clip-rule="evenodd" d="M284.112 794.124H105.751C85.0114 794.124 67.7184 778.258 65.9374 757.595L52.8284 605.543C50.8154 582.205 69.2164 562.149 92.6414 562.149H271.003C291.742 562.149 309.035 578.015 310.816 598.678L323.925 750.729C325.938 774.068 307.537 794.124 284.112 794.124" fill="#B6D4FF"/>
<path fill-rule="evenodd" clip-rule="evenodd" d="M284.112 794.124H260.383C239.642 794.124 222.349 778.258 220.568 757.595L207.459 605.543C205.447 582.205 223.848 562.149 247.273 562.149H271.003C291.742 562.149 309.035 578.015 310.816 598.678L323.925 750.729C325.938 774.068 307.537 794.124 284.112 794.124" fill="#CCE3FF"/>
<path fill-rule="evenodd" clip-rule="evenodd" d="M1441.96 670.1L1495.83 886.885H1483.24L1429.37 670.1H1441.96Z" fill="#CCE3FF"/>
<path d="M1378.38 777.475L1348.58 672.301" stroke="#B6D4FF" stroke-width="7"/>
<path d="M1401.7 672.301L1324.05 777.182" stroke="#B6D4FF" stroke-width="7"/>
<path fill-rule="evenodd" clip-rule="evenodd" d="M1401.7 672.301L1513.06 776.01Z" fill="white"/>
<path d="M1401.7 672.301L1513.06 776.01" stroke="#B6D4FF" stroke-width="7"/>
<path fill-rule="evenodd" clip-rule="evenodd" d="M1355.14 669.97L1302.05 886.885H1289.64L1342.74 669.97H1355.14Z" fill="#CCE3FF"/>
<path d="M1488.69 672.301L1378.38 776.01" stroke="#B6D4FF" stroke-width="7"/>
<path fill-rule="evenodd" clip-rule="evenodd" d="M1495.1 670.1L1548.97 886.885H1536.38L1482.51 670.1H1495.1Z" fill="#DCEEFF"/>
<path fill-rule="evenodd" clip-rule="evenodd" d="M1408.2 670.1L1354.33 886.885H1341.74L1395.61 670.1H1408.2Z" fill="#DCEEFF"/>
<path fill-rule="evenodd" clip-rule="evenodd" d="M1281.65 645.941V647.6C1281.65 661.451 1292.88 672.67 1306.72 672.67H1503.09C1533.38 672.67 1556.69 644.861 1552.51 613.701L1530.34 440.081C1528.42 425.701 1516.59 415.001 1502.61 415.001H1444.41C1430.44 415.001 1418.61 425.701 1416.68 440.081L1394.51 613.701C1394.34 614.941 1394.22 616.18 1394.15 617.411L1394.03 617.39C1394.03 617.39 1389.93 645.941 1351.81 645.941H1281.65Z" fill="#DCEEFF"/>
<path fill-rule="evenodd" clip-rule="evenodd" d="M1194.85 476.334C1194.85 506.894 1176.27 531.667 1153.35 531.667C1130.43 531.667 1111.85 506.894 1111.85 476.334C1111.85 445.774 1130.43 421.001 1153.35 421.001C1176.27 421.001 1194.85 445.774 1194.85 476.334" fill="#CCE3FF"/>
<path d="M1153.66 766.963V479.147" stroke="#DCEEFF" stroke-width="9"/>
<path fill-rule="evenodd" clip-rule="evenodd" d="M1108.97 557.617C1128.57 577.215 1132.54 605.016 1117.84 619.715C1103.14 634.412 1075.34 630.441 1055.74 610.844C1036.15 591.246 1032.18 563.444 1046.87 548.746C1061.57 534.048 1089.37 538.02 1108.97 557.617" fill="#CCE3FF"/>
<path fill-rule="evenodd" clip-rule="evenodd" d="M1248.9 597.881C1264.7 613.684 1260.43 643.576 1239.36 664.647C1218.29 685.717 1188.4 689.987 1172.6 674.184" fill="#CCE3FF"/>
<path d="M1227.61 625.719L1154.89 698.645" stroke="#DCEEFF" stroke-width="9"/>
<path d="M1206.6 555.98L1153.46 608.497" stroke="#DCEEFF" stroke-width="9"/>
<path d="M1098.28 671.258L1153.79 727.4" stroke="#DCEEFF" stroke-width="9"/>
<path d="M1079.14 581.391L1153.35 656.488" stroke="#DCEEFF" stroke-width="9"/>
<path fill-rule="evenodd" clip-rule="evenodd" d="M1175.92 865.809H1131.41C1097.23 865.809 1069.26 837.84 1069.26 803.655V745.169H1238.07V803.655C1238.07 837.84 1210.1 865.809 1175.92 865.809" fill="#ECF6FF"/>
<path d="M1238.07 777.676H1069.26" stroke="#DCEEFF" stroke-width="9"/>
<path d="M1238.07 810.282H1069.26" stroke="#DCEEFF" stroke-width="9"/>
<path d="M652.555 373.265L651.7 343.776C651.7 343.776 687.606 346.629 695.288 342.647C695.288 342.647 702.875 294.101 693.252 266.605L617.478 257.76L611.942 301.813C609.39 294.299 589.613 285.12 584.106 295.879C572.173 319.192 614.841 334.89 614.841 334.89L610.509 373.619" fill="#DCEEFF"/>
<path d="M614.612 304.409C607.385 294.511 598.03 291.771 595.448 291.181C592.301 277.091 588.603 240.613 632.675 234.826C685.29 227.918 693.252 266.605 693.252 266.605L625.475 265.776V301.7L614.612 304.409V304.409Z" fill="#FCBDA4"/>
<path opacity="0.402158" fill-rule="evenodd" clip-rule="evenodd" d="M651.7 343.775L627.488 338.594L651.583 354.839L651.7 343.775Z" fill="black"/>
<path fill-rule="evenodd" clip-rule="evenodd" d="M671.672 295.586L680.039 316L670.01 316.127L671.672 295.586Z" fill="#405FD3"/>
<path fill-rule="evenodd" clip-rule="evenodd" d="M662.132 301.387C662.631 304.136 660.801 306.768 658.047 307.264C655.292 307.762 652.655 305.936 652.158 303.188C651.659 300.439 653.489 297.807 656.243 297.31C658.998 296.813 661.634 298.638 662.132 301.387" fill="#0D0B6D"/>
<path fill-rule="evenodd" clip-rule="evenodd" d="M688.448 301.387C688.946 304.136 687.117 306.768 684.363 307.264C681.608 307.762 678.971 305.936 678.473 303.188C677.974 300.439 679.804 297.807 682.558 297.31C685.313 296.813 687.949 298.638 688.448 301.387" fill="#0D0B6D"/>
<path fill-rule="evenodd" clip-rule="evenodd" d="M661.268 321.907C661.268 321.907 664.773 327.579 671.714 327.098Z" fill="white"/>
<path d="M661.268 321.907C661.268 321.907 664.773 327.579 671.714 327.098" stroke="#252535" stroke-width="4"/>
<path fill-rule="evenodd" clip-rule="evenodd" d="M499.16 472.138C501.392 502.254 526.825 517.137 546.683 524.208L545.131 532.517C542.717 545.446 553.479 557.269 567.664 557.269H697.511C711.437 557.269 722.129 545.853 720.145 533.103L718.863 524.867C739.396 518.127 767.853 504.116 767.139 478.35C766.034 438.516 722.401 401.041 699.2 383.883C690.805 374.792 678.761 371.19 661.45 366.011C659.491 365.425 657.464 364.819 655.367 364.182C655.367 364.182 599.664 355.102 571.459 368.333C564.063 371.803 557.977 376.757 552.981 382.384C530.001 401 496.399 434.88 499.16 472.138Z" fill="#BBD4F8"/>
<path opacity="0.199009" d="M701.149 445.916L698.891 446.988L700.342 450.046L702.838 447.76L701.149 445.916ZM685.9 413.793L688.158 412.721L687.086 410.462L684.828 411.534L685.9 413.793ZM681.383 415.937L680.311 413.679L678.052 414.751L679.125 417.009L681.383 415.937ZM698.084 451.118L700.342 450.046L700.342 450.046L698.084 451.118ZM699.535 454.175L697.277 455.247L698.728 458.304L701.224 456.018L699.535 454.175ZM702.031 451.889L700.342 450.046L700.342 450.046L702.031 451.889ZM706.391 447.896L708.08 449.739L709.924 448.051L708.235 446.207L706.391 447.896ZM703.014 444.208L704.858 442.52L703.17 440.676L701.326 442.365L703.014 444.208ZM702.601 448.973L700.342 450.046L700.342 450.046L702.601 448.973ZM701.149 445.916L703.408 444.844L701.957 441.787L699.461 444.073L701.149 445.916ZM702.779 449.349L703.851 451.607L706.109 450.535L705.037 448.277L702.779 449.349ZM700.636 450.366L699.564 448.108L696.507 449.559L698.792 452.055L700.636 450.366ZM702.031 451.889L703.719 453.733L705.563 452.044L703.874 450.201L702.031 451.889ZM685.33 467.184L683.486 468.873L685.175 470.717L687.018 469.028L685.33 467.184ZM681.953 463.497L680.264 461.654L678.421 463.342L680.109 465.186L681.953 463.497ZM698.654 448.202L696.965 446.358L696.965 446.358L698.654 448.202ZM580.323 447.342L582.564 448.452L582.564 448.452L580.323 447.342ZM600.177 407.268L602.417 408.378L603.527 406.138L601.287 405.028L600.177 407.268ZM579.21 449.589L578.093 451.826L580.337 452.946L581.45 450.699L579.21 449.589ZM576.966 448.469L575.849 450.705L575.849 450.705L576.966 448.469ZM565.727 442.855L563.49 441.738L562.373 443.975L564.61 445.092L565.727 442.855ZM567.961 438.382L569.078 436.146L566.841 435.029L565.724 437.265L567.961 438.382ZM576.957 442.875L575.84 445.111L578.083 446.232L579.197 443.985L576.957 442.875ZM595.697 405.049L596.807 402.808L594.566 401.699L593.457 403.939L595.697 405.049ZM579.2 443.995L578.083 446.232L578.083 446.232L579.2 443.995ZM576.957 442.875L578.074 440.638L575.83 439.518L574.716 441.765L576.957 442.875ZM617.462 463.104L619.699 464.221L620.816 461.985L618.579 460.868L617.462 463.104ZM615.228 467.577L614.111 469.814L616.348 470.931L617.465 468.694L615.228 467.577ZM576.966 448.469L574.73 447.352L573.613 449.588L575.849 450.705L576.966 448.469ZM577.071 448.258L579.308 449.375L580.429 447.131L578.181 446.018L577.071 448.258ZM574.838 447.152L572.598 446.042L571.488 448.282L573.728 449.392L574.838 447.152ZM575.843 445.122L578.083 446.232L578.083 446.232L575.843 445.122ZM703.408 444.844L688.158 412.721L683.641 414.865L698.891 446.988L703.408 444.844ZM684.828 411.534L680.311 413.679L682.455 418.195L686.972 416.051L684.828 411.534ZM679.125 417.009L695.825 452.19L700.342 450.046L683.641 414.865L679.125 417.009ZM695.825 452.19L697.277 455.247L701.794 453.103L700.342 450.046L695.825 452.19ZM701.224 456.018L703.719 453.733L700.342 450.046L697.847 452.331L701.224 456.018ZM703.719 453.733L708.08 449.739L704.703 446.052L700.342 450.046L703.719 453.733ZM708.235 446.207L704.858 442.52L701.171 445.897L704.548 449.584L708.235 446.207ZM701.326 442.365L699.461 444.073L702.838 447.76L704.703 446.052L701.326 442.365ZM704.859 447.901L703.408 444.844L698.891 446.988L700.342 450.046L704.859 447.901ZM705.037 448.277L704.859 447.901L700.342 450.046L700.52 450.421L705.037 448.277ZM701.708 452.625L703.851 451.607L701.707 447.09L699.564 448.108L701.708 452.625ZM703.874 450.201L702.479 448.678L698.792 452.055L700.187 453.578L703.874 450.201ZM687.018 469.028L703.719 453.733L700.342 450.046L683.641 465.341L687.018 469.028ZM680.109 465.186L683.486 468.873L687.174 465.496L683.797 461.809L680.109 465.186ZM696.965 446.358L680.264 461.654L683.641 465.341L700.342 450.046L696.965 446.358ZM699.461 444.073L696.965 446.358L700.342 450.046L702.838 447.76L699.461 444.073ZM582.564 448.452L602.417 408.378L597.937 406.158L578.083 446.232L582.564 448.452ZM581.45 450.699L582.564 448.452L578.083 446.232L576.97 448.479L581.45 450.699ZM575.849 450.705L578.093 451.826L580.327 447.353L578.083 446.232L575.849 450.705ZM564.61 445.092L575.849 450.705L578.083 446.232L566.844 440.619L564.61 445.092ZM565.724 437.265L563.49 441.738L567.964 443.972L570.198 439.499L565.724 437.265ZM578.074 440.638L569.078 436.146L566.844 440.619L575.84 445.111L578.074 440.638ZM593.457 403.939L574.716 441.765L579.197 443.985L597.937 406.158L593.457 403.939ZM601.287 405.028L596.807 402.808L594.587 407.289L599.067 409.508L601.287 405.028ZM580.317 441.759L578.074 440.638L575.84 445.111L578.083 446.232L580.317 441.759ZM618.579 460.868L580.317 441.759L578.083 446.232L616.345 465.341L618.579 460.868ZM617.465 468.694L619.699 464.221L615.225 461.987L612.991 466.46L617.465 468.694ZM575.849 450.705L614.111 469.814L616.345 465.341L578.083 446.232L575.849 450.705ZM574.835 447.141L574.73 447.352L579.203 449.586L579.308 449.375L574.835 447.141ZM573.728 449.392L575.962 450.498L578.181 446.018L575.948 444.911L573.728 449.392ZM573.603 444.012L572.598 446.042L577.078 448.261L578.083 446.232L573.603 444.012ZM574.716 441.765L573.603 444.012L578.083 446.232L579.197 443.985L574.716 441.765Z" fill="#657287"/>
<path opacity="0.203218" fill-rule="evenodd" clip-rule="evenodd" d="M650.818 401.799C650.818 405.255 648.017 408.055 644.562 408.055C641.106 408.055 638.305 405.255 638.305 401.799C638.305 398.344 644.562 389.543 644.562 389.543C644.562 389.543 650.818 398.344 650.818 401.799" fill="#657287"/>
<path opacity="0.195964" d="M590.101 526.389C590.101 526.389 616.206 526.035 616.346 461.777" stroke="#657287" stroke-width="5"/>
<path opacity="0.199009" d="M704.703 523.389C704.703 523.389 684.81 523.066 684.703 464.389" stroke="#657287" stroke-width="5"/>
<path opacity="0.203497" d="M645.896 408.055C649.768 435.98 660.074 462.777 653.417 557.235" stroke="#657287" stroke-width="3"/>
<path fill-rule="evenodd" clip-rule="evenodd" d="M563.151 371.981C563.151 371.981 569.849 338.914 612.572 339C632.611 339.04 636.799 350.161 635.597 361.96C635.562 362.3 634.304 362.126 633.512 362.016C633.338 361.992 633.187 361.971 633.076 361.96C630.039 361.64 628.856 361.574 626.932 361.467L626.932 361.467L626.931 361.467C626.576 361.447 626.196 361.426 625.774 361.401C625.699 361.397 625.624 361.393 625.549 361.389L643.977 381.785L655.872 350.39L679.767 370.957L643.537 393.953C643.537 393.953 605.741 370.09 593.304 362.666L563.151 371.981ZM704.689 541.441H652.989H590.264L591.264 526.797C606.999 521.233 615.903 502.219 615.634 461.777L651.554 462.308L683.328 462.777C683.641 498.158 690.081 514.158 703.689 525.797L704.689 541.441Z" fill="#EFEFEF"/>
<path opacity="0.201474" d="M645.896 408.055C650.073 433.399 660.146 462.542 653.489 557" stroke="#657287" stroke-width="3"/>
<path fill-rule="evenodd" clip-rule="evenodd" d="M867.437 860.937L867.723 834.549L835.991 817.411L831.385 892.845H941.325C922.619 870.255 867.437 860.937 867.437 860.937ZM691.381 859.892L691.684 828.506L657.415 826.763L654.297 858.157L646.328 892.595H726.013C715.995 863.338 691.381 859.892 691.381 859.892Z" fill="#B6D4FF"/>
<path fill-rule="evenodd" clip-rule="evenodd" d="M691.683 828.506L658.079 817.679L654.296 858.157L691.381 859.892L691.683 828.506ZM867.722 834.549L835.99 824.326L833.432 859.298L867.436 860.936L867.722 834.549Z" fill="#DCEEFF"/>
<path fill-rule="evenodd" clip-rule="evenodd" d="M654.98 557H562V581.78C562 612.572 587.169 637.533 618.217 637.533H645.794H659.208L649.426 845.69H707.228L728.722 637.533H829.126L826.419 845.69H885.209L912.975 632.18C917.948 592.255 886.847 557 846.657 557H688.186H654.98Z" fill="#B6D4FF"/>
<path opacity="0.101632" fill-rule="evenodd" clip-rule="evenodd" d="M562 557H688.186C714.254 557 734.635 579.303 732.078 605.032L707.228 845.69H649.426L659.208 637.533H618.217C587.169 637.533 562 612.572 562 581.78V557Z" fill="white"/>
<mask id="mask0" mask-type="alpha" maskUnits="userSpaceOnUse" x="528" y="161" width="53" height="187">
<path d="M560.941 166.324L573.447 161L580.462 347.04C580.462 347.04 574.972 347.04 568.567 344.969C551.791 337.279 536.845 336.392 536.845 336.392V322.787L529.83 321.012C529.83 321.012 528 256.534 528 252.097C528 247.661 530.745 245.295 530.745 245.295L553.926 235.534L556.061 173.718L560.941 166.324Z" fill="#C4C4C4"/>
</mask>
<g mask="url(#mask0)">
<path d="M560.941 166.324L573.447 161L580.462 347.04C580.462 347.04 574.972 347.04 568.567 344.969C551.791 337.279 536.845 336.392 536.845 336.392V322.787L529.83 321.012C529.83 321.012 528 256.534 528 252.097C528 247.661 530.745 245.295 530.745 245.295L553.926 235.534L556.061 173.718L560.941 166.324Z" fill="#CCE3FF"/>
<path d="M561.551 168.69L565.821 340.533" stroke="#B6D4FF" stroke-width="2" stroke-linecap="round" stroke-linejoin="round"/>
<path d="M558.806 335.209C564.296 344.378 565.313 343.983 566.736 344.378V345.561L536.235 339.35L527.695 321.308C536.845 322.688 553.915 327.041 558.806 335.209Z" fill="#B6D4FF"/>
<path d="M553.011 233.464L560.026 335.209C560.026 335.209 554.785 259.196 538.065 252.097C531.08 249.132 528.61 253.576 528.61 253.576L527.695 255.647L525.255 247.661L553.011 233.464Z" fill="#DCEEFF"/>
<path d="M529.51 292.323C549.636 289.661 547.505 327.224 547.505 327.224C547.505 327.224 537.745 321.604 529.51 321.309V292.323Z" fill="#B6D4FF"/>
</g>
<path d="M573.448 161.61C626.827 162.525 737.24 182.654 737.24 182.654L747 336.671C747 336.671 635.976 360.459 577.718 346.735L573.448 161.61Z" fill="#DCEEFF"/>
<g filter="url(#filter0_ii)">
<path d="M731.748 310.136L596.628 315.321L592.663 187.533C618.589 184.483 723.818 201.562 723.818 201.562C728.393 219.251 731.748 310.136 731.748 310.136Z" fill="#B6D4FF"/>
</g>
<rect width="7.3203" height="9.14951" transform="matrix(0.997859 -0.065397 0 1 719.853 328.131)" fill="white"/>
<ellipse rx="4.57518" ry="2.74485" transform="matrix(0.997457 -0.0712674 0.071281 0.997456 642.742 339.205)" fill="#CCE3FF"/>
<ellipse rx="4.57518" ry="2.74484" transform="matrix(0.997457 -0.0712672 0.0712812 0.997456 657.65 338.14)" fill="#CCE3FF"/>
<ellipse rx="4.57519" ry="2.74485" transform="matrix(0.997457 -0.0712673 0.0712811 0.997456 672.862 337.053)" fill="#CCE3FF"/>
<ellipse rx="4.57519" ry="2.74485" transform="matrix(0.997457 -0.0712672 0.0712812 0.997456 688.074 335.966)" fill="#CCE3FF"/>
<path fill-rule="evenodd" clip-rule="evenodd" d="M637.5 255C644.956 255 651 248.956 651 241.5C651 239.416 650.528 237.442 649.684 235.68C648.87 236.495 647.744 237 646.5 237C644.015 237 642 234.985 642 232.5C642 231.256 642.505 230.13 643.32 229.316C641.558 228.472 639.584 228 637.5 228C630.044 228 624 234.044 624 241.5C624 248.956 630.044 255 637.5 255Z" fill="#DCEEFF"/>
<path fill-rule="evenodd" clip-rule="evenodd" d="M701.5 257C708.404 257 714 251.404 714 244.5C714 242.294 713.429 240.222 712.426 238.423C711.873 238.788 711.212 239 710.5 239C708.567 239 707 237.433 707 235.5C707 234.788 707.212 234.127 707.577 233.574C705.778 232.571 703.706 232 701.5 232C694.596 232 689 237.596 689 244.5C689 251.404 694.596 257 701.5 257Z" fill="#DCEEFF"/>
<path d="M660 273C660 274.576 660.349 276.136 661.028 277.592C661.706 279.048 662.7 280.371 663.954 281.485C665.208 282.6 666.696 283.483 668.334 284.087C669.972 284.69 671.727 285 673.5 285C675.273 285 677.028 284.69 678.666 284.087C680.304 283.483 681.792 282.6 683.046 281.485C684.3 280.371 685.294 279.048 685.972 277.592C686.651 276.136 687 274.576 687 273" stroke="#DCEEFF" stroke-width="5" stroke-linecap="round"/>
</g>
<defs>
<filter id="filter0_ii" x="592.663" y="187.168" width="139.086" height="128.153" filterUnits="userSpaceOnUse" color-interpolation-filters="sRGB">
<feFlood flood-opacity="0" result="BackgroundImageFix"/>
<feBlend mode="normal" in="SourceGraphic" in2="BackgroundImageFix" result="shape"/>
<feColorMatrix in="SourceAlpha" type="matrix" values="0 0 0 0 0 0 0 0 0 0 0 0 0 0 0 0 0 0 127 0" result="hardAlpha"/>
<feOffset dx="-4" dy="7"/>
<feComposite in2="hardAlpha" operator="arithmetic" k2="-1" k3="1"/>
<feColorMatrix type="matrix" values="0 0 0 0 0 0 0 0 0 0 0 0 0 0 0 0 0 0 0.25 0"/>
<feBlend mode="normal" in2="shape" result="effect1_innerShadow"/>
<feColorMatrix in="SourceAlpha" type="matrix" values="0 0 0 0 0 0 0 0 0 0 0 0 0 0 0 0 0 0 127 0" result="hardAlpha"/>
<feOffset dx="5" dy="-5"/>
<feComposite in2="hardAlpha" operator="arithmetic" k2="-1" k3="1"/>
<feColorMatrix type="matrix" values="0 0 0 0 1 0 0 0 0 1 0 0 0 0 1 0 0 0 0.25 0"/>
<feBlend mode="normal" in2="effect1_innerShadow" result="effect2_innerShadow"/>
</filter>
<clipPath id="clip0">
<rect width="1638" height="956" fill="white"/>
</clipPath>
</defs>
</svg>
