<svg width="3014" height="1837" viewBox="0 0 3014 1837" fill="none" xmlns="http://www.w3.org/2000/svg">
<path fill-rule="evenodd" clip-rule="evenodd" d="M869.038 1366.29V1366.28L850.928 1225.96H1070.49L1088.6 1366.29H869.038Z" fill="#ECF6FF"/>
<path fill-rule="evenodd" clip-rule="evenodd" d="M649.897 1371.65C649.897 1404.12 623.573 1430.45 591.1 1430.45C558.628 1430.45 532.304 1404.12 532.304 1371.65C532.304 1339.18 558.628 1312.85 591.1 1312.85C623.573 1312.85 649.897 1339.18 649.897 1371.65Z" fill="#B6D4FF"/>
<path fill-rule="evenodd" clip-rule="evenodd" d="M1107.37 1371.65C1107.37 1404.12 1081.05 1430.45 1048.57 1430.45C1016.1 1430.45 989.776 1404.12 989.776 1371.65C989.776 1339.18 1016.1 1312.85 1048.57 1312.85C1081.05 1312.85 1107.37 1339.18 1107.37 1371.65Z" fill="#B6D4FF"/>
<path fill-rule="evenodd" clip-rule="evenodd" d="M901.649 1366.29H257.379C218.299 1366.29 185.29 1337.27 180.29 1298.51L171 1226.52L295.37 1225.96L295.359 1225.91L261.58 996.502H767.979L850.281 1224.18L850.93 1225.96L901.649 1366.29Z" fill="#CCE3FF"/>
<path fill-rule="evenodd" clip-rule="evenodd" d="M901.65 1366.29H749.951L735.701 1326.88L729.77 1310.46L699.23 1225.96L616.291 996.502H767.98L850.281 1224.18L850.93 1225.96L901.65 1366.29Z" fill="white"/>
<path fill-rule="evenodd" clip-rule="evenodd" d="M649.59 1225.91H490.83L457.05 996.502H566.66L599.95 1088.6L611.42 1120.32L638.59 1195.48L641.44 1203.35L649.59 1225.91Z" fill="white"/>
<path fill-rule="evenodd" clip-rule="evenodd" d="M944.01 1366.28H692.01V1225.96H843.733C890.721 1225.96 930.403 1260.85 936.417 1307.45L944.01 1366.28Z" fill="#CCE3FF"/>
<path fill-rule="evenodd" clip-rule="evenodd" d="M984.7 1225.96V1366.28H944.01L925.899 1225.96H984.7Z" fill="#CCE3FF"/>
<path fill-rule="evenodd" clip-rule="evenodd" d="M944.01 1366.29V1366.28L925.9 1225.96H1077.59C1116.4 1225.96 1149.18 1254.77 1154.15 1293.27L1163.57 1366.29H944.01Z" fill="#ECF6FF"/>
<path fill-rule="evenodd" clip-rule="evenodd" d="M292.055 1367.49C292.055 1328.38 325.306 1296.68 366.324 1296.68C407.341 1296.68 440.592 1328.38 440.592 1367.49H292.055Z" fill="white"/>
<path fill-rule="evenodd" clip-rule="evenodd" d="M749.526 1367.49C749.526 1328.38 782.777 1296.68 823.795 1296.68C864.812 1296.68 898.063 1328.38 898.063 1367.49H749.526Z" fill="white"/>
<path fill-rule="evenodd" clip-rule="evenodd" d="M882.592 1371.65C882.592 1404.12 856.268 1430.45 823.795 1430.45C791.323 1430.45 764.999 1404.12 764.999 1371.65C764.999 1339.18 791.323 1312.85 823.795 1312.85C856.268 1312.85 882.592 1339.18 882.592 1371.65Z" fill="#B6D4FF"/>
<path fill-rule="evenodd" clip-rule="evenodd" d="M1138.03 1295.39C1138.03 1309.39 1128.79 1320.74 1117.38 1320.74C1105.97 1320.74 1096.72 1309.39 1096.72 1295.39C1096.72 1281.39 1105.97 1270.04 1117.38 1270.04C1128.79 1270.04 1138.03 1281.39 1138.03 1295.39Z" fill="white"/>
<path fill-rule="evenodd" clip-rule="evenodd" d="M1007.56 1295.39C1007.56 1309.39 998.315 1320.74 986.907 1320.74C975.499 1320.74 966.252 1309.39 966.252 1295.39C966.252 1281.39 975.499 1270.04 986.907 1270.04C998.315 1270.04 1007.56 1281.39 1007.56 1295.39Z" fill="white"/>
<path fill-rule="evenodd" clip-rule="evenodd" d="M425.119 1371.65C425.119 1404.12 398.796 1430.45 366.323 1430.45C333.85 1430.45 307.526 1404.12 307.526 1371.65C307.526 1339.18 333.85 1312.85 366.323 1312.85C398.796 1312.85 425.119 1339.18 425.119 1371.65Z" fill="#B6D4FF"/>
<path fill-rule="evenodd" clip-rule="evenodd" d="M1033.66 1306.34H1076.65V1284.44H1033.66V1306.34Z" fill="#CCE3FF"/>
<path fill-rule="evenodd" clip-rule="evenodd" d="M518.12 1225.91V1225.93H406.29L372.51 996.502H484.33L518.12 1225.91Z" fill="white"/>
<path fill-rule="evenodd" clip-rule="evenodd" d="M364.31 1225.91H252.48L174.375 1225.96L265.914 996.5L330.52 996.502L364.31 1225.91Z" fill="white"/>
<path d="M850.928 1225.96L850.278 1224.18L767.98 996.502" stroke="#CCE3FF" stroke-width="7"/>
<path d="M176.048 1265.65H773.795" stroke="white" stroke-width="3"/>
<path d="M174.375 1225.96L265.914 996.5H766.628" stroke="#CCE3FF" stroke-width="7"/>
<path fill-rule="evenodd" clip-rule="evenodd" d="M661.452 1213.83H593.144C575.472 1213.83 561.144 1199.5 561.144 1181.83C561.144 1164.16 575.472 1149.83 593.144 1149.83H661.452V1213.83Z" fill="#B6D4FF"/>
<path fill-rule="evenodd" clip-rule="evenodd" d="M1470.88 1479.69L1471.16 1455.58L1440.15 1439.92L1435.65 1508.85H1543.08C1524.8 1488.21 1470.88 1479.69 1470.88 1479.69ZM1336.24 1480.63L1336.52 1453.55L1304.89 1452.04L1302.02 1479.13L1294.66 1508.85H1368.19C1358.95 1483.61 1336.24 1480.63 1336.24 1480.63Z" fill="#121212"/>
<path fill-rule="evenodd" clip-rule="evenodd" d="M1336.52 1453.55L1305.51 1444.21L1302.02 1479.13L1336.24 1480.63L1336.52 1453.55ZM1471.16 1455.58L1440.15 1446.24L1437.65 1478.19L1470.88 1479.69L1471.16 1455.58Z" fill="#E576C6"/>
<path d="M1422.56 1108.89L1349.79 1469.5H1294L1360.74 993H1492.73L1488.14 1467.65L1471.01 1467.9L1438.41 1468.39H1438.3L1429.98 1468.51L1422.56 1108.89Z" fill="#38387D"/>
<path opacity="0.200893" fill-rule="evenodd" clip-rule="evenodd" d="M1422.76 1106.22L1435.31 1050.43L1425.87 1219.56L1422.76 1106.22Z" fill="black"/>
<path d="M1336.69 1019.3L1339.15 1024C1339.15 1024 1341.38 1027.85 1343.72 1034.56C1346.05 1041.27 1345.08 1045.38 1350.13 1055.92C1355.87 1067.89 1345.61 1062.96 1341.93 1057.73C1339.06 1053.65 1339.39 1048.14 1335.67 1045.67C1334.42 1047.68 1331.57 1050.54 1329.98 1067.81C1329.69 1070.9 1331.09 1080.95 1331.09 1080.95C1331.12 1083.96 1331.5 1090.24 1328.1 1091.19C1327.25 1091.43 1326.15 1090.49 1326.15 1090.49C1326.15 1090.49 1326.48 1094.42 1323 1095.2C1321.63 1095.51 1318.92 1087.03 1318.92 1087.03C1318.92 1087.03 1318.5 1091.34 1315.9 1091.81C1315.17 1091.95 1306.49 1067.38 1306.49 1067.38L1307.01 1072.93L1308.16 1078.61C1308.16 1078.61 1308.07 1081.67 1305.63 1082.21C1304.66 1082.43 1302.79 1077.32 1301.05 1071.32C1298.34 1061.98 1298.39 1054.96 1299.19 1047.98C1300.15 1039.54 1299.72 1036.71 1303.46 1026.36C1303.9 1025.13 1304.5 1023.7 1305.17 1022.24C1303.12 1004.46 1297.35 952.4 1298.06 936.418C1298.92 917.033 1343.72 846 1343.72 846L1370.5 831L1380.6 873.311L1337.94 939.187L1336.69 1019.3Z" fill="#E576C6"/>
<path d="M1510.5 962.5C1521.65 973.968 1542.95 996.256 1557.31 1006.95L1570.68 993.981L1532 937.5L1514.31 890.703L1491.34 900.843C1491.34 900.843 1496.97 948.591 1510.5 962.5Z" fill="#E576C6"/>
<path d="M1393 818C1427.5 805 1461 822 1461 822V845H1393V818Z" fill="#E576C6"/>
<path fill-rule="evenodd" clip-rule="evenodd" d="M1567.41 991.06C1567.41 991.06 1555.76 998.005 1555.78 1004.4C1555.84 1022.71 1581.85 1044 1581.85 1044C1581.85 1044 1574.42 1043.1 1574.59 1046.68C1574.67 1048.27 1578.29 1059.65 1600.68 1050.64C1603.05 1049.69 1606.64 1042.56 1606.64 1042.56C1606.64 1042.56 1605.9 1052.01 1612.86 1050.73C1612.86 1050.73 1616.48 1031.48 1615.18 1028.12C1613.88 1024.77 1603.28 1009.56 1600.04 1006.98C1596.8 1004.39 1567.41 991.06 1567.41 991.06ZM1343.01 1034.79C1340.67 1028.08 1338.6 1024.52 1338.6 1024.52L1303.43 1026.18C1299.86 1036.08 1299.47 1039.48 1298.6 1047.15C1298.56 1047.49 1298.52 1047.85 1298.48 1048.21C1297.68 1055.19 1297.62 1062.21 1300.34 1071.55C1302.08 1077.56 1303.95 1082.66 1304.92 1082.45C1307.36 1081.9 1307.45 1078.85 1307.45 1078.85L1306.3 1073.16L1305.78 1067.61C1305.78 1067.61 1314.46 1092.18 1315.19 1092.05C1317.79 1091.57 1318.2 1087.26 1318.2 1087.26C1318.2 1087.26 1320.92 1095.74 1322.29 1095.44C1325.77 1094.65 1325.44 1090.73 1325.44 1090.73C1325.44 1090.73 1326.54 1091.67 1327.39 1091.43C1330.54 1090.54 1330.45 1085.09 1330.39 1081.9C1330.39 1081.65 1330.38 1081.41 1330.38 1081.18C1330.38 1081.18 1328.98 1071.14 1329.27 1068.04C1330.72 1052.26 1333.23 1048.51 1334.6 1046.46C1334.73 1046.26 1334.85 1046.08 1334.96 1045.91C1337.11 1047.34 1337.91 1049.79 1338.76 1052.39C1339.37 1054.28 1340.01 1056.25 1341.22 1057.97C1344.9 1063.19 1355.16 1068.13 1349.42 1056.16C1346.24 1049.51 1345.45 1045.42 1344.71 1041.63C1344.28 1039.4 1343.87 1037.28 1343.01 1034.79Z" fill="#E576C6"/>
<path fill-rule="evenodd" clip-rule="evenodd" d="M1360.28 993.526H1493.27L1498.33 907.847L1521.48 894.269L1505.13 856.45L1503.58 856.753C1503.31 856.241 1503.03 855.722 1502.74 855.196C1492.59 836.806 1475.23 826.436 1456.86 821.406C1456.56 821.324 1456.44 821.266 1456.43 821.285C1456.39 821.334 1457.03 821.873 1457.21 823.76C1457.47 826.396 1456.64 829.974 1455.77 831.061C1453.72 833.626 1450.61 835.082 1449.37 835.425C1448.12 835.767 1447.13 835.967 1446.03 836.187C1445.25 836.342 1440.85 836.67 1440.09 836.63C1433.83 836.301 1430.76 836.01 1426.82 835.068C1425.42 834.734 1423.98 834.354 1422.26 833.629C1421.94 833.493 1421.59 833.348 1421.21 833.192C1419.36 832.427 1416.9 831.408 1414.39 830.001C1411.75 828.513 1409.05 826.55 1407.1 824.546C1406.91 824.352 1406.72 824.164 1406.55 823.981C1404.49 821.88 1403.1 820.446 1402.13 819.008C1401.47 818.035 1401.22 817.712 1401.08 817.522C1400.99 817.407 1400.94 817.341 1400.86 817.209C1400.64 816.86 1400.46 816.552 1400.41 816.345C1400.35 816.123 1400.55 816.028 1400.54 816.006C1400.54 815.991 1400.45 816.006 1400.15 816.036C1390.79 816.966 1380.73 819.396 1369.76 824.546C1335.83 840.466 1316 880.466 1316 880.466L1358.05 912.096L1360.28 993.526Z" fill="#5E93D1"/>
<path opacity="0.150646" d="M1573.19 1012.19C1573.19 1012.19 1581.31 1022.2 1593.5 1021.05C1597.77 1020.65 1603.3 1035.69 1611.63 1029.92" stroke="black" stroke-width="3"/>
<path fill-rule="evenodd" clip-rule="evenodd" d="M1334.77 1030.92L1343.51 1000.8L1346.21 991.676L1358.5 936.5L1358 912C1358 912 1377 867.976 1376.5 854.352C1376 840.728 1362.02 824.798 1362.02 824.798C1368.64 821.471 1397.83 814.969 1397.83 814.969C1397.83 814.969 1420.91 847.54 1421 854.352C1421.55 896.739 1400.44 1035 1400.44 1035L1334.77 1030.92ZM1496.68 973.263L1498.52 1032.32L1475.11 1034.42C1475.11 1034.42 1458.19 874.157 1456.4 851.828C1455.6 841.73 1455.06 834.16 1454.66 828.652C1454.08 820.504 1453.82 816.869 1453.5 816.241C1453.5 816.233 1453.49 816.226 1453.49 816.226C1453.49 816.226 1485.91 824.851 1496.67 838.398C1496.67 838.398 1483 862.5 1498.5 908.5L1496.68 973.263Z" fill="#EC840A"/>
<path d="M1405.5 862.5C1404.53 848 1387 817.5 1387 817.5L1374 820.5C1374 820.5 1385.27 845.5 1387 862.5C1388.73 879.5 1365 1032.5 1365 1032.5L1384 1034C1384 1034 1406.47 877 1405.5 862.5Z" fill="#FFE600"/>
<path d="M1482.5 827.5C1482.5 827.5 1474.5 823.35 1472.5 822.85L1481.5 1034L1490.5 1033C1482.5 977 1482.5 827.5 1482.5 827.5Z" fill="#FFE500"/>
<path d="M1349.5 977L1347 988L1405.5 1003L1407 990.5L1349.5 977Z" fill="white"/>
<path d="M1353.5 958L1351 969L1408 983.5L1409.5 971L1353.5 958Z" fill="white"/>
<path d="M1496.95 982L1497.3 993L1472.2 1007L1470.95 995L1496.95 982Z" fill="white"/>
<path d="M1497 962.5L1496.7 974L1470.3 988.5L1469 976.255L1497 962.5Z" fill="white"/>
<path d="M1451.98 826.29L1451.12 796.601C1451.12 796.601 1487.24 799.473 1494.97 795.464C1494.97 795.464 1504.41 746.867 1493.15 719.954L1492.92 718.906L1416.69 710L1411.95 753.159C1409.38 745.596 1388.66 737.546 1383.12 748.378C1371.11 771.85 1414.04 787.655 1414.04 787.655L1409.68 826.647" fill="#E576C6"/>
<path opacity="0.400274" fill-rule="evenodd" clip-rule="evenodd" d="M1451.12 796.6L1426.76 791.384L1451 807.739L1451.12 796.6Z" fill="black"/>
<path fill-rule="evenodd" clip-rule="evenodd" d="M1471.21 748.084L1479.63 768.636L1469.54 768.765L1471.21 748.084Z" fill="#C364A8"/>
<path fill-rule="evenodd" clip-rule="evenodd" d="M1461.61 753.925C1462.12 756.692 1460.27 759.341 1457.5 759.842C1454.73 760.343 1452.08 758.504 1451.58 755.738C1451.08 752.97 1452.92 750.321 1455.69 749.82C1458.46 749.32 1461.11 751.157 1461.61 753.925Z" fill="#653000"/>
<path fill-rule="evenodd" clip-rule="evenodd" d="M1488.09 753.925C1488.59 756.692 1486.75 759.341 1483.98 759.842C1481.21 760.343 1478.55 758.504 1478.05 755.738C1477.55 752.97 1479.39 750.321 1482.16 749.82C1484.93 749.32 1487.59 751.157 1488.09 753.925Z" fill="#653000"/>
<path fill-rule="evenodd" clip-rule="evenodd" d="M1460.74 774.584C1460.74 774.584 1464.27 780.294 1471.25 779.81L1460.74 774.584Z" fill="white"/>
<path d="M1460.74 774.584C1460.74 774.584 1464.27 780.294 1471.25 779.81" stroke="#252535" stroke-width="4"/>
<path fill-rule="evenodd" clip-rule="evenodd" d="M1412.41 753.619C1406.72 747.725 1400.52 745.228 1396.76 744.191L1397.48 729.316L1433.29 723.08C1430.82 739.674 1421.24 748.728 1412.41 753.619Z" fill="#833310"/>
<path fill-rule="evenodd" clip-rule="evenodd" d="M1448.46 670.054C1444.57 670.273 1439.2 670.986 1437.02 671.574C1435.51 671.981 1433.27 673.898 1433.27 674.792C1433.26 675.008 1432.79 675.204 1431.65 675.46C1429.62 675.917 1423.62 677.829 1422.02 678.531C1421.35 678.824 1420.53 679.166 1420.2 679.292C1418.6 679.903 1413.7 682.468 1411.87 683.66C1409.03 685.506 1408.53 685.849 1406.85 687.138C1404.13 689.216 1401.69 691.494 1399.12 694.342C1396.9 696.804 1393.59 701.914 1393.89 702.406C1393.96 702.519 1393.93 702.553 1393.81 702.483C1393.7 702.413 1393.45 702.741 1393.25 703.212C1393.05 703.682 1392.72 704.454 1392.51 704.926C1390.35 709.846 1390.51 719.392 1392.97 731.825C1394.2 738.067 1395.64 742.3 1397.04 743.816L1397.45 744.259L1399.5 742.531C1401.6 740.765 1403.16 739.626 1403.48 739.626C1403.57 739.626 1404.46 739.225 1405.44 738.736C1406.42 738.247 1408.87 737.148 1410.88 736.294C1412.88 735.44 1414.93 734.566 1415.43 734.351C1420.22 732.298 1431.37 728.414 1438.63 726.266C1450.28 722.825 1464.13 720.032 1474.5 719.04C1479 718.608 1487.53 718.547 1489.89 718.929C1491.3 719.156 1491.82 719.273 1492.5 719.5C1492.5 719.5 1493.71 720.848 1494.05 722.405L1494.5 724L1495.5 727.5C1495.95 729.355 1496.42 730.955 1496.45 731L1496.93 730.811C1504.49 725.796 1510.59 719.569 1513.16 714.223C1514.45 711.536 1514.8 710.136 1514.8 707.613C1514.79 704.596 1514.29 702.078 1513.27 700.05C1512.39 698.288 1510.73 696.073 1509.66 695.248C1509.31 694.972 1508.82 694.582 1508.58 694.38C1507.72 693.66 1504.86 692.416 1502.94 691.928C1500.22 691.233 1498.07 690.973 1494.57 690.916C1492.16 690.877 1491.52 690.808 1491.45 690.578C1491.25 689.956 1487.93 685.941 1487.61 685.928C1487.53 685.925 1487.05 685.56 1486.55 685.115C1485.33 684.036 1485.41 684.09 1482.04 681.838C1481.44 681.435 1477.65 679.571 1476.26 678.994C1475.79 678.799 1475.11 678.355 1474.75 678.007C1471.57 674.95 1466.71 672.359 1461.84 671.137C1458.61 670.329 1452.45 669.829 1448.46 670.054Z" fill="#FFD237"/>
<path d="M1507.4 695.731C1495.45 687.627 1436.28 701.202 1403.36 739.394C1473 712.5 1492.5 719.5 1492.5 719.5C1494 722 1494.65 724.5 1494.65 724.5L1496.5 731C1496.5 731 1529.84 710.944 1507.4 695.731Z" fill="#F9A92E"/>
<path d="M1453.3 700.088L1458.27 698.062C1454.42 685.601 1433.95 665.441 1433.14 675.268C1440.74 680.333 1448.74 690.058 1453.3 700.088Z" fill="#F9A92E"/>
<path d="M1484.91 691.375L1483.19 691.679C1483.19 691.679 1481.57 686.209 1477.01 679.725C1480.65 682.765 1484.91 691.375 1484.91 691.375Z" fill="#F9A92E"/>
<path fill-rule="evenodd" clip-rule="evenodd" d="M2095.17 287.806H1506C1506 287.806 1544.29 140.479 1623.72 140.479C1673.64 140.479 1693.71 192.568 1740.07 192.568C1786.43 192.568 1845.33 62.9993 1921.16 62.9993C2039.79 62.9993 2095.17 287.806 2095.17 287.806Z" fill="#ECF6FF"/>
<path fill-rule="evenodd" clip-rule="evenodd" d="M290 536.077C290 536.077 357.29 381 464.663 381C551.751 381 561.47 490.784 641.303 488.077C721.137 485.37 761.598 435.231 833.608 435.231C924.47 435.231 999.507 536.077 999.507 536.077H290Z" fill="#ECF6FF"/>
<path fill-rule="evenodd" clip-rule="evenodd" d="M2674.37 1141.77H2690.37V429.911H2674.37V1141.77Z" fill="#D7EBFF"/>
<path fill-rule="evenodd" clip-rule="evenodd" d="M2509.97 448.028L2383.35 406.054C2378.06 404.301 2375.17 398.538 2376.92 393.249L2383.24 374.195C2384.99 368.906 2390.76 366.013 2396.04 367.766L2522.66 409.74C2527.95 411.493 2530.85 417.256 2529.09 422.545L2522.78 441.599C2521.02 446.888 2515.26 449.781 2509.97 448.028Z" fill="#ECF6FF"/>
<path fill-rule="evenodd" clip-rule="evenodd" d="M2651.7 1405.7H2713.03V1169.77H2651.7V1405.7Z" fill="#CCE3FF"/>
<path fill-rule="evenodd" clip-rule="evenodd" d="M2664.7 1213.77H2700.03V1133.05H2664.7V1213.77Z" fill="#CCE3FF"/>
<path fill-rule="evenodd" clip-rule="evenodd" d="M2667.67 446.928H2697.07V412.7H2667.67V446.928Z" fill="#CCE3FF"/>
<path d="M2467.05 391.644C2467.05 391.644 2682.37 439.253 2682.37 554.97" stroke="#DCEEFF" stroke-width="15" stroke-linejoin="bevel"/>
<path fill-rule="evenodd" clip-rule="evenodd" d="M2524.11 435.155L2385.3 389.14C2372.88 385.023 2366.09 371.489 2370.2 359.067L2371.45 355.305C2375.57 342.883 2389.1 336.088 2401.52 340.206L2540.33 386.22C2552.76 390.338 2559.55 403.871 2555.43 416.294L2554.18 420.056C2550.07 432.478 2536.53 439.273 2524.11 435.155Z" fill="#CCE3FF"/>
<path fill-rule="evenodd" clip-rule="evenodd" d="M1756.21 1013L1798.95 1412H1827.21L1784.48 1013H1756.21Z" fill="#CCE3FF"/>
<path fill-rule="evenodd" clip-rule="evenodd" d="M1712.21 1325H1801.21V1294H1712.21V1325Z" fill="#D7EBFF"/>
<path fill-rule="evenodd" clip-rule="evenodd" d="M1727.95 1013L1685.21 1412H1713.48L1756.21 1013H1727.95Z" fill="#CCE3FF"/>
<path fill-rule="evenodd" clip-rule="evenodd" d="M2241.21 1013L2283.95 1412H2312.21L2269.48 1013H2241.21Z" fill="#CCE3FF"/>
<path fill-rule="evenodd" clip-rule="evenodd" d="M2197.21 1325H2286.21V1294H2197.21V1325Z" fill="#D7EBFF"/>
<path fill-rule="evenodd" clip-rule="evenodd" d="M2212.95 1013L2170.21 1412H2198.48L2241.21 1013H2212.95Z" fill="#CCE3FF"/>
<path fill-rule="evenodd" clip-rule="evenodd" d="M2329.21 1202L2326.12 1274H2305.21L2308.32 1202H2329.21Z" fill="#CCE3FF"/>
<path fill-rule="evenodd" clip-rule="evenodd" d="M2311.21 1202L2305.51 1274H1659.21L1664.92 1202H2311.21Z" fill="#D7EBFF"/>
<path fill-rule="evenodd" clip-rule="evenodd" d="M2334.21 1107L2330.08 1180H2302.21L2306.35 1107H2334.21Z" fill="#CCE3FF"/>
<path fill-rule="evenodd" clip-rule="evenodd" d="M2311.21 1107L2305.5 1180H1658.21L1663.93 1107H2311.21Z" fill="#D7EBFF"/>
<path fill-rule="evenodd" clip-rule="evenodd" d="M2306.35 1013L2302.21 1085H2330.08L2334.21 1013H2306.35Z" fill="#CCE3FF"/>
<path fill-rule="evenodd" clip-rule="evenodd" d="M1664.92 1013L1659.21 1085H2305.52L2311.21 1013H1664.92Z" fill="#D7EBFF"/>
<path d="M1769.96 1243.81C1769.61 1246.96 1768.54 1249.75 1766.75 1252.19C1764.95 1254.6 1762.62 1256.47 1759.75 1257.78C1756.87 1259.07 1753.77 1259.69 1750.43 1259.62C1747.43 1259.56 1744.82 1258.88 1742.59 1257.56C1740.36 1256.23 1738.6 1254.31 1737.31 1251.81C1736.04 1249.29 1735.32 1246.4 1735.15 1243.12C1735.01 1240.56 1735.27 1237.38 1735.93 1233.56C1736.62 1229.75 1737.83 1226.36 1739.56 1223.41C1741.31 1220.45 1743.38 1218.1 1745.78 1216.38C1749.15 1213.96 1753.01 1212.79 1757.34 1212.88C1762.05 1212.96 1765.78 1214.42 1768.53 1217.25C1771.3 1220.06 1772.82 1223.98 1773.09 1229L1763.96 1228.97C1763.96 1226.09 1763.39 1223.99 1762.25 1222.66C1761.1 1221.32 1759.32 1220.61 1756.9 1220.53C1753.78 1220.43 1751.2 1221.54 1749.18 1223.88C1747.18 1226.21 1745.84 1229.61 1745.15 1234.09C1744.49 1238.45 1744.19 1241.71 1744.28 1243.88C1744.38 1246.62 1745 1248.66 1746.12 1249.97C1747.25 1251.26 1748.82 1251.94 1750.84 1252C1753.63 1252.1 1755.86 1251.45 1757.53 1250.03C1759.21 1248.59 1760.33 1246.54 1760.87 1243.88L1769.96 1243.81ZM1792.09 1259.62C1789.07 1259.56 1786.4 1258.85 1784.09 1257.5C1781.8 1256.12 1779.98 1254.16 1778.62 1251.59C1777.29 1249.01 1776.52 1246.05 1776.31 1242.72C1776.08 1239.3 1776.44 1235.66 1777.4 1231.78C1778.36 1227.91 1779.9 1224.5 1782.03 1221.56C1784.15 1218.62 1786.64 1216.43 1789.5 1214.97C1792.37 1213.51 1795.48 1212.81 1798.81 1212.88C1801.87 1212.94 1804.55 1213.67 1806.84 1215.06C1809.13 1216.44 1810.93 1218.43 1812.25 1221.03C1813.56 1223.61 1814.31 1226.55 1814.5 1229.84C1814.7 1233.51 1814.31 1237.28 1813.31 1241.16C1812.31 1245.03 1810.76 1248.39 1808.65 1251.22C1806.55 1254.05 1804.08 1256.18 1801.25 1257.59C1798.43 1259.01 1795.38 1259.69 1792.09 1259.62ZM1805.06 1235L1805.31 1232.03C1805.52 1228.32 1805.02 1225.51 1803.81 1223.59C1802.62 1221.68 1800.81 1220.68 1798.37 1220.59C1794.56 1220.47 1791.53 1222.16 1789.28 1225.66C1787.05 1229.16 1785.79 1234.05 1785.5 1240.34C1785.29 1244.03 1785.78 1246.88 1786.96 1248.88C1788.15 1250.85 1790 1251.89 1792.5 1251.97C1795.77 1252.11 1798.48 1250.84 1800.62 1248.16C1802.77 1245.45 1804.17 1241.62 1804.84 1236.69L1805.06 1235ZM1852.96 1259H1844.09L1831.43 1228.66L1826.15 1259H1817L1824.9 1213.5H1833.75L1846.43 1243.91L1851.71 1213.5H1860.84L1852.96 1259ZM1886.21 1246.84C1886.65 1244.36 1885.43 1242.47 1882.56 1241.16L1876.53 1238.75C1869.53 1235.62 1866.2 1231.32 1866.56 1225.84C1866.7 1223.3 1867.54 1221.05 1869.06 1219.09C1870.58 1217.14 1872.71 1215.6 1875.46 1214.5C1878.21 1213.38 1881.18 1212.83 1884.37 1212.88C1888.77 1212.96 1892.32 1214.27 1895.03 1216.81C1897.74 1219.33 1899.07 1222.72 1899.03 1226.97H1889.9C1890.01 1224.91 1889.55 1223.3 1888.53 1222.16C1887.53 1221.01 1885.96 1220.42 1883.84 1220.38C1881.76 1220.33 1879.94 1220.81 1878.4 1221.81C1876.86 1222.79 1875.94 1224.15 1875.65 1225.88C1875.26 1228.15 1876.78 1229.95 1880.21 1231.28L1884.34 1232.84L1886.71 1233.94C1892.86 1236.98 1895.74 1241.25 1895.34 1246.75C1895.15 1249.44 1894.29 1251.76 1892.75 1253.72C1891.23 1255.66 1889.14 1257.15 1886.5 1258.19C1883.87 1259.23 1880.98 1259.72 1877.81 1259.66C1874.58 1259.59 1871.7 1258.92 1869.18 1257.62C1866.66 1256.33 1864.75 1254.51 1863.43 1252.16C1862.2 1249.97 1861.63 1247.47 1861.71 1244.66L1870.87 1244.69C1870.58 1249.62 1873.01 1252.14 1878.15 1252.22C1880.38 1252.22 1882.21 1251.73 1883.65 1250.75C1885.09 1249.77 1885.94 1248.47 1886.21 1246.84ZM1939.53 1221.09H1926.03L1919.46 1259H1910.31L1916.87 1221.09H1903.53L1904.87 1213.5H1940.87L1939.53 1221.09ZM1957.93 1242.34H1950.5L1947.59 1259H1938.43L1946.34 1213.5L1961.4 1213.53C1966.44 1213.53 1970.32 1214.72 1973.03 1217.09C1975.76 1219.47 1976.96 1222.77 1976.65 1227C1976.21 1233.25 1972.88 1237.59 1966.65 1240.03L1973.06 1258.5V1259H1963.31L1957.93 1242.34ZM1951.81 1234.75L1958.62 1234.81C1961.04 1234.77 1963.03 1234.12 1964.59 1232.88C1966.17 1231.6 1967.12 1229.89 1967.43 1227.72C1967.73 1225.7 1967.4 1224.11 1966.46 1222.97C1965.53 1221.82 1964.04 1221.21 1962 1221.12L1954.18 1221.09L1951.81 1234.75ZM2019.87 1213.5L2014.75 1243.5C2014.04 1248.52 2011.95 1252.49 2008.5 1255.41C2005.04 1258.32 2000.75 1259.74 1995.62 1259.66C1992.41 1259.59 1989.62 1258.9 1987.25 1257.56C1984.89 1256.21 1983.15 1254.31 1982.03 1251.88C1980.9 1249.42 1980.52 1246.64 1980.87 1243.53L1985.96 1213.5H1995.12L1990.03 1243.56C1989.88 1244.73 1989.87 1245.82 1990 1246.84C1990.41 1250.22 1992.42 1251.97 1996.03 1252.09C1998.61 1252.18 2000.73 1251.47 2002.37 1249.97C2004.02 1248.47 2005.08 1246.32 2005.56 1243.53L2010.68 1213.5H2019.87ZM2056.65 1243.81C2056.3 1246.96 2055.23 1249.75 2053.43 1252.19C2051.64 1254.6 2049.31 1256.47 2046.43 1257.78C2043.56 1259.07 2040.45 1259.69 2037.12 1259.62C2034.12 1259.56 2031.51 1258.88 2029.28 1257.56C2027.05 1256.23 2025.29 1254.31 2024 1251.81C2022.73 1249.29 2022.01 1246.4 2021.84 1243.12C2021.69 1240.56 2021.95 1237.38 2022.62 1233.56C2023.31 1229.75 2024.52 1226.36 2026.25 1223.41C2028 1220.45 2030.07 1218.1 2032.46 1216.38C2035.84 1213.96 2039.69 1212.79 2044.03 1212.88C2048.74 1212.96 2052.46 1214.42 2055.21 1217.25C2057.99 1220.06 2059.51 1223.98 2059.78 1229L2050.65 1228.97C2050.65 1226.09 2050.08 1223.99 2048.93 1222.66C2047.79 1221.32 2046.01 1220.61 2043.59 1220.53C2040.46 1220.43 2037.89 1221.54 2035.87 1223.88C2033.87 1226.21 2032.53 1229.61 2031.84 1234.09C2031.17 1238.45 2030.88 1241.71 2030.96 1243.88C2031.07 1246.62 2031.68 1248.66 2032.81 1249.97C2033.93 1251.26 2035.51 1251.94 2037.53 1252C2040.32 1252.1 2042.55 1251.45 2044.21 1250.03C2045.9 1248.59 2047.02 1246.54 2047.56 1243.88L2056.65 1243.81ZM2099.4 1221.09H2085.9L2079.34 1259H2070.18L2076.75 1221.09H2063.4L2064.75 1213.5H2100.75L2099.4 1221.09ZM2108.06 1259H2098.9L2106.78 1213.5H2115.93L2108.06 1259ZM2135.03 1259.62C2132.01 1259.56 2129.34 1258.85 2127.03 1257.5C2124.74 1256.12 2122.91 1254.16 2121.56 1251.59C2120.23 1249.01 2119.45 1246.05 2119.25 1242.72C2119.02 1239.3 2119.38 1235.66 2120.34 1231.78C2121.3 1227.91 2122.84 1224.5 2124.96 1221.56C2127.09 1218.62 2129.58 1216.43 2132.43 1214.97C2135.31 1213.51 2138.41 1212.81 2141.75 1212.88C2144.81 1212.94 2147.49 1213.67 2149.78 1215.06C2152.07 1216.44 2153.87 1218.43 2155.18 1221.03C2156.5 1223.61 2157.25 1226.55 2157.43 1229.84C2157.64 1233.51 2157.25 1237.28 2156.25 1241.16C2155.25 1245.03 2153.69 1248.39 2151.59 1251.22C2149.49 1254.05 2147.02 1256.18 2144.18 1257.59C2141.37 1259.01 2138.32 1259.69 2135.03 1259.62ZM2148 1235L2148.25 1232.03C2148.45 1228.32 2147.95 1225.51 2146.75 1223.59C2145.56 1221.68 2143.75 1220.68 2141.31 1220.59C2137.5 1220.47 2134.46 1222.16 2132.21 1225.66C2129.99 1229.16 2128.73 1234.05 2128.43 1240.34C2128.23 1244.03 2128.71 1246.88 2129.9 1248.88C2131.09 1250.85 2132.93 1251.89 2135.43 1251.97C2138.7 1252.11 2141.41 1250.84 2143.56 1248.16C2145.7 1245.45 2147.11 1241.62 2147.78 1236.69L2148 1235ZM2195.9 1259H2187.03L2174.37 1228.66L2169.09 1259H2159.93L2167.84 1213.5H2176.68L2189.37 1243.91L2194.65 1213.5H2203.78L2195.9 1259Z" fill="white"/>
<path d="M1909.37 1120.5L1904.25 1150.5C1903.54 1155.52 1901.45 1159.49 1898 1162.41C1894.54 1165.32 1890.25 1166.74 1885.12 1166.66C1881.91 1166.59 1879.12 1165.9 1876.75 1164.56C1874.39 1163.21 1872.65 1161.31 1871.53 1158.88C1870.4 1156.42 1870.02 1153.64 1870.37 1150.53L1875.46 1120.5H1884.62L1879.53 1150.56C1879.38 1151.73 1879.37 1152.82 1879.5 1153.84C1879.91 1157.22 1881.92 1158.97 1885.53 1159.09C1888.11 1159.18 1890.23 1158.47 1891.87 1156.97C1893.52 1155.47 1894.58 1153.32 1895.06 1150.53L1900.18 1120.5H1909.37ZM1945.03 1166H1936.15L1923.5 1135.66L1918.21 1166H1909.06L1916.96 1120.5H1925.81L1938.5 1150.91L1943.78 1120.5H1952.9L1945.03 1166ZM1953.25 1166L1961.15 1120.5L1974.21 1120.53C1977.28 1120.59 1980.03 1121.29 1982.46 1122.62C1984.92 1123.94 1986.91 1125.83 1988.43 1128.31C1989.95 1130.79 1990.87 1133.58 1991.18 1136.69C1991.35 1138.5 1991.33 1140.35 1991.12 1142.25L1990.9 1143.91C1989.99 1150.57 1987.36 1155.93 1983.03 1159.97C1978.71 1163.99 1973.48 1166 1967.31 1166H1953.25ZM1969 1128.09L1963.71 1158.47L1967.53 1158.5C1971.74 1158.5 1975.11 1156.96 1977.65 1153.88C1980.21 1150.79 1981.68 1146.14 1982.06 1139.91L1982.12 1138.91C1982.18 1135.47 1981.53 1132.83 1980.15 1131C1978.78 1129.17 1976.73 1128.21 1974 1128.12L1969 1128.09ZM2023.96 1146.28H2006.53L2004.4 1158.47H2024.9L2023.59 1166H1993.93L2001.84 1120.5H2031.43L2030.09 1128.09H2009.68L2007.78 1138.94H2025.28L2023.96 1146.28ZM2048.68 1149.34H2041.25L2038.34 1166H2029.18L2037.09 1120.5L2052.15 1120.53C2057.19 1120.53 2061.07 1121.72 2063.78 1124.09C2066.51 1126.47 2067.71 1129.77 2067.4 1134C2066.96 1140.25 2063.63 1144.59 2057.4 1147.03L2063.81 1165.5V1166H2054.06L2048.68 1149.34ZM2042.56 1141.75L2049.37 1141.81C2051.79 1141.77 2053.78 1141.12 2055.34 1139.88C2056.92 1138.6 2057.87 1136.89 2058.18 1134.72C2058.48 1132.7 2058.15 1131.11 2057.21 1129.97C2056.28 1128.82 2054.79 1128.21 2052.75 1128.12L2044.93 1128.09L2042.56 1141.75Z" fill="white"/>
<path d="M1863.59 1059.78L1874.56 1027.5H1883.9L1867 1073H1857.78L1855.37 1042.69L1843.46 1073H1834.25L1831.56 1027.5H1840.5L1841.4 1059.62L1853.65 1027.5H1861.43L1863.59 1059.78ZM1911.56 1053.28H1894.12L1892 1065.47H1912.5L1911.18 1073H1881.53L1889.43 1027.5H1919.03L1917.68 1035.09H1897.28L1895.37 1045.94H1912.87L1911.56 1053.28ZM1916.78 1073L1924.68 1027.5L1938.87 1027.53C1944.14 1027.55 1948.1 1028.62 1950.75 1030.75C1953.39 1032.88 1954.59 1035.86 1954.34 1039.72C1954.05 1044.32 1951.39 1047.69 1946.37 1049.81C1948.18 1050.44 1949.59 1051.61 1950.59 1053.34C1951.59 1055.05 1952.02 1057.07 1951.87 1059.41C1951.58 1063.7 1949.89 1067.04 1946.81 1069.44C1943.75 1071.81 1939.56 1073 1934.25 1073H1916.78ZM1929.4 1053.19L1927.25 1065.47L1934.46 1065.5C1936.71 1065.5 1938.6 1064.95 1940.12 1063.84C1941.64 1062.72 1942.55 1061.21 1942.84 1059.31C1943.13 1057.44 1942.87 1055.98 1942.06 1054.94C1941.27 1053.88 1939.92 1053.3 1938.03 1053.22L1929.4 1053.19ZM1930.53 1046.56L1936.75 1046.62C1939.06 1046.58 1940.94 1046.04 1942.4 1045C1943.88 1043.96 1944.77 1042.51 1945.06 1040.66C1945.58 1036.99 1943.65 1035.15 1939.28 1035.12L1932.53 1035.09L1930.53 1046.56ZM1968.68 1056.97L1965.87 1073H1956.71L1964.62 1027.5L1980.56 1027.53C1985.48 1027.53 1989.34 1028.9 1992.15 1031.62C1994.96 1034.35 1996.19 1037.92 1995.84 1042.31C1995.51 1046.77 1993.64 1050.33 1990.25 1053C1986.87 1055.67 1982.56 1057 1977.31 1057L1968.68 1056.97ZM1969.96 1049.38L1977.59 1049.44C1980.05 1049.44 1982.09 1048.8 1983.71 1047.53C1985.34 1046.26 1986.31 1044.54 1986.62 1042.38C1986.93 1040.21 1986.58 1038.48 1985.56 1037.19C1984.56 1035.9 1983.07 1035.21 1981.09 1035.12L1972.46 1035.09L1969.96 1049.38ZM2018.28 1063.62H2002.4L1997.71 1073H1987.62L2011.93 1027.5H2020.4L2029.06 1073H2019.71L2018.28 1063.62ZM2006.15 1056.03H2017.12L2014.56 1039.09L2006.15 1056.03ZM2069.43 1067.25C2067.81 1069.31 2065.42 1070.91 2062.28 1072.03C2059.15 1073.14 2055.62 1073.66 2051.68 1073.59C2048.58 1073.57 2045.85 1072.9 2043.5 1071.56C2041.14 1070.21 2039.29 1068.27 2037.93 1065.75C2036.58 1063.23 2035.81 1060.35 2035.62 1057.12C2035.41 1054.12 2035.73 1050.6 2036.56 1046.56C2037.41 1042.5 2038.86 1038.95 2040.9 1035.91C2042.96 1032.84 2045.43 1030.56 2048.31 1029.06C2051.18 1027.54 2054.37 1026.81 2057.87 1026.88C2062.62 1026.96 2066.34 1028.3 2069.03 1030.91C2071.71 1033.49 2073.25 1037.2 2073.62 1042.03L2064.81 1042C2064.58 1039.46 2063.9 1037.58 2062.78 1036.38C2061.65 1035.17 2059.98 1034.52 2057.75 1034.44C2053.89 1034.31 2050.85 1036.01 2048.62 1039.53C2046.41 1043.03 2045.15 1048.11 2044.84 1054.78C2044.63 1058.34 2045.17 1061.1 2046.46 1063.06C2047.78 1065.02 2049.77 1066.02 2052.43 1066.06C2055.54 1066.15 2058.18 1065.41 2060.37 1063.84L2061.9 1056H2053.59L2054.81 1049.09H2072.18L2069.43 1067.25ZM2105.62 1053.28H2088.18L2086.06 1065.47H2106.56L2105.25 1073H2075.59L2083.5 1027.5H2113.09L2111.75 1035.09H2091.34L2089.43 1045.94H2106.93L2105.62 1053.28Z" fill="white"/>
</svg>
